<?xml version="1.0" encoding="UTF-8"?>
<svg id="Layer_1" data-name="Layer 1" xmlns="http://www.w3.org/2000/svg" viewBox="0 0 256 96">
  <defs>
    <style>
      .cls-1 {
        fill: #82ba3d;
        stroke-width: 0px;
      }
    </style>
  </defs>
  <g>
    <path class="cls-1" d="M37.66,29.71c1.77,2.28,2.66,4.88,2.66,7.81,0,4.22-1.48,7.57-4.43,10.04-2.95,2.47-7.07,3.71-12.35,3.71H0V.73h22.75c5.14,0,9.16,1.18,12.06,3.53,2.9,2.35,4.36,5.54,4.36,9.58,0,2.98-.78,5.45-2.34,7.42-1.56,1.97-3.64,3.34-6.23,4.1,2.93.62,5.28,2.08,7.06,4.36ZM12.31,21.18h8.06c2.02,0,3.56-.44,4.64-1.33,1.08-.89,1.62-2.2,1.62-3.92s-.54-3.05-1.62-3.96c-1.08-.91-2.63-1.37-4.64-1.37h-8.06v10.58ZM26.17,39.93c1.13-.94,1.69-2.29,1.69-4.07s-.59-3.17-1.76-4.18c-1.18-1.01-2.8-1.51-4.86-1.51h-8.93v11.16h9.07c2.06,0,3.66-.47,4.79-1.4Z"/>
    <path class="cls-1" d="M80.35,3.9c3.98,2.11,7.07,5.08,9.25,8.89,2.18,3.82,3.28,8.22,3.28,13.21s-1.09,9.34-3.28,13.18c-2.19,3.84-5.28,6.82-9.29,8.93-4.01,2.11-8.65,3.17-13.93,3.17h-18.94V.73h18.94c5.33,0,9.98,1.06,13.97,3.17ZM76.46,36.8c2.59-2.54,3.89-6.14,3.89-10.8s-1.3-8.28-3.89-10.87-6.22-3.89-10.87-3.89h-5.83v29.38h5.83c4.66,0,8.28-1.27,10.87-3.82Z"/>
    <path class="cls-1" d="M125.57,51.27l-10.51-19.08h-2.95v19.08h-12.31V.73h20.66c3.98,0,7.38.7,10.19,2.09,2.81,1.39,4.91,3.3,6.3,5.72,1.39,2.42,2.09,5.12,2.09,8.1,0,3.36-.95,6.36-2.84,9-1.9,2.64-4.69,4.51-8.39,5.62l11.66,20.02h-13.9ZM112.1,23.48h7.63c2.26,0,3.95-.55,5.08-1.66,1.13-1.1,1.69-2.66,1.69-4.68s-.56-3.43-1.69-4.54c-1.13-1.1-2.82-1.66-5.08-1.66h-7.63v12.53Z"/>
  </g>
  <g>
    <path class="cls-1" d="M7.12,62.68l1.13.18.89-.08c.47,0,.88.77,1.22,2.31l-.12,1.03,1.24,8.41v.85l.1.59c.2,0,.31-.37.34-1.11.43-.82,1.03-2.33,1.8-4.54.38-.38.9-1.47,1.56-3.26.24-.34.46-.51.67-.51l2.67.51c.29,0,.66,1.06,1.13,3.18.37.72.85,2.24,1.44,4.54l.22.16-.1.26c.09,1.21.28,1.82.55,1.82h.12v-.36c0-.28.34-.85,1.01-1.72.07-.61.7-2.49,1.9-5.65,0-.7.44-1.82,1.32-3.36.51-1.59.93-2.39,1.24-2.39h.34l2.45,1.03,1.22-.08.34.41c-.45,1.69-1.08,3.34-1.9,4.98l.12.77-.57,1.2.12.95c-.75,1.08-1.38,2.48-1.9,4.21-.22,0-.38.48-.45,1.44-2,5.6-3.23,8.83-3.67,9.7l-.89.26c0-.16-.9-.3-2.69-.43-.26,0-.53-2.09-.79-6.26-.25-.3-.47-.99-.65-2.05l-1.46-3.34-.12-.1v-.08h-.32l-.79,2.23c-1.04,2.88-1.78,4.74-2.23,5.57-.99,2.17-1.66,3.26-2.01,3.26l-2.11.43c-.53-.46-1.2-.74-2.01-.85l-1.22.08c-.3-.28-.45-.62-.45-1.03.22-1.88.45-3.05.67-3.52v-.18l-.22-.95.12-.34c-.16-2.09-.35-3.29-.57-3.59,0-1.61-.26-3.38-.77-5.33-.2,0-.46-2.05-.79-6.16l-.22-2.33c.45-.4.82-.59,1.13-.59l.1-.08.55.08h.12c.53,0,.93-.06,1.22-.18ZM5.9,66.55v.69l.22,1.19.24-.16v-.61l-.24-1.28-.22.18ZM6.9,77.61v.51l.12.85h.1v-1.36h-.22ZM7.36,79.84v.51l.22-.18-.12-.34h-.1ZM7.36,84.82v.41h.22v-.59l-.22.18ZM8.01,63.45l-.1.61c.4,1.88.65,2.82.77,2.82l.34-.43c-.25-2-.51-3-.77-3h-.24ZM10.24,78.64v1.28l.45.08.22-.51v-.59l-.55-.26h-.12ZM14.27,78.82v.26l.22.16.55-1.44v-.18h-.34c-.29,0-.43.4-.43,1.2ZM14.49,72.46l-.1.43h.22v-.43h-.12ZM14.39,73.66v1.28h.22v-.34l.1-.34-.1-.36v-.26h-.22ZM17.06,73.4v.36l.22.16.12-.08-.12-.61-.22.18ZM17.17,71.94v.77h.1v-.77h-.1ZM18.06,68.43l-.12.26.12.95h.22v-.77l-.1-.43h-.12ZM19.84,75.12l.24.77-.12.69.12.08h.22l.22-.51-.43-1.2-.24.18ZM21.74,84.47v.26l.12.43h.12v-.85l-.24.16ZM22.74,86.8v.41h.12l.12-.34-.12-.08h-.12ZM23.2,76.41l-.22,1.2.1.08v.1l-.1.08v.08c.09,1.2.28,1.8.55,1.8v-.26l-.12-3-.1-.08h-.12ZM23.65,84.21c0,.61-.22,1.12-.67,1.54v.95h.22l.67-1.88v-.43l-.22-.18ZM23.53,80.69v.1c0,.82.22,1.44.67,1.88l.1-.26-.55-1.88-.22.16ZM25.43,73.33l-.12.51.12.43h.22l.12-.36c-.08-.4-.19-.59-.34-.59ZM25.98,68.17v.87h.12l.22-.18v-.08l-.12-.61h-.22ZM26.32,69.45l-.12.1v.08l.24,2.05c.22-.03.34-.25.34-.67v-.51c0-.7-.15-1.05-.45-1.05ZM27.66,64.75v.08l.22.18h.12v-.43h-.12l-.22.18ZM28,69.2l-.12.1c.13.51.28.77.45.77l.22-.18c0-.3-.18-.53-.55-.69Z"/>
    <path class="cls-1" d="M46.35,72.57l.16.32-.08.41.26,6.64v1.05l.24,3.42-.08.63.08.83v.73c0,.21-.16.32-.49.32,0,.34-.43.51-1.3.51l-.57-.1-.47.1-.34-.73.08-.41-.24-.41c-1,1.04-2.36,1.56-4.07,1.56l-.08-.1h-.08l-.34.1c-1.36-.42-2.17-.73-2.45-.93l-.32.1c-.22-.11-.34-.21-.34-.32l.18-.32h-.18l-.32.22c-1.79-.82-2.69-1.72-2.69-2.71-.33-.51-.49-1.17-.49-1.98,0-2.88,1.01-5.2,3.02-6.95,1.49-1.09,2.84-1.72,4.07-1.88h.73c.93,0,1.94.35,3,1.05,0-.42.19-.63.57-.63,0-.28.11-.41.34-.41l.73.22.41-.22.4.12.65-.22ZM33.07,79.01l-.08.51.08.12h.08v-.63h-.08ZM35.19,79.78v.55c0,1.74,1.24,3.1,3.71,4.09l.34.1c2.44,0,3.96-1.03,4.58-3.08v-.45c0-1.05-.59-2.38-1.78-3.97-.74-.88-1.9-1.32-3.48-1.32-1.53.61-2.57,1.53-3.14,2.77l-.24,1.32ZM36.99,83.28v.1h.16v-.1h-.16ZM38.7,86.6v.1l.47.41h.18l.16-.2-.73-.32h-.08ZM39.43,74.75v.12c.2,0,.36.14.47.41l.34.1h.49c0-.33-.41-.54-1.22-.63h-.08ZM44.39,86.8v.12l.16.2h.18c0-.11-.11-.21-.34-.32ZM45.85,73.82l.1,1.24.16-.2v-1.05h-.26Z"/>
    <path class="cls-1" d="M53.77,71.94c1.17.16,1.96.34,2.37.55.91,0,2.15.66,3.71,1.98,0,.14.16.38.47.71.68,1.15,1.03,1.8,1.03,1.98-.38.47-1.38.71-3,.71-.22-.04-.62-.57-1.19-1.58l-1.74-1.66-.55-.24h-.08c-1.63.2-2.45.83-2.45,1.9,0,.84.42,1.45,1.26,1.82l.95.24,1.03-.24.32.08,1.5-.08h.08c.8,0,1.46.24,1.98.71.47,0,.97.53,1.5,1.58l.32,1.11c0,1.66-1.13,3.19-3.4,4.58-.55.43-1.84.88-3.87,1.34h-.08c-1.55,0-3-.82-4.35-2.45-.3-.82-.46-1.69-.47-2.61l.08-.79-.08-.32.55-.24.08.08.4-.08h.87c.95,0,1.42.32,1.42.95.75,1.21,1.51,1.82,2.29,1.82h.32c.88,0,1.49-.55,1.82-1.66v-.4c0-.63-1.03-1.19-3.08-1.66-.29-.3-1.21-.62-2.77-.95-1-.83-1.5-1.54-1.5-2.13-.09,0-.14-.13-.16-.4v-1.5c.55-1.58,1.13-2.37,1.74-2.37.25-.29.93-.53,2.05-.71l.32.08.32-.16ZM51.17,77.63l-.32.55v.24l.4.08v-.08l.08-.32v-.32l-.16-.16ZM51.25,84.9l.24.24h.08v-.24h-.32ZM51.4,78.5l-.08.08v.08l.08.08h.32v-.16l-.32-.08ZM51.4,81.82v.24h.16v-.4l-.16.16ZM52.35,86.01l-.08.08v.08c.13.37.45.55.95.55h.24v-.16c0-.11-.37-.32-1.11-.63v.08ZM52.83,78.18l-.08.08v.24h.32v-.24l-.24-.08ZM53.3,78.74l.47.16v-.08l-.24-.24h-.08l-.16.16ZM54.09,73.44v.08l.08.08v.08l.32-.24-.16-.16h-.08l-.16.16ZM54.17,85.53v.16l.16.16h.24l-.32-.32h-.08ZM56.22,85.85v-.08c-.28.16-.72.29-1.34.4l-.4.47.08.08h.08c1.53-.28,2.29-.62,2.29-1.03l-.08-.08h-.08c-.2.16-.38.24-.55.24ZM55.43,79.69c0,.17.26.3.79.4l.08-.08v-.08l-.79-.24h-.08ZM55.51,72.89v.16l.16.16h.24v-.08c0-.12-.13-.2-.4-.24ZM57.33,81.27l.24.16h.16l.16-.16v-.08l-.24-.24c-.16.04-.26.14-.32.32ZM57.72,82.29l-.4,1.26h.16l.4-.79.08-.47h-.24ZM57.88,73.84v.24l.71.4.16-.16c-.32-.32-.58-.47-.79-.47h-.08ZM58.04,79.13h.32v-.16h-.16l-.16.16ZM58.36,83.08v.47c.37-.62.55-1.09.55-1.42h-.08c-.09,0-.17.24-.24.71l-.24.24ZM58.67,84.58v.16h.08v-.16h-.08ZM59.54,75.42v.32h.16v-.32h-.16Z"/>
    <path class="cls-1" d="M67.32,62.28h.08c.26.14.4.36.4.65l.24-.08c1.37,0,2.05.32,2.05.97l-.08.89.81,4.68c.12.21.33.32.63.32l1.42-.16c1.17.13,1.76.3,1.76.49v.71l.08.49-.08.32.24,1.54c0,.14-.13.28-.4.41l-.47-.1-.24.1-.4-.1c-1.75.12-2.63.28-2.63.49l-.08.57v1.2l-.08.97c.11.71.16,1.87.16,3.48v.08c.17.58.33,1.6.47,3.06.32,1.71.47,2.82.47,3.32,0,.14-.53.26-1.6.34l-.32-.1-.16.26.08.55v.08c0,.29-.08.45-.24.49-.12,0-.25-.38-.4-1.13h-.16l-.47.08c-.68,0-1.03-.27-1.03-.81l.08-.32-.08-.73v-.08l.08-.34-.08-.08.08-1.2v-.97c-.12-6.25-.36-9.38-.73-9.38l-1.82.34h-1.28c-.68,0-1.03-.57-1.03-1.7l-.08-.57.08-1.28v-.08c0-.33.21-.49.63-.49l1.44-.24h1.26l.47.16.24-.08-.16-2.67.08-.97-.32-2.27v-.32c0-.11.21-.18.63-.24.14-.36.28-.55.41-.57ZM63.25,70.28l.08.32h.24l.08-.4-.08-.24h-.08c-.08,0-.16.11-.24.32ZM63.41,71.49h.81l1.03.08.32-.08.95.08.63-.08c0-.17-.76-.33-2.29-.47l-.24-.08h-.65c-.37,0-.55.18-.55.55ZM67.72,65.11v.24h.16v-.24h-.16ZM67.8,64.46l.08.1h.16l.24-1.07c-.09,0-.25.32-.47.97ZM68.67,84.82v1.46l.08.4h.08l.08-.08.08-.24h.08l-.24-1.7-.16.16ZM68.75,63.82l.08.08-.08.55.16.73h.16l-.16-.81c.09-.26.25-.4.47-.4v-.24l-.16-.18c-.18,0-.34.09-.47.26ZM68.98,66.49v.89h.16v-.73l-.16-.16ZM69.38,85.63l-.08.32c.09.28.25.41.47.41v-.16l-.4-.57ZM70.35,70.44l-.08.41.08.55h.32l.08-.47c-.12-.33-.22-.49-.32-.49h-.08ZM70.35,86.2l.08.24h.32l.16-.16v-.97l-.08-.41c-.11,0-.18.3-.24.89-.13,0-.21.14-.24.41ZM71.06,71.25l-.08.08v.16l.4.08h.4c0-.12-.24-.22-.71-.32ZM71.85,71.57l.16.18h.24v-.1l-.4-.08ZM73.19,70.36c0,.09.22.2.65.32l.16-.24-.32-.24h-.32l-.18.16ZM73.76,71.49v.16h.16l-.16-.16ZM73.92,72.38v.26l.16.16h.08v-.57h-.08l-.16.16Z"/>
    <path class="cls-1" d="M82.65,72.61c.66-.01,1.72.2,3.2.65,1.09,1.11,1.75,2.12,1.98,3.04l.34.34c.01,1.74-.12,2.61-.4,2.63-1.25.3-2.57.52-3.95.65l-2.51-.06-1.3.34.14,1.15c.22,1.22,1.1,2,2.63,2.33,1.38.2,2.19-.2,2.43-1.2l.2-.41v-.08c.82-.16,1.32-.24,1.51-.26s.58-.02,1.18-.02l-.08.41.2.08c-.21.83-.43,1.49-.65,1.99-.66,2-2.35,3.08-5.08,3.24-1.53-.25-3.07-1.11-4.64-2.57,0-.13-.37-.65-1.11-1.56-.75-1.75-1.13-2.85-1.13-3.3l-.02-1.3c.34-1.36.81-2.35,1.4-2.98.87-1.04,2.01-1.9,3.42-2.57,1-.36,1.75-.53,2.25-.53ZM76.09,78.86v.61h.08v-.61h-.08ZM76.09,79.9v.43h.1l-.02-.43h-.08ZM76.63,81.9v.36l.16.18h.1c-.07-.36-.15-.53-.26-.53ZM77.04,82.77v.18l.1.26h.08v-.08l-.08-.36h-.1ZM77.4,83.64v.1h.16v-.1h-.16ZM77.85,79.8l.02.43h.08v-.43h-.1ZM78.29,80.42v.08l.26-.1v-.26l-.26.28ZM79.75,83.1v.08c.17.43.42.78.75,1.05l.18-.02v-.26l-.93-.85ZM79.81,77.63l2.82-.04h1.32l.4-.41c-.01-.74-.46-1.37-1.34-1.9-1.74-.24-2.8.55-3.2,2.35ZM80.81,82.39l.02.08.24.18v-.1l-.26-.16ZM82.29,85.95v.18h.16v-.18h-.16ZM82.93,74.69v.36c.22-.09.34-.18.34-.26v-.18h-.08l-.26.08ZM83.36,84.98l.02.34.32-.26-.08-.26h-.08l-.18.18ZM86.09,78.5v.34c.29,0,.45-.09.49-.26v-.18h-.08l-.41.1Z"/>
    <path class="cls-1" d="M104.38,62.8c1.79,0,3.58.24,5.37.71,1.88.25,2.82.48,2.82.69l.08-.08h.1c1.17.53,1.97.79,2.39.79l.16-.18c.58.3.87.68.87,1.15v.34l-.1.1c.46,1.07.69,2.3.69,3.69-.46,2.01-1.06,3.27-1.8,3.77,0,.13-.57.6-1.7,1.4l-1.03.69-3.67.71h-1.46l-1.03.18-.67-.1-.18.36.18,2.01-.1.63.26,1.22-.08.51.08.45-.08,1.48.18,2.73v.97c0,.32-.12.52-.36.61h-.41l-.1-.08c-.37.17-.71.26-1.03.26-2.16,0-3.24-.14-3.24-.43v-.18l.18-1.5-.18-6.22.18-1.24-.1-.61v-1.13l.1-1.6-.1-.34.26-4.48-.08-1.76v-2.45c0-1.82.43-2.73,1.28-2.73.91-.07,1.68-.18,2.31-.36ZM101.47,86.86v.1l.16.16.18-.16-.08-.1v-.08l-.26.08ZM101.81,65.42v.28l.18-.18v-.28l-.18.18ZM102.15,82.29l-.08,1.05v2.37h.18l.08-.61v-2.37l-.08-.43h-.1ZM103.43,69.83l.08.34v.28h.18l.18-.97-.1-.26c-.12,0-.23.2-.34.61ZM103.86,76.84l.08.36h.08l.18-.18v-.51h-.08l-.1.08-.08.26h-.08ZM104.63,83.26c-.04.41-.1.61-.18.61l.08.87v1.32c0,.65.09.97.26.97l.1-.26-.18-3.52h-.08ZM105.31,69.37l.1.53-.1,2.29c.07.34.15.51.26.51l.51-.08.36.18.34-.18.77.18c1.4-.28,2.25-.54,2.57-.79.24,0,.46-.26.67-.79.21,0,.41-.36.59-1.07,0-1.25-.63-2.09-1.88-2.53l-1.7-.36-.1.08h-.08l-.43-.08c-1.13,0-1.7.32-1.7.97l-.18,1.13ZM110.95,64.63c0,.41.2.61.59.61,0-.45-.11-.71-.34-.79h-.1l-.16.18ZM111.88,67.28v.43c.34.4.51.68.51.87h.18l.08-.43v-.51c-.09-.24-.29-.36-.59-.36h-.18ZM113.42,71.84v.18h.26l.26-.43.26-.63h-.08c-.46.22-.69.52-.69.89ZM115.04,72.2h.1c.11,0,.22-.18.34-.53l-.08-.08h-.1c-.13,0-.22.2-.26.61ZM115.73,69.22l-.18.69v.36l.18.18c.09,0,.18-.12.26-.36-.05-.58-.14-.87-.26-.87Z"/>
    <path class="cls-1" d="M131.2,72.57l.16.32-.08.41.26,6.64v1.05l.24,3.42-.08.63.08.83v.73c0,.21-.16.32-.49.32,0,.34-.43.51-1.3.51l-.57-.1-.47.1-.34-.73.08-.41-.24-.41c-1,1.04-2.36,1.56-4.07,1.56l-.08-.1h-.08l-.34.1c-1.36-.42-2.17-.73-2.45-.93l-.32.1c-.22-.11-.34-.21-.34-.32l.18-.32h-.18l-.32.22c-1.79-.82-2.69-1.72-2.69-2.71-.33-.51-.49-1.17-.49-1.98,0-2.88,1.01-5.2,3.02-6.95,1.49-1.09,2.84-1.72,4.07-1.88h.73c.93,0,1.94.35,3,1.05,0-.42.19-.63.57-.63,0-.28.11-.41.34-.41l.73.22.41-.22.4.12.65-.22ZM117.93,79.01l-.08.51.08.12h.08v-.63h-.08ZM120.04,79.78v.55c0,1.74,1.24,3.1,3.71,4.09l.34.1c2.44,0,3.96-1.03,4.58-3.08v-.45c0-1.05-.59-2.38-1.78-3.97-.74-.88-1.9-1.32-3.48-1.32-1.53.61-2.57,1.53-3.14,2.77l-.24,1.32ZM121.84,83.28v.1h.16v-.1h-.16ZM123.56,86.6v.1l.47.41h.18l.16-.2-.73-.32h-.08ZM124.29,74.75v.12c.2,0,.36.14.47.41l.34.1h.49c0-.33-.41-.54-1.22-.63h-.08ZM129.24,86.8v.12l.16.2h.18c0-.11-.11-.21-.34-.32ZM130.71,73.82l.1,1.24.16-.2v-1.05h-.26Z"/>
    <path class="cls-1" d="M137.72,72.34c.36.11.55.24.59.41v.16l-.1,1.32.75-.73h.08c0-.12.59-.34,1.76-.65h.91c.21.18.49.29.85.32.01.12.4.37,1.17.75,0,.12.5.62,1.5,1.5.16.33.32,1.08.49,2.25,0,.92-.66,1.51-1.99,1.76,0,.08-.22.13-.67.16-.32,0-.57-.64-.75-1.92-.54-.83-1.01-1.24-1.42-1.24h-.24c-.12.01-.66.11-1.62.3-.86.84-1.28,2.53-1.28,5.06v1.88c.51,2.12.3,3.38-.65,3.77h-1.2c-1.22-.11-1.84-.36-1.84-.75l-.08-.49.41-9.76v-3.26l-.16-.24v-.08c0-.16.3-.3.91-.43l.67.1c.34-.12.98-.18,1.92-.18ZM137.09,83.66l.04,2.69h.1v-.16l-.14-2.53ZM141.29,73.76v.08l.34.08h.08v-.08l-.32-.08h-.1ZM143.31,75.08l-.1.51c.08.33.19.49.34.49l.26-.26h.08c.09,0,.2.2.34.59h.16v-.08c-.42-.84-.78-1.26-1.07-1.26ZM144.47,76.92l-.18,1.34.08.24h.1l.08-.57v-1.01h-.08Z"/>
    <path class="cls-1" d="M151.37,62.28h.08c.26.14.4.36.4.65l.24-.08c1.37,0,2.05.32,2.05.97l-.08.89.81,4.68c.12.21.33.32.63.32l1.42-.16c1.17.13,1.76.3,1.76.49v.71l.08.49-.08.32.24,1.54c0,.14-.13.28-.4.41l-.47-.1-.24.1-.4-.1c-1.75.12-2.63.28-2.63.49l-.08.57v1.2l-.08.97c.11.71.16,1.87.16,3.48v.08c.17.58.33,1.6.47,3.06.32,1.71.47,2.82.47,3.32,0,.14-.53.26-1.6.34l-.32-.1-.16.26.08.55v.08c0,.29-.08.45-.24.49-.12,0-.25-.38-.4-1.13h-.16l-.47.08c-.68,0-1.03-.27-1.03-.81l.08-.32-.08-.73v-.08l.08-.34-.08-.08.08-1.2v-.97c-.12-6.25-.36-9.38-.73-9.38l-1.82.34h-1.28c-.68,0-1.03-.57-1.03-1.7l-.08-.57.08-1.28v-.08c0-.33.21-.49.63-.49l1.44-.24h1.26l.47.16.24-.08-.16-2.67.08-.97-.32-2.27v-.32c0-.11.21-.18.63-.24.14-.36.28-.55.41-.57ZM147.3,70.28l.08.32h.24l.08-.4-.08-.24h-.08c-.08,0-.16.11-.24.32ZM147.46,71.49h.81l1.03.08.32-.08.95.08.63-.08c0-.17-.76-.33-2.29-.47l-.24-.08h-.65c-.37,0-.55.18-.55.55ZM151.76,65.11v.24h.16v-.24h-.16ZM151.84,64.46l.08.1h.16l.24-1.07c-.09,0-.25.32-.47.97ZM152.71,84.82v1.46l.08.4h.08l.08-.08.08-.24h.08l-.24-1.7-.16.16ZM152.79,63.82l.08.08-.08.55.16.73h.16l-.16-.81c.09-.26.25-.4.47-.4v-.24l-.16-.18c-.18,0-.34.09-.47.26ZM153.03,66.49v.89h.16v-.73l-.16-.16ZM153.42,85.63l-.08.32c.09.28.25.41.47.41v-.16l-.4-.57ZM154.39,70.44l-.08.41.08.55h.32l.08-.47c-.12-.33-.22-.49-.32-.49h-.08ZM154.39,86.2l.08.24h.32l.16-.16v-.97l-.08-.41c-.11,0-.18.3-.24.89-.13,0-.21.14-.24.41ZM155.1,71.25l-.08.08v.16l.4.08h.4c0-.12-.24-.22-.71-.32ZM155.89,71.57l.16.18h.24v-.1l-.4-.08ZM157.23,70.36c0,.09.22.2.65.32l.16-.24-.32-.24h-.32l-.18.16ZM157.81,71.49v.16h.16l-.16-.16ZM157.96,72.38v.26l.16.16h.08v-.57h-.08l-.16.16Z"/>
    <path class="cls-1" d="M166.54,72.5c1.51.12,2.44.32,2.78.61.72.25,1.71,1.19,2.96,2.82l.97,2.77v.08l-.08.77.16.43-.08.1c.29,1.07.43,2.53.43,4.38,0,1.55-.23,2.33-.69,2.33l-.53-.1c-.58,0-1.45.26-2.61.77l-.43-.51c.05-.78.14-1.26.26-1.46l-.18-1.11.08-1.3-.16-1.54.08-.36c-.24-2.16-.61-3.39-1.13-3.69-.14-.51-.41-.77-.79-.77l-.87-.26c-1.3.34-2.15,1.74-2.53,4.21l.16,1.13-.08.95v.08c.17,1.05.26,2.2.26,3.44v1.05l-.26.26-.79-.1-2.71.61-.43-.69.1-.85-.1-1.05c-.2,0-.43-.17-.69-.51l.69-9.3-.18-2.31c.12-.26.24-.41.36-.43l1.05.08c.71-.29,1.26-.43,1.66-.43h.26l.61.69-.08.51v.1c.82-.87,1.63-1.3,2.43-1.3l.1-.08ZM161.66,86.95l-.28-.08-.18.26v.08c.88-.21,1.32-.41,1.32-.59v-.08c-.2,0-.49.14-.87.41ZM162.6,73.78l.43.53v.16h.1v-.95l-.53.26ZM163.57,78.7l.08.08v.1l-.08.41c.17-.05.26-.22.26-.51v-.34l-.26.26ZM163.75,84.72v1.72l-.1.26c.12,0,.18-.09.18-.26v-1.72h-.08ZM166.18,76.19v.1h.18v-.1h-.18ZM169.85,74.47l-.1.36h.36l.08-.1h.1l-.1-.26h-.34ZM170.37,85.75l-.08.43v.18h.08l.18-.18v-.43h-.18Z"/>
    <path class="cls-1" d="M182.42,72.61c.66-.01,1.72.2,3.2.65,1.09,1.11,1.75,2.12,1.98,3.04l.34.34c.01,1.74-.12,2.61-.4,2.63-1.25.3-2.57.52-3.95.65l-2.51-.06-1.3.34.14,1.15c.22,1.22,1.1,2,2.63,2.33,1.38.2,2.19-.2,2.43-1.2l.2-.41v-.08c.82-.16,1.32-.24,1.51-.26s.58-.02,1.18-.02l-.08.41.2.08c-.21.83-.43,1.49-.65,1.99-.66,2-2.35,3.08-5.08,3.24-1.53-.25-3.07-1.11-4.64-2.57,0-.13-.37-.65-1.11-1.56-.75-1.75-1.13-2.85-1.13-3.3l-.02-1.3c.34-1.36.81-2.35,1.4-2.98.87-1.04,2.01-1.9,3.42-2.57,1-.36,1.75-.53,2.25-.53ZM175.86,78.86v.61h.08v-.61h-.08ZM175.86,79.9v.43h.1l-.02-.43h-.08ZM176.39,81.9v.36l.16.18h.1c-.07-.36-.15-.53-.26-.53ZM176.81,82.77v.18l.1.26h.08v-.08l-.08-.36h-.1ZM177.16,83.64v.1h.16v-.1h-.16ZM177.62,79.8l.02.43h.08v-.43h-.1ZM178.05,80.42v.08l.26-.1v-.26l-.26.28ZM179.51,83.1v.08c.17.43.42.78.75,1.05l.18-.02v-.26l-.93-.85ZM179.57,77.63l2.82-.04h1.32l.4-.41c-.01-.74-.46-1.37-1.34-1.9-1.74-.24-2.8.55-3.2,2.35ZM180.58,82.39l.02.08.24.18v-.1l-.26-.16ZM182.06,85.95v.18h.16v-.18h-.16ZM182.69,74.69v.36c.22-.09.34-.18.34-.26v-.18h-.08l-.26.08ZM183.13,84.98l.02.34.32-.26-.08-.26h-.08l-.18.18ZM185.85,78.5v.34c.29,0,.45-.09.49-.26v-.18h-.08l-.41.1Z"/>
    <path class="cls-1" d="M194.01,72.34c.36.11.55.24.59.41v.16l-.1,1.32.75-.73h.08c0-.12.59-.34,1.76-.65h.91c.21.18.49.29.85.32.01.12.4.37,1.17.75,0,.12.5.62,1.5,1.5.16.33.32,1.08.49,2.25,0,.92-.66,1.51-1.99,1.76,0,.08-.22.13-.67.16-.32,0-.57-.64-.75-1.92-.54-.83-1.01-1.24-1.42-1.24h-.24c-.12.01-.66.11-1.62.3-.86.84-1.28,2.53-1.28,5.06v1.88c.51,2.12.3,3.38-.65,3.77h-1.2c-1.22-.11-1.84-.36-1.84-.75l-.08-.49.41-9.76v-3.26l-.16-.24v-.08c0-.16.3-.3.91-.43l.67.1c.34-.12.98-.18,1.92-.18ZM193.38,83.66l.04,2.69h.1v-.16l-.14-2.53ZM197.58,73.76v.08l.34.08h.08v-.08l-.32-.08h-.1ZM199.6,75.08l-.1.51c.08.33.19.49.34.49l.26-.26h.08c.09,0,.2.2.34.59h.16v-.08c-.42-.84-.78-1.26-1.07-1.26ZM200.76,76.92l-.18,1.34.08.24h.1l.08-.57v-1.01h-.08Z"/>
    <path class="cls-1" d="M207.93,71.94c1.17.16,1.96.34,2.37.55.91,0,2.15.66,3.71,1.98,0,.14.16.38.47.71.68,1.15,1.03,1.8,1.03,1.98-.38.47-1.38.71-3,.71-.22-.04-.62-.57-1.19-1.58l-1.74-1.66-.55-.24h-.08c-1.63.2-2.45.83-2.45,1.9,0,.84.42,1.45,1.26,1.82l.95.24,1.03-.24.32.08,1.5-.08h.08c.8,0,1.46.24,1.98.71.47,0,.97.53,1.5,1.58l.32,1.11c0,1.66-1.13,3.19-3.4,4.58-.55.43-1.84.88-3.87,1.34h-.08c-1.55,0-3-.82-4.35-2.45-.3-.82-.46-1.69-.47-2.61l.08-.79-.08-.32.55-.24.08.08.4-.08h.87c.95,0,1.42.32,1.42.95.75,1.21,1.51,1.82,2.29,1.82h.32c.88,0,1.49-.55,1.82-1.66v-.4c0-.63-1.03-1.19-3.08-1.66-.29-.3-1.21-.62-2.77-.95-1-.83-1.5-1.54-1.5-2.13-.09,0-.14-.13-.16-.4v-1.5c.55-1.58,1.13-2.37,1.74-2.37.25-.29.93-.53,2.05-.71l.32.08.32-.16ZM205.33,77.63l-.32.55v.24l.4.08v-.08l.08-.32v-.32l-.16-.16ZM205.41,84.9l.24.24h.08v-.24h-.32ZM205.56,78.5l-.08.08v.08l.08.08h.32v-.16l-.32-.08ZM205.56,81.82v.24h.16v-.4l-.16.16ZM206.51,86.01l-.08.08v.08c.13.37.45.55.95.55h.24v-.16c0-.11-.37-.32-1.11-.63v.08ZM206.99,78.18l-.08.08v.24h.32v-.24l-.24-.08ZM207.46,78.74l.47.16v-.08l-.24-.24h-.08l-.16.16ZM208.25,73.44v.08l.08.08v.08l.32-.24-.16-.16h-.08l-.16.16ZM208.33,85.53v.16l.16.16h.24l-.32-.32h-.08ZM210.38,85.85v-.08c-.28.16-.72.29-1.34.4l-.4.47.08.08h.08c1.53-.28,2.29-.62,2.29-1.03l-.08-.08h-.08c-.2.16-.38.24-.55.24ZM209.59,79.69c0,.17.26.3.79.4l.08-.08v-.08l-.79-.24h-.08ZM209.67,72.89v.16l.16.16h.24v-.08c0-.12-.13-.2-.4-.24ZM211.49,81.27l.24.16h.16l.16-.16v-.08l-.24-.24c-.16.04-.26.14-.32.32ZM211.88,82.29l-.4,1.26h.16l.4-.79.08-.47h-.24ZM212.04,73.84v.24l.71.4.16-.16c-.32-.32-.58-.47-.79-.47h-.08ZM212.2,79.13h.32v-.16h-.16l-.16.16ZM212.52,83.08v.47c.37-.62.55-1.09.55-1.42h-.08c-.09,0-.17.24-.24.71l-.24.24ZM212.83,84.58v.16h.08v-.16h-.08ZM213.7,75.42v.32h.16v-.32h-.16Z"/>
    <path class="cls-1" d="M217.79,63.69c1.91,0,2.86.2,2.86.61l-.16,3.75c.18,4.37.38,6.56.57,6.56h.18c.33-.41.61-.61.83-.61.5,0,.95-.3,1.34-.89h.1c.22,0,.45.09.67.28l.34-.1c2.03,0,3.71,1.55,5.04,4.64l.26,1.05-.08.08v.08l.41,1.66-.08.53c.14,0,.28,1.51.41,4.54,0,1.57-.53,2.35-1.6,2.35l-.34.1-.08-.1h-.08l-.51.18c-.45-.04-.67-.1-.67-.18l-.08.1c-.79,0-1.19-.3-1.19-.89l.26-1.3v-.43l-.08-.79c.11-.29.16-.81.16-1.56,0-2.17-.7-3.63-2.09-4.37-.3,0-.61-.09-.93-.28-1.26,0-2.16.79-2.69,2.37l-.18,1.48c.18,1.71.41,2.82.67,3.32l.1.95-.26.18.08.1v.08c-.05.24-.16.36-.34.36l-1.42-.18h-1.11c-.43,0-.74-.18-.91-.53l.16-2.53-.08-1.13.08-.53-.16-3.65.08-1.58-.18-2.35.1-.36-.1-.69.1-1.66v-5.08l-.18-.69v-.18l.26-.69-.08-1.22.41-.36.16-.43ZM218.3,86.82v.1h.16v-.1h-.16ZM219.05,74.87l.08.36h.18v-.18l-.18-.18h-.08ZM219.23,64.91v.08c.16.26.24.56.24.89h.1l.08-.45c0-.22-.11-.4-.34-.51h-.08ZM219.39,64.3v.08h.18v-.08h-.18ZM220.65,78.88v.1l.18.16h.08v-.16l-.26-.1ZM222.85,74.77v1.05h.08v-1.05h-.08ZM222.85,76.35v.18h.08v-.18h-.08ZM225.36,78.36l.34.34v-.08l-.08-.26h-.26ZM226.96,86.05v.08l.08.08-.08.45v.34l.26.28h.26v-.1l-.34-1.13h-.18ZM227.73,78.7l-.1.28c.07.8.18,1.2.34,1.2v-.16l-.08-1.32h-.16ZM227.73,78.36v.26h.08v-.26h-.08Z"/>
    <path class="cls-1" d="M233.79,65.42c.71,0,1.6.47,2.67,1.4l.2.43c0,1.21-.48,2.09-1.44,2.65-.42.41-.77.61-1.05.61-1.4-.46-2.09-1.17-2.09-2.11l-.2-.26c0-.86.54-1.74,1.62-2.65l.3-.08ZM235.61,73.44h.08c.26.11.4.34.4.71v.53c0,1.2.32,3.11.95,5.75l.57,5.04c-.2,1.03-.61,1.54-1.24,1.54l-1.99.41h-.2c-.7,0-1.24-.28-1.62-.83l.1-.71v-.32l-.57-7.92c-.11,0-.17-.68-.2-2.05v-.71c0-.3.22-.65.67-1.03h.38l2.01.41c0-.21.16-.38.47-.51,0-.21.07-.32.2-.32ZM233.12,75.2v.1h.28v-.1h-.28ZM234.26,81.15l.1,2.07v.81l-.1.61c.09.28.18.41.28.41v-.71l.1-.93-.1-1.03v-.61c0-.36-.09-.57-.28-.63ZM236.36,83.1l-.04.12v.2c0,1.11-.09,1.99-.28,2.67h.14c.22,0,.35-.1.38-.3v-.41c-.03-1.51-.09-2.27-.2-2.27Z"/>
    <path class="cls-1" d="M246.25,71.63h1.84c1.04.33,1.89,1.14,2.55,2.43.91,1.9,1.36,3.56,1.36,4.98v1.66c0,1.01-.73,2.45-2.19,4.31-.92.65-1.53.97-1.82.97h-1.28c-.91,0-2.12-.62-3.63-1.86h-.18v.89c.18,1.91.61,4.93,1.26,9.07.05.71-.06,1.07-.34,1.07-.67.25-1.46.44-2.37.57,0,.2.1.3.3.3-.97,0-1.46-.13-1.46-.4v-.3c0-.79.15-1.57.45-2.33l-.3-1.44c-.37-3.12-.65-6.57-.83-10.35-.16-.38-.43-2.01-.81-4.88l.08-.1v-.1c-.05-.88-.17-1.63-.36-2.25l.1-.1v-.1l-.1-.57v-.2c0-.21,1.06-.54,3.18-.99.36,0,.6.72.73,2.15l.08.1v.1h.1l1.46-1.56c.84-.7,1.57-1.05,2.17-1.07ZM239.71,73.19v.3l.28.28c.24,0,.51-.19.81-.57h.2c0-.13-.09-.2-.28-.2l-1.01.2ZM239.89,78.46v.67h.18v-.49l-.18-.18ZM240.72,82.15l-.1.99.1.38h.08v-1.36h-.08ZM241,77.08v.2l.18-.2h-.18ZM242.7,89.98l-.08.38.08.59-.08.79.47,2.01c-.12.3-.24.47-.36.49h-.45l-.45-.4c-.32,0-.47.33-.47.99l.1.1h.28c1.21-.24,1.82-.43,1.82-.59l-.2.02c0-1.33-.07-1.59-.2-.77l-.45-3.61ZM242.16,88.12v.2l.18.18h.18v-.38l-.18-.2-.18.2ZM242.62,81.86v.4c.32.63.68,1.15,1.09,1.56h.28v-.2l-1.19-1.76h-.18ZM242.89,75.22v.1h.08c.25-.11.38-.33.38-.67h-.18c-.18.07-.28.26-.28.57ZM242.97,78.07l.1.87-.1.4.1.3h.1v-1.76l-.2.2ZM243.21,77.79v1.56c.65,1.92,1.54,2.88,2.69,2.88,1.94-.84,2.9-1.62,2.9-2.33.13,0,.2-.18.2-.55v-.12c0-1.92-.62-3.25-1.86-3.99l-.63.24-.81-.34h-.63c-.83,0-1.45.88-1.86,2.65ZM246.25,72.4l.1.1h.28l.18-.2-.1-.1h-.26l-.2.2ZM246.9,83.24v.1h.08c.42,0,.72-.26.91-.79h-.18c-.41.18-.68.41-.81.69ZM247.18,74.25h.18v-.2l-.18.2ZM247.71,72.2l-.36,1.28v.38h.08c.25-.2.74-.32,1.46-.38.12.18.18.44.18.77h.2c0-.16.12-.39.36-.69,0-.33-.64-.78-1.92-1.36ZM247.44,84.11v.2h.2l.18-.2-.18-.2-.2.2ZM248.72,74.75v.47h.1l.08-.47h-.18ZM249.53,78.26v.28h.2v-.08l-.2-.2Z"/>
  </g>
  <g>
    <g>
      <path class="cls-1" d="M161.6,8.09c.45.58.68,1.25.68,1.99,0,1.08-.38,1.93-1.13,2.56s-1.8.95-3.15.95h-6V.7h5.8c1.31,0,2.33.3,3.07.9.74.6,1.11,1.41,1.11,2.44,0,.76-.2,1.39-.6,1.89-.4.5-.93.85-1.59,1.05.75.16,1.35.53,1.8,1.11ZM155.14,5.91h2.06c.51,0,.91-.11,1.18-.34.27-.23.41-.56.41-1s-.14-.78-.41-1.01c-.28-.23-.67-.35-1.18-.35h-2.06v2.7ZM158.67,10.69c.29-.24.43-.58.43-1.04s-.15-.81-.45-1.06-.71-.39-1.24-.39h-2.28v2.85h2.31c.53,0,.93-.12,1.22-.36Z"/>
      <path class="cls-1" d="M163.98,5.67c.4-.8.94-1.41,1.63-1.84.69-.43,1.45-.64,2.29-.64.72,0,1.35.15,1.9.44s.96.68,1.26,1.16v-1.45h3.14v10.24h-3.14v-1.45c-.31.48-.73.86-1.28,1.16s-1.18.44-1.9.44c-.83,0-1.59-.22-2.28-.65-.69-.43-1.23-1.05-1.63-1.85-.4-.8-.6-1.73-.6-2.78s.2-1.98.6-2.77ZM170.4,6.61c-.44-.45-.96-.68-1.59-.68s-1.15.22-1.59.67c-.43.45-.65,1.06-.65,1.85s.22,1.4.65,1.86c.43.46.96.69,1.59.69s1.15-.23,1.59-.68c.43-.45.65-1.07.65-1.85s-.22-1.4-.65-1.85Z"/>
      <path class="cls-1" d="M180.9,3.72c.55-.32,1.16-.49,1.84-.49v3.32h-.86c-.78,0-1.37.17-1.76.5-.39.34-.59.93-.59,1.77v4.75h-3.14V3.34h3.14v1.71c.37-.56.83-1.01,1.38-1.33Z"/>
      <path class="cls-1" d="M193.26,4.4c.72.78,1.07,1.84,1.07,3.2v5.99h-3.12v-5.56c0-.69-.18-1.22-.53-1.6-.35-.38-.83-.57-1.43-.57s-1.08.19-1.43.57c-.36.38-.53.91-.53,1.6v5.56h-3.14V3.34h3.14v1.36c.32-.45.75-.81,1.29-1.07.54-.26,1.14-.39,1.82-.39,1.2,0,2.16.39,2.87,1.17Z"/>
      <path class="cls-1" d="M198.21,13.27c-.7-.31-1.25-.73-1.65-1.26-.4-.53-.63-1.13-.68-1.79h3.1c.04.36.2.64.5.86.29.22.65.33,1.08.33.39,0,.69-.08.91-.23.21-.15.32-.35.32-.6,0-.29-.15-.51-.46-.65-.31-.14-.8-.3-1.49-.47-.73-.17-1.35-.35-1.84-.54-.49-.19-.91-.49-1.27-.9-.36-.41-.53-.96-.53-1.66,0-.59.16-1.12.49-1.61.32-.48.8-.87,1.43-1.15s1.38-.42,2.25-.42c1.29,0,2.3.32,3.04.95.74.64,1.17,1.48,1.28,2.53h-2.9c-.05-.35-.21-.64-.47-.84-.26-.21-.61-.31-1.04-.31-.37,0-.65.07-.84.21-.2.14-.29.33-.29.58,0,.29.16.51.47.66.31.15.8.29,1.46.44.76.2,1.38.39,1.85.58.48.19.9.5,1.26.92.36.42.55.99.56,1.7,0,.6-.17,1.14-.5,1.61s-.82.84-1.45,1.11-1.36.4-2.19.4c-.89,0-1.69-.15-2.39-.46Z"/>
      <path class="cls-1" d="M209.72,0v13.59h-3.14V0h3.14Z"/>
      <path class="cls-1" d="M221.5,9.22h-7.1c.05.64.25,1.12.62,1.46.36.34.8.5,1.33.5.78,0,1.33-.33,1.63-.99h3.34c-.17.67-.48,1.28-.93,1.82-.45.54-1.01.96-1.68,1.27-.67.31-1.43.46-2.26.46-1,0-1.9-.21-2.68-.64-.78-.43-1.4-1.04-1.84-1.84-.44-.8-.66-1.73-.66-2.79s.22-2,.65-2.79c.43-.8,1.04-1.41,1.83-1.84.78-.43,1.68-.64,2.7-.64s1.87.21,2.64.62c.77.42,1.37,1.01,1.81,1.78s.65,1.67.65,2.7c0,.29-.02.6-.06.92ZM218.35,7.47c0-.54-.18-.97-.55-1.28-.37-.32-.83-.48-1.38-.48s-.97.15-1.33.46c-.36.31-.58.74-.67,1.3h3.93Z"/>
      <path class="cls-1" d="M233.58,3.34l-6.43,15.11h-3.38l2.35-5.21-4.17-9.9h3.51l2.37,6.41,2.35-6.41h3.4Z"/>
    </g>
    <g>
      <path class="cls-1" d="M160.39,21.47c1.02.54,1.8,1.29,2.36,2.27s.84,2.1.84,3.37-.28,2.38-.84,3.36-1.35,1.74-2.37,2.28c-1.02.54-2.21.81-3.55.81h-4.83v-12.89h4.83c1.36,0,2.55.27,3.56.81ZM159.4,29.86c.66-.65.99-1.57.99-2.75s-.33-2.11-.99-2.77c-.66-.66-1.59-.99-2.77-.99h-1.49v7.49h1.49c1.19,0,2.11-.32,2.77-.97Z"/>
      <path class="cls-1" d="M167.21,33.05c-.8-.43-1.43-1.04-1.89-1.84-.46-.8-.69-1.73-.69-2.79s.23-1.98.7-2.78c.47-.8,1.1-1.42,1.91-1.85.81-.43,1.71-.64,2.72-.64s1.91.21,2.72.64c.81.43,1.44,1.04,1.91,1.85.47.8.7,1.73.7,2.78s-.24,1.98-.71,2.78-1.11,1.42-1.93,1.85-1.72.64-2.73.64-1.91-.21-2.71-.64ZM171.45,30.32c.42-.44.63-1.07.63-1.89s-.21-1.45-.62-1.89-.91-.66-1.51-.66-1.12.22-1.52.65c-.4.43-.61,1.07-.61,1.9s.2,1.45.6,1.89c.4.44.9.66,1.5.66s1.11-.22,1.53-.66Z"/>
      <path class="cls-1" d="M185.97,24.36c.72.78,1.07,1.84,1.07,3.2v5.99h-3.12v-5.56c0-.69-.18-1.22-.53-1.6-.36-.38-.83-.57-1.43-.57s-1.08.19-1.43.57c-.35.38-.53.91-.53,1.6v5.56h-3.14v-10.24h3.14v1.36c.32-.45.75-.81,1.28-1.07.54-.26,1.14-.39,1.82-.39,1.2,0,2.16.39,2.87,1.17Z"/>
      <path class="cls-1" d="M189.17,25.64c.43-.8,1.04-1.41,1.82-1.84.78-.43,1.67-.64,2.67-.64,1.29,0,2.36.34,3.22,1.01.86.67,1.43,1.62,1.7,2.85h-3.34c-.28-.78-.83-1.17-1.63-1.17-.58,0-1.03.22-1.38.67-.34.45-.51,1.09-.51,1.92s.17,1.47.51,1.92c.34.45.8.67,1.38.67.81,0,1.35-.39,1.63-1.18h3.34c-.27,1.2-.84,2.14-1.71,2.83-.87.69-1.94,1.03-3.21,1.03-1,0-1.89-.21-2.67-.64-.78-.43-1.38-1.04-1.82-1.84-.44-.8-.65-1.73-.65-2.79s.22-2,.65-2.79Z"/>
      <path class="cls-1" d="M200.13,25.64c.4-.8.94-1.41,1.63-1.84.69-.43,1.45-.64,2.29-.64.72,0,1.35.15,1.9.44s.96.68,1.26,1.16v-1.45h3.14v10.24h-3.14v-1.45c-.31.48-.73.86-1.28,1.16s-1.18.44-1.9.44c-.83,0-1.59-.22-2.28-.65-.69-.43-1.23-1.05-1.63-1.85-.4-.8-.6-1.73-.6-2.78s.2-1.98.6-2.77ZM206.55,26.57c-.44-.45-.96-.68-1.59-.68s-1.15.22-1.59.67c-.43.45-.65,1.06-.65,1.85s.22,1.4.65,1.86c.43.46.96.69,1.59.69s1.15-.23,1.59-.68c.43-.45.65-1.07.65-1.85s-.22-1.4-.65-1.85Z"/>
      <path class="cls-1" d="M214.31,33.24c-.7-.31-1.25-.73-1.65-1.26-.4-.53-.63-1.13-.68-1.79h3.1c.04.36.2.64.5.86.29.22.65.33,1.08.33.39,0,.69-.08.91-.23.21-.15.32-.35.32-.6,0-.29-.15-.51-.46-.65-.31-.14-.8-.3-1.49-.47-.73-.17-1.35-.35-1.84-.54-.49-.19-.91-.49-1.27-.9-.35-.41-.53-.96-.53-1.66,0-.59.16-1.12.49-1.61.32-.48.8-.87,1.43-1.15s1.38-.42,2.25-.42c1.28,0,2.3.32,3.04.95.74.64,1.17,1.48,1.28,2.53h-2.9c-.05-.35-.21-.64-.47-.84-.26-.21-.61-.31-1.04-.31-.37,0-.65.07-.84.21-.2.14-.29.33-.29.58,0,.29.16.51.47.66s.8.29,1.46.44c.76.2,1.38.39,1.85.58s.9.5,1.26.92c.36.42.55.99.56,1.7,0,.6-.17,1.14-.5,1.61s-.82.84-1.45,1.11c-.63.27-1.36.4-2.19.4-.89,0-1.69-.15-2.39-.46Z"/>
      <path class="cls-1" d="M228.39,30.89v2.66h-1.6c-1.14,0-2.03-.28-2.66-.84s-.95-1.47-.95-2.73v-4.08h-1.25v-2.61h1.25v-2.5h3.14v2.5h2.06v2.61h-2.06v4.11c0,.31.07.53.22.66.15.13.39.2.73.2h1.12Z"/>
      <path class="cls-1" d="M239.64,29.18h-7.1c.05.64.25,1.12.61,1.46.36.34.8.5,1.33.5.78,0,1.33-.33,1.63-.99h3.34c-.17.67-.48,1.28-.93,1.82-.45.54-1.01.96-1.68,1.27-.67.31-1.43.46-2.26.46-1,0-1.9-.21-2.68-.64s-1.4-1.04-1.84-1.84c-.44-.8-.66-1.73-.66-2.79s.22-2,.65-2.79c.43-.8,1.04-1.41,1.83-1.84.78-.43,1.68-.64,2.7-.64s1.87.21,2.64.62c.77.42,1.37,1.01,1.81,1.78s.65,1.67.65,2.7c0,.29-.02.6-.05.92ZM236.49,27.44c0-.54-.18-.97-.55-1.28-.37-.32-.83-.48-1.38-.48s-.97.15-1.33.46c-.36.31-.58.74-.67,1.3h3.93Z"/>
      <path class="cls-1" d="M245.77,23.68c.55-.32,1.16-.49,1.84-.49v3.32h-.86c-.78,0-1.37.17-1.76.5-.39.34-.59.93-.59,1.77v4.75h-3.14v-10.24h3.14v1.71c.37-.56.83-1.01,1.38-1.33Z"/>
    </g>
    <g>
      <path class="cls-1" d="M158.57,51.85l-2.68-4.87h-.75v4.87h-3.14v-12.89h5.27c1.01,0,1.88.18,2.6.53.72.36,1.25.84,1.61,1.46.36.62.53,1.31.53,2.07,0,.86-.24,1.62-.73,2.29-.48.67-1.2,1.15-2.14,1.43l2.97,5.1h-3.54ZM155.14,44.77h1.95c.58,0,1.01-.14,1.29-.42.29-.28.43-.68.43-1.19s-.14-.87-.43-1.16c-.29-.28-.72-.42-1.29-.42h-1.95v3.19Z"/>
      <path class="cls-1" d="M165.83,51.36c-.8-.43-1.43-1.04-1.89-1.84-.46-.8-.69-1.73-.69-2.79s.23-1.98.7-2.78c.47-.8,1.1-1.42,1.91-1.85.81-.43,1.71-.64,2.72-.64s1.91.21,2.72.64c.81.43,1.44,1.04,1.91,1.85.47.8.7,1.73.7,2.78s-.24,1.98-.71,2.78-1.11,1.42-1.93,1.85-1.72.64-2.73.64-1.91-.21-2.71-.64ZM170.07,48.62c.42-.44.63-1.07.63-1.89s-.21-1.45-.62-1.89-.91-.66-1.51-.66-1.12.22-1.52.65c-.4.43-.61,1.07-.61,1.9s.2,1.45.6,1.89c.4.44.9.66,1.5.66s1.11-.22,1.53-.66Z"/>
      <path class="cls-1" d="M181.19,49.19v2.66h-1.6c-1.14,0-2.03-.28-2.66-.84s-.95-1.47-.95-2.73v-4.08h-1.25v-2.61h1.25v-2.5h3.14v2.5h2.06v2.61h-2.06v4.11c0,.31.07.53.22.66.15.13.39.2.73.2h1.12Z"/>
      <path class="cls-1" d="M191.97,42.66c.71.78,1.06,1.84,1.06,3.2v5.99h-3.12v-5.56c0-.69-.18-1.22-.53-1.6-.36-.38-.83-.57-1.43-.57s-1.08.19-1.43.57c-.35.38-.53.91-.53,1.6v5.56h-3.14v-13.59h3.14v4.72c.32-.45.75-.81,1.3-1.08s1.17-.4,1.85-.4c1.18,0,2.12.39,2.83,1.17Z"/>
      <path class="cls-1" d="M204.73,47.48h-7.1c.05.64.25,1.12.61,1.46.36.34.8.5,1.33.5.78,0,1.33-.33,1.63-.99h3.34c-.17.67-.48,1.28-.93,1.82-.45.54-1.01.96-1.68,1.27-.67.31-1.43.46-2.26.46-1,0-1.9-.21-2.68-.64s-1.4-1.04-1.84-1.84c-.44-.8-.66-1.73-.66-2.79s.22-2,.65-2.79c.43-.8,1.04-1.41,1.83-1.84.78-.43,1.68-.64,2.7-.64s1.87.21,2.64.62c.77.42,1.37,1.01,1.81,1.78s.65,1.67.65,2.7c0,.29-.02.6-.05.92ZM201.57,45.74c0-.54-.18-.97-.55-1.28-.37-.32-.83-.48-1.38-.48s-.97.15-1.33.46c-.36.31-.58.74-.67,1.3h3.93Z"/>
      <path class="cls-1" d="M210.86,41.99c.55-.32,1.16-.49,1.84-.49v3.32h-.86c-.78,0-1.37.17-1.76.5s-.59.93-.59,1.77v4.75h-3.14v-10.24h3.14v1.71c.37-.56.83-1.01,1.38-1.33Z"/>
      <path class="cls-1" d="M223.23,42.66c.71.78,1.06,1.84,1.06,3.2v5.99h-3.12v-5.56c0-.69-.18-1.22-.53-1.6-.35-.38-.83-.57-1.43-.57s-1.08.19-1.43.57c-.36.38-.53.91-.53,1.6v5.56h-3.14v-13.59h3.14v4.72c.32-.45.75-.81,1.3-1.08s1.17-.4,1.85-.4c1.17,0,2.12.39,2.83,1.17Z"/>
      <path class="cls-1" d="M226.36,43.94c.4-.8.94-1.41,1.63-1.84.69-.43,1.45-.64,2.29-.64.72,0,1.35.15,1.9.44s.96.68,1.26,1.16v-1.45h3.14v10.24h-3.14v-1.45c-.31.48-.73.86-1.28,1.16s-1.18.44-1.9.44c-.83,0-1.59-.22-2.28-.65-.69-.43-1.23-1.05-1.63-1.85-.4-.8-.6-1.73-.6-2.78s.2-1.98.6-2.77ZM232.79,44.88c-.44-.45-.96-.68-1.59-.68s-1.15.22-1.59.67c-.43.45-.65,1.06-.65,1.85s.22,1.4.65,1.86c.43.46.96.69,1.59.69s1.15-.23,1.59-.68c.43-.45.65-1.07.65-1.85s-.22-1.4-.65-1.85Z"/>
      <path class="cls-1" d="M254.87,42.66c.75.77,1.13,1.84,1.13,3.21v5.99h-3.12v-5.56c0-.66-.17-1.17-.52-1.53s-.83-.54-1.44-.54-1.09.18-1.44.54-.52.87-.52,1.53v5.56h-3.12v-5.56c0-.66-.17-1.17-.52-1.53s-.83-.54-1.44-.54-1.09.18-1.44.54-.52.87-.52,1.53v5.56h-3.14v-10.24h3.14v1.28c.32-.43.73-.77,1.25-1.02.51-.25,1.1-.38,1.74-.38.77,0,1.46.16,2.07.5s1.08.8,1.42,1.41c.36-.56.84-1.02,1.45-1.38.61-.36,1.28-.53,2-.53,1.27,0,2.28.39,3.04,1.16Z"/>
    </g>
  </g>
</svg>