<?xml version="1.0" standalone="no"?><!-- Generator: Gravit.io --><svg xmlns="http://www.w3.org/2000/svg" xmlns:xlink="http://www.w3.org/1999/xlink" style="isolation:isolate" viewBox="0 0 32 32" width="32" height="32"><defs><clipPath id="_clipPath_pWoZx3rsUP4HbUU2cVC6ODSFTFv5BPkr"><rect width="32" height="32"/></clipPath></defs><g clip-path="url(#_clipPath_pWoZx3rsUP4HbUU2cVC6ODSFTFv5BPkr)"><g id="Group"><g id="g58"><path d=" M 30.234 32 C 31.209 32 32 31.209 32 30.234 L 32 1.766 C 32 0.79 31.209 0 30.234 0 L 1.766 0 C 0.79 0 0 0.79 0 1.766 L 0 30.234 C 0 31.209 0.79 32 1.766 32 L 30.234 32 Z " fill="rgb(60,90,153)"/></g><g id="g62"><path d=" M 22.079 32 L 22.079 19.608 L 26.239 19.608 L 26.862 14.779 L 22.079 14.779 L 22.079 11.695 C 22.079 10.297 22.468 9.344 24.473 9.344 L 27.03 9.343 L 27.03 5.023 C 26.588 4.965 25.07 4.833 23.304 4.833 C 19.616 4.833 17.092 7.084 17.092 11.217 L 17.092 14.779 L 12.922 14.779 L 12.922 19.608 L 17.092 19.608 L 17.092 32 L 22.079 32 Z " fill="rgb(255,255,255)"/></g></g></g></svg>