<?xml version="1.0" standalone="no"?><!-- Generator: Gravit.io --><svg xmlns="http://www.w3.org/2000/svg" xmlns:xlink="http://www.w3.org/1999/xlink" style="isolation:isolate" viewBox="0 0 32 32" width="32" height="32"><defs><clipPath id="_clipPath_BWpn78nowP7r3qNvta86VjWViscgHFAj"><rect width="32" height="32"/></clipPath></defs><g clip-path="url(#_clipPath_BWpn78nowP7r3qNvta86VjWViscgHFAj)"><g id="Group"><rect x="0" y="0" width="32" height="32" transform="matrix(1,0,0,1,0,0)" fill="rgb(225,48,108)"/><path d=" M 16 4 C 12.741 4 12.332 4.014 11.052 4.072 C 9.775 4.13 8.903 4.333 8.14 4.63 C 7.35 4.937 6.681 5.347 6.014 6.014 C 5.347 6.681 4.937 7.35 4.63 8.14 C 4.333 8.903 4.13 9.775 4.072 11.052 C 4.014 12.332 4 12.741 4 16 C 4 19.259 4.014 19.668 4.072 20.948 C 4.13 22.225 4.333 23.097 4.63 23.86 C 4.937 24.65 5.347 25.319 6.014 25.986 C 6.681 26.653 7.35 27.063 8.14 27.37 C 8.903 27.667 9.775 27.87 11.052 27.928 C 12.332 27.986 12.741 28 16 28 C 19.259 28 19.668 27.986 20.948 27.928 C 22.225 27.87 23.097 27.667 23.86 27.37 C 24.65 27.063 25.319 26.653 25.986 25.986 C 26.653 25.319 27.063 24.65 27.37 23.86 C 27.667 23.097 27.87 22.225 27.928 20.948 C 27.986 19.668 28 19.259 28 16 C 28 12.741 27.986 12.332 27.928 11.052 C 27.87 9.775 27.667 8.903 27.37 8.14 C 27.063 7.35 26.653 6.681 25.986 6.014 C 25.319 5.347 24.65 4.937 23.86 4.63 C 23.097 4.333 22.225 4.13 20.948 4.072 C 19.668 4.014 19.259 4 16 4 Z  M 16 6.162 C 19.204 6.162 19.584 6.174 20.849 6.232 C 22.019 6.285 22.654 6.481 23.077 6.645 C 23.637 6.863 24.037 7.123 24.457 7.543 C 24.877 7.963 25.137 8.363 25.355 8.923 C 25.519 9.346 25.715 9.981 25.768 11.151 C 25.826 12.416 25.838 12.796 25.838 16 C 25.838 19.204 25.826 19.584 25.768 20.849 C 25.715 22.019 25.519 22.654 25.355 23.077 C 25.137 23.637 24.877 24.037 24.457 24.457 C 24.037 24.877 23.637 25.137 23.077 25.355 C 22.654 25.519 22.019 25.715 20.849 25.768 C 19.584 25.826 19.204 25.838 16 25.838 C 12.796 25.838 12.416 25.826 11.151 25.768 C 9.981 25.715 9.346 25.519 8.923 25.355 C 8.363 25.137 7.963 24.877 7.543 24.457 C 7.123 24.037 6.863 23.637 6.645 23.077 C 6.481 22.654 6.286 22.019 6.232 20.849 C 6.174 19.584 6.162 19.204 6.162 16 C 6.162 12.796 6.174 12.416 6.232 11.151 C 6.286 9.981 6.481 9.346 6.645 8.923 C 6.863 8.363 7.123 7.963 7.543 7.543 C 7.963 7.123 8.363 6.863 8.923 6.645 C 9.346 6.481 9.981 6.285 11.151 6.232 C 12.416 6.174 12.796 6.162 16 6.162 Z " fill="rgb(255,255,255)"/><path d=" M 16 20 C 13.791 20 12 18.209 12 16 C 12 13.791 13.791 12 16 12 C 18.209 12 20 13.791 20 16 C 20 18.209 18.209 20 16 20 L 16 20 Z  M 16 9.838 C 12.597 9.838 9.838 12.597 9.838 16 C 9.838 19.403 12.597 22.162 16 22.162 C 19.403 22.162 22.162 19.403 22.162 16 C 22.162 12.597 19.403 9.838 16 9.838 Z " fill="rgb(255,255,255)"/><path d=" M 23.846 9.594 C 23.846 10.39 23.201 11.034 22.406 11.034 C 21.61 11.034 20.966 10.39 20.966 9.594 C 20.966 8.799 21.61 8.154 22.406 8.154 C 23.201 8.154 23.846 8.799 23.846 9.594" fill="rgb(255,255,255)"/></g></g></svg>