<?xml version="1.0" standalone="no"?><!-- Generator: Gravit.io --><svg xmlns="http://www.w3.org/2000/svg" xmlns:xlink="http://www.w3.org/1999/xlink" style="isolation:isolate" viewBox="0 0 32 32" width="32" height="32"><defs><clipPath id="_clipPath_nkDjydaXghiDmUntdSmvBcVm6Hpna6s4"><rect width="32" height="32"/></clipPath></defs><g clip-path="url(#_clipPath_nkDjydaXghiDmUntdSmvBcVm6Hpna6s4)"><path d=" M 0 0.08 L 32 0.08 L 32 32.08 L 0 32.08 L 0 0.08 Z " fill="rgb(0,102,153)"/><path d=" M 9.74 26.787 L 9.74 12.338 L 4.937 12.338 L 4.937 26.787 L 9.74 26.787 Z  M 7.338 10.365 C 9.013 10.365 10.056 9.255 10.056 7.868 C 10.025 6.451 9.013 5.372 7.37 5.372 C 5.727 5.372 4.653 6.451 4.653 7.868 C 4.653 9.255 5.695 10.365 7.307 10.365 L 7.338 10.365 L 7.338 10.365 Z " fill-rule="evenodd" fill="rgb(255,255,255)"/><path d=" M 12.397 26.787 L 17.2 26.787 L 17.2 18.718 C 17.2 18.286 17.231 17.855 17.358 17.546 C 17.706 16.683 18.496 15.789 19.823 15.789 C 21.56 15.789 22.256 17.114 22.256 19.057 L 22.256 26.787 L 27.058 26.787 L 27.058 18.502 C 27.058 14.064 24.689 11.998 21.529 11.998 C 18.938 11.998 17.8 13.447 17.168 14.433 L 17.2 14.433 L 17.2 12.338 L 12.398 12.338 C 12.461 13.693 12.398 26.787 12.398 26.787 L 12.397 26.787 Z " fill-rule="evenodd" fill="rgb(255,255,255)"/></g></svg>
