<?xml version="1.0" encoding="UTF-8" standalone="no"?>
<svg
   xmlns:dc="http://purl.org/dc/elements/1.1/"
   xmlns:cc="http://creativecommons.org/ns#"
   xmlns:rdf="http://www.w3.org/1999/02/22-rdf-syntax-ns#"
   xmlns:svg="http://www.w3.org/2000/svg"
   xmlns="http://www.w3.org/2000/svg"
   xmlns:sodipodi="http://sodipodi.sourceforge.net/DTD/sodipodi-0.dtd"
   xmlns:inkscape="http://www.inkscape.org/namespaces/inkscape"
   viewBox="0 0 97.487 59.999999"
   height="60"
   width="97.487"
   xml:space="preserve"
   version="1.1"
   id="svg2"
   sodipodi:docname="Renewi_Gradient_No-Strapline_RGB_CS6_60px.svg"
   inkscape:version="0.92.2 (5c3e80d, 2017-08-06)"><sodipodi:namedview
     pagecolor="#ffffff"
     bordercolor="#666666"
     borderopacity="1"
     objecttolerance="10"
     gridtolerance="10"
     guidetolerance="10"
     inkscape:pageopacity="0"
     inkscape:pageshadow="2"
     inkscape:window-width="1920"
     inkscape:window-height="1017"
     id="namedview945"
     showgrid="false"
     inkscape:zoom="4.3378732"
     inkscape:cx="158.80624"
     inkscape:cy="97.743752"
     inkscape:window-x="-8"
     inkscape:window-y="-8"
     inkscape:window-maximized="1"
     inkscape:current-layer="svg2" /><metadata
     id="metadata8"><rdf:RDF><cc:Work
         rdf:about=""><dc:format>image/svg+xml</dc:format><dc:type
           rdf:resource="http://purl.org/dc/dcmitype/StillImage" /><dc:title></dc:title></cc:Work></rdf:RDF></metadata><defs
     id="defs6"><clipPath
       id="clipPath18"
       clipPathUnits="userSpaceOnUse"><path
         id="path20"
         d="m 256.648,897.953 c -56.941,0 -102.328,-4.125 -144.414,-15.68 V 535.672 H 0 v 363.109 c 0,40.434 19.8047,61.067 57.7695,71.797 59.4185,16.504 110.5825,21.457 198.8785,21.457 z"
         inkscape:connector-curvature="0" /></clipPath><linearGradient
       id="linearGradient22"
       spreadMethod="pad"
       gradientTransform="matrix(1564.35,-728.495,-728.495,-1564.35,336.147,667.073)"
       gradientUnits="userSpaceOnUse"
       y2="0"
       x2="1"
       y1="0"
       x1="0"><stop
         id="stop24"
         offset="0"
         style="stop-opacity:1;stop-color:#1e5daf" /><stop
         id="stop26"
         offset="0.507113"
         style="stop-opacity:1;stop-color:#1db6eb" /><stop
         id="stop28"
         offset="1"
         style="stop-opacity:1;stop-color:#6ec72d" /></linearGradient><clipPath
       id="clipPath36"
       clipPathUnits="userSpaceOnUse"><path
         id="path38"
         d="m 512.473,911.98 c -59.422,0 -95.735,-42.085 -99.86,-109.757 h 199.711 c 0,60.246 -29.711,109.757 -99.851,109.757 z m 3.297,82.528 c 125.441,0 207.14,-70.977 207.14,-221.996 0,-32.184 -14.859,-47.86 -47.867,-47.86 H 413.441 C 419.215,654.5 467.086,622.32 535.574,622.32 c 37.141,0 74.274,5.782 122.965,20.625 l 43.742,14.035 14.848,-85.832 -43.734,-14.019 c -56.946,-18.16 -98.207,-26.41 -146.071,-26.41 -135.344,0 -225.293,76.75 -225.293,230.242 0,161.75 99.028,233.547 213.739,233.547 z"
         inkscape:connector-curvature="0" /></clipPath><linearGradient
       id="linearGradient40"
       spreadMethod="pad"
       gradientTransform="matrix(1564.32,-728.481,-728.481,-1564.32,405.259,815.476)"
       gradientUnits="userSpaceOnUse"
       y2="0"
       x2="1"
       y1="0"
       x1="0"><stop
         id="stop42"
         offset="0"
         style="stop-opacity:1;stop-color:#1e5daf" /><stop
         id="stop44"
         offset="0.507113"
         style="stop-opacity:1;stop-color:#1db6eb" /><stop
         id="stop46"
         offset="1"
         style="stop-opacity:1;stop-color:#6ec72d" /></linearGradient><clipPath
       id="clipPath54"
       clipPathUnits="userSpaceOnUse"><path
         id="path56"
         d="m 1478.8,911.98 c -59.42,0 -95.73,-42.085 -99.85,-109.757 h 199.71 c 0,60.246 -29.71,109.757 -99.86,109.757 z m 3.3,82.528 c 125.44,0 207.14,-70.977 207.14,-221.996 0,-32.184 -14.85,-47.86 -47.86,-47.86 h -261.61 c 5.78,-70.152 53.64,-102.332 122.14,-102.332 37.14,0 74.28,5.782 122.97,20.625 l 43.73,14.035 14.85,-85.832 -43.73,-14.019 c -56.94,-18.16 -98.21,-26.41 -146.07,-26.41 -135.34,0 -225.3,76.75 -225.3,230.242 0,161.75 99.04,233.547 213.74,233.547 z"
         inkscape:connector-curvature="0" /></clipPath><linearGradient
       id="linearGradient58"
       spreadMethod="pad"
       gradientTransform="matrix(1564.38,-728.51,-728.51,-1564.38,577.456,1185.3)"
       gradientUnits="userSpaceOnUse"
       y2="0"
       x2="1"
       y1="0"
       x1="0"><stop
         id="stop60"
         offset="0"
         style="stop-opacity:1;stop-color:#1e5daf" /><stop
         id="stop62"
         offset="0.507113"
         style="stop-opacity:1;stop-color:#1db6eb" /><stop
         id="stop64"
         offset="1"
         style="stop-opacity:1;stop-color:#6ec72d" /></linearGradient><clipPath
       id="clipPath72"
       clipPathUnits="userSpaceOnUse"><path
         id="path74"
         d="M 2424.76,535.672 V 988.727 H 2537 V 535.672 Z"
         inkscape:connector-curvature="0" /></clipPath><linearGradient
       id="linearGradient76"
       spreadMethod="pad"
       gradientTransform="matrix(1277.14,-594.746,-594.746,-1277.14,1096.06,1407.09)"
       gradientUnits="userSpaceOnUse"
       y2="0"
       x2="1"
       y1="0"
       x1="0"><stop
         id="stop78"
         offset="0"
         style="stop-opacity:1;stop-color:#1e5daf" /><stop
         id="stop80"
         offset="0.507113"
         style="stop-opacity:1;stop-color:#1db6eb" /><stop
         id="stop82"
         offset="1"
         style="stop-opacity:1;stop-color:#6ec72d" /></linearGradient><clipPath
       id="clipPath90"
       clipPathUnits="userSpaceOnUse"><path
         id="path92"
         d="m 1707.42,1559.36 c -269.32,28.78 -538.54,-82.12 -718.846,-291.92 l -4.379,42.45 c -2.55,24.83 -24.742,42.87 -49.609,40.32 -24.836,-2.56 -42.898,-24.76 -40.328,-49.61 l 16.215,-157.22 c 1.226,-11.92 7.144,-22.88 16.445,-30.44 8.105,-6.58 18.18,-10.14 28.52,-10.14 1.55,0 3.093,0.09 4.644,0.25 l 157.718,16.27 c 24.83,2.56 42.89,24.77 40.33,49.61 -2.56,24.85 -24.74,42.94 -49.61,40.33 l -30.13,-3.1 c 154.05,174.2 381.02,265.84 608.28,241.56 360.5,-38.53 606.26,-358.24 540,-714.759 -4.82,-25.883 -12.07,-51.637 -20.39,-76 l -87.11,293.809 c -7.42,26.406 -28.88,40.433 -61.89,40.433 -33.84,0 -54.47,-13.199 -62.71,-40.433 l -87.49,-290.489 -52.81,328.446 h -118.02 l 82.53,-403.543 c 7.44,-37.145 34.66,-57.774 79.23,-57.774 42.91,0 69.32,17.328 80.87,52.82 l 76.75,238.497 70.97,-236.024 c 10.73,-36.305 29.71,-56.113 82.53,-56.113 33.73,0 58.37,14.769 71.92,40.32 18.15,34.219 38.68,92.063 49.92,152.539 77.72,418.081 -202,794.861 -623.55,839.911 z"
         inkscape:connector-curvature="0" /></clipPath><linearGradient
       id="linearGradient94"
       spreadMethod="pad"
       gradientTransform="matrix(1657.55,-771.898,-771.898,-1657.55,649.741,1596.88)"
       gradientUnits="userSpaceOnUse"
       y2="0"
       x2="1"
       y1="0"
       x1="0"><stop
         id="stop96"
         offset="0"
         style="stop-opacity:1;stop-color:#1e5daf" /><stop
         id="stop98"
         offset="0.507113"
         style="stop-opacity:1;stop-color:#28baef" /><stop
         id="stop100"
         offset="1"
         style="stop-opacity:1;stop-color:#6ec72d" /></linearGradient><clipPath
       id="clipPath108"
       clipPathUnits="userSpaceOnUse"><path
         id="path110"
         d="m 2191.61,237.641 -16.22,157.218 c -1.22,11.922 -7.14,22.879 -16.45,30.45 -9.31,7.55 -21.21,11.101 -33.16,9.882 l -157.72,-16.269 c -24.83,-2.563 -42.89,-24.774 -40.32,-49.613 2.56,-24.84 24.76,-42.989 49.61,-40.329 l 35.12,3.622 C 1865.25,181.77 1660.63,100.52 1455.23,113.641 1092.19,136.852 838.617,446.809 889.977,804.602 c 3.773,26.3 11.418,52.437 20.136,78.214 0,0 53.672,12.895 87.582,12.661 58.585,-0.403 76.745,-33.008 76.745,-75.098 V 535.672 h 113.06 v 294.609 c 0,94.907 -51.99,162.578 -184.03,162.578 -39.607,0 -84.177,-4.132 -146.892,-21.461 -32.906,-9.296 -47.105,-25.722 -56.66,-56.171 -10.965,-36.618 -15.836,-64.637 -21.41,-103.5 C 718.281,392.16 1014.64,28.7383 1439.15,1.60938 1682.52,-13.9492 1925.17,84.1016 2097.83,265.59 l 3.84,-37.231 c 2.4,-23.257 22.03,-40.578 44.92,-40.578 1.55,0 3.11,0.09 4.69,0.25 24.83,2.559 42.89,24.77 40.33,49.61 z"
         inkscape:connector-curvature="0" /></clipPath><linearGradient
       id="linearGradient112"
       spreadMethod="pad"
       gradientTransform="matrix(1654.22,-770.347,-770.347,-1654.22,408.755,861.413)"
       gradientUnits="userSpaceOnUse"
       y2="0"
       x2="1"
       y1="0"
       x1="0"><stop
         id="stop114"
         offset="0"
         style="stop-opacity:1;stop-color:#1e5daf" /><stop
         id="stop116"
         offset="0.507113"
         style="stop-opacity:1;stop-color:#1db6eb" /><stop
         id="stop118"
         offset="1"
         style="stop-opacity:1;stop-color:#6ec72d" /></linearGradient><clipPath
       id="clipPath126"
       clipPathUnits="userSpaceOnUse"><path
         id="path128"
         d="M 0,1563.85 V 0 h 2540.92 v 1563.85 z"
         inkscape:connector-curvature="0" /></clipPath></defs><g
     transform="matrix(0.38366814,0,0,-0.38366814,0,59.999857)"
     id="g10"><g
       transform="scale(0.1)"
       id="g12"><g
         id="g14"><g
           clip-path="url(#clipPath18)"
           id="g16"><path
             id="path30"
             style="fill:url(#linearGradient22);fill-opacity:1;fill-rule:nonzero;stroke:none"
             d="m 256.648,897.953 c -56.941,0 -102.328,-4.125 -144.414,-15.68 V 535.672 H 0 v 363.109 c 0,40.434 19.8047,61.067 57.7695,71.797 59.4185,16.504 110.5825,21.457 198.8785,21.457 v -94.082"
             inkscape:connector-curvature="0" /></g></g><g
         id="g32"><g
           clip-path="url(#clipPath36)"
           id="g34"><path
             id="path48"
             style="fill:url(#linearGradient40);fill-opacity:1;fill-rule:nonzero;stroke:none"
             d="m 512.473,911.98 c -59.422,0 -95.735,-42.085 -99.86,-109.757 h 199.711 c 0,60.246 -29.711,109.757 -99.851,109.757 z m 3.297,82.528 c 125.441,0 207.14,-70.977 207.14,-221.996 0,-32.184 -14.859,-47.86 -47.867,-47.86 H 413.441 C 419.215,654.5 467.086,622.32 535.574,622.32 c 37.141,0 74.274,5.782 122.965,20.625 l 43.742,14.035 14.848,-85.832 -43.734,-14.019 c -56.946,-18.16 -98.207,-26.41 -146.071,-26.41 -135.344,0 -225.293,76.75 -225.293,230.242 0,161.75 99.028,233.547 213.739,233.547"
             inkscape:connector-curvature="0" /></g></g><g
         id="g50"><g
           clip-path="url(#clipPath54)"
           id="g52"><path
             id="path66"
             style="fill:url(#linearGradient58);fill-opacity:1;fill-rule:nonzero;stroke:none"
             d="m 1478.8,911.98 c -59.42,0 -95.73,-42.085 -99.85,-109.757 h 199.71 c 0,60.246 -29.71,109.757 -99.86,109.757 z m 3.3,82.528 c 125.44,0 207.14,-70.977 207.14,-221.996 0,-32.184 -14.85,-47.86 -47.86,-47.86 h -261.61 c 5.78,-70.152 53.64,-102.332 122.14,-102.332 37.14,0 74.28,5.782 122.97,20.625 l 43.73,14.035 14.85,-85.832 -43.73,-14.019 c -56.94,-18.16 -98.21,-26.41 -146.07,-26.41 -135.34,0 -225.3,76.75 -225.3,230.242 0,161.75 99.04,233.547 213.74,233.547"
             inkscape:connector-curvature="0" /></g></g><g
         id="g68"><g
           clip-path="url(#clipPath72)"
           id="g70"><path
             id="path84"
             style="fill:url(#linearGradient76);fill-opacity:1;fill-rule:nonzero;stroke:none"
             d="m 2424.76,535.672 h 112.238 V 988.727 H 2424.76 Z"
             inkscape:connector-curvature="0" /></g></g><g
         id="g86"><g
           clip-path="url(#clipPath90)"
           id="g88"><path
             id="path102"
             style="fill:url(#linearGradient94);fill-opacity:1;fill-rule:nonzero;stroke:none"
             d="m 1707.42,1559.36 c -269.32,28.78 -538.54,-82.12 -718.846,-291.92 l -4.379,42.45 c -2.55,24.83 -24.742,42.87 -49.609,40.32 -24.836,-2.56 -42.898,-24.76 -40.328,-49.61 l 16.215,-157.22 c 1.226,-11.92 7.144,-22.88 16.445,-30.44 8.105,-6.58 18.18,-10.14 28.52,-10.14 1.55,0 3.093,0.09 4.644,0.25 l 157.718,16.27 c 24.83,2.56 42.89,24.77 40.33,49.61 -2.56,24.85 -24.74,42.94 -49.61,40.33 l -30.13,-3.1 c 154.05,174.2 381.02,265.84 608.28,241.56 360.5,-38.53 606.26,-358.24 540,-714.759 -4.82,-25.883 -12.07,-51.637 -20.39,-76 l -87.11,293.809 c -7.42,26.406 -28.88,40.433 -61.89,40.433 -33.84,0 -54.47,-13.199 -62.71,-40.433 l -87.49,-290.489 -52.81,328.446 h -118.02 l 82.53,-403.543 c 7.44,-37.145 34.66,-57.774 79.23,-57.774 42.91,0 69.32,17.328 80.87,52.82 l 76.75,238.497 70.97,-236.024 c 10.73,-36.305 29.71,-56.113 82.53,-56.113 33.73,0 58.37,14.769 71.92,40.32 18.15,34.219 38.68,92.063 49.92,152.539 77.72,418.081 -202,794.861 -623.55,839.911"
             inkscape:connector-curvature="0" /></g></g><g
         id="g104"><g
           clip-path="url(#clipPath108)"
           id="g106"><path
             id="path120"
             style="fill:url(#linearGradient112);fill-opacity:1;fill-rule:nonzero;stroke:none"
             d="m 2191.61,237.641 -16.22,157.218 c -1.22,11.922 -7.14,22.879 -16.45,30.45 -9.31,7.55 -21.21,11.101 -33.16,9.882 l -157.72,-16.269 c -24.83,-2.563 -42.89,-24.774 -40.32,-49.613 2.56,-24.84 24.76,-42.989 49.61,-40.329 l 35.12,3.622 C 1865.25,181.77 1660.63,100.52 1455.23,113.641 1092.19,136.852 838.617,446.809 889.977,804.602 c 3.773,26.3 11.418,52.437 20.136,78.214 0,0 53.672,12.895 87.582,12.661 58.585,-0.403 76.745,-33.008 76.745,-75.098 V 535.672 h 113.06 v 294.609 c 0,94.907 -51.99,162.578 -184.03,162.578 -39.607,0 -84.177,-4.132 -146.892,-21.461 -32.906,-9.296 -47.105,-25.722 -56.66,-56.171 -10.965,-36.618 -15.836,-64.637 -21.41,-103.5 C 718.281,392.16 1014.64,28.7383 1439.15,1.60938 1682.52,-13.9492 1925.17,84.1016 2097.83,265.59 l 3.84,-37.231 c 2.4,-23.257 22.03,-40.578 44.92,-40.578 1.55,0 3.11,0.09 4.69,0.25 24.83,2.559 42.89,24.77 40.33,49.61"
             inkscape:connector-curvature="0" /></g></g><g
         id="g122"><g
           clip-path="url(#clipPath126)"
           id="g124"><path
             id="path130"
             style="fill:#6ec72d;fill-opacity:1;fill-rule:nonzero;stroke:none"
             d="m 2480.11,1126.19 h 5.31 l 6.71,-18.63 c 0.85,-2.39 1.65,-4.9 2.5,-7.29 h 0.22 c 0.85,2.39 1.54,4.9 2.39,7.29 l 6.61,18.63 h 5.37 v -34.91 h -4.16 v 19.2 c 0,3.09 0.37,7.25 0.6,10.33 h -0.23 l -2.75,-7.93 -6.61,-18.1 h -2.92 l -6.6,18.1 -2.77,7.93 h -0.21 c 0.21,-3.08 0.53,-7.24 0.53,-10.33 v -19.2 h -3.99 z m -17.05,-3.73 h -10.54 v 3.73 h 25.55 v -3.73 h -10.54 v -31.18 h -4.47 z m -27.62,-33.77 c 2.51,-6.23 5.96,-11.63 10.39,-16.21 4.42,-4.57 9.63,-8.17 15.64,-10.78 6.03,-2.61 12.54,-3.91 19.57,-3.91 6.91,0 13.36,1.3 19.33,3.91 5.94,2.61 11.14,6.21 15.55,10.78 4.43,4.58 7.88,9.98 10.38,16.21 2.5,6.23 3.75,13.01 3.75,20.36 0,7.13 -1.25,13.79 -3.75,19.96 -2.5,6.17 -5.95,11.52 -10.38,16.04 -4.41,4.53 -9.61,8.1 -15.55,10.71 -5.97,2.6 -12.42,3.91 -19.33,3.91 -7.03,0 -13.54,-1.31 -19.57,-3.91 -6.01,-2.61 -11.22,-6.18 -15.64,-10.71 -4.43,-4.52 -7.88,-9.87 -10.39,-16.04 -2.5,-6.17 -3.75,-12.83 -3.75,-19.96 0,-7.35 1.25,-14.13 3.75,-20.36 z m -9.81,43.84 c 3.18,7.22 7.53,13.51 13.01,18.83 5.49,5.33 11.86,9.51 19.16,12.53 7.29,3.04 15.04,4.56 23.24,4.56 8.19,0 15.92,-1.52 23.15,-4.56 7.23,-3.02 13.57,-7.2 19.01,-12.53 5.42,-5.32 9.72,-11.61 12.93,-18.83 3.19,-7.24 4.79,-15.07 4.79,-23.48 0,-8.62 -1.6,-16.58 -4.79,-23.88 -3.21,-7.29 -7.51,-13.62 -12.93,-18.99 -5.44,-5.39 -11.78,-9.57 -19.01,-12.54 -7.23,-2.98 -14.96,-4.47 -23.15,-4.47 -8.2,0 -15.95,1.49 -23.24,4.47 -7.3,2.97 -13.67,7.15 -19.16,12.54 -5.48,5.37 -9.83,11.7 -13.01,18.99 -3.19,7.3 -4.8,15.26 -4.8,23.88 0,8.41 1.61,16.24 4.8,23.48"
             inkscape:connector-curvature="0" /></g></g></g></g></svg>