<svg xmlns="http://www.w3.org/2000/svg" width="131.78" height="45.6" viewBox="0 0 131.78 45.6" preserveAspectRatio="xMinYMid" aria-hidden="true" focusable="false"><path d="M123.76,10.68c0,4.91-2.93,8.43-7.41,10.05L126.9,34.56a21.28,21.28,0,0,0-7.8-33C122.34,3.56,123.76,6.91,123.76,10.68Zm-16,12h-1.93v19a18.19,18.19,0,0,0,4.93.48,20.71,20.71,0,0,0,10.59-2.9L110.33,24A2.88,2.88,0,0,0,107.79,22.68Zm2.1-17.36h-4V16.87h4.19c2.1,0,6.3-.94,6.3-6C116.35,7.22,113.48,5.32,109.89,5.32ZM1.9,8.13H3.67c1.92,0,2.89-1,2.89-3.11,0-1.91-.76-2.6-2.82-2.6H1.9ZM5.5,9.42l3.83,7s0,.05.05.07,0,.12,0,.15v0c0,.07-.1.14-.29.17l-1.39.28h-.1a.26.26,0,0,1-.28-.19L3.65,9.59H1.9v6.93c0,.27,0,.32-.31.32H.31c-.26,0-.31-.05-.31-.32V1.22C0,.93.05.88.31.88H3.86c1.75,0,2.61.2,3.32.77A4,4,0,0,1,8.5,4.88,4.46,4.46,0,0,1,5.5,9.42Zm12.72,1.94v-.22c0-2.79-.95-4.32-2.71-4.32s-2.74,1.45-2.74,4.25c0,3.11.9,4.62,2.74,4.62S18.14,14.32,18.22,11.36Zm1.87-.17c0,3.76-1.78,6-4.74,6S10.9,15,10.9,11.31s1.75-5.95,4.69-5.95S20.09,7.49,20.09,11.19Zm3.24-5.52V2.49a.31.31,0,0,1,.24-.29l1.21-.33.07,0s0,0,0,0,.16.05.16.26V5.67h3.46c.14,0,.22,0,.22.17a.44.44,0,0,1,0,.14l-.26.91c-.05.16-.12.21-.31.21H25.06v6.55c0,1.51.29,1.92,1.4,1.92a4.88,4.88,0,0,0,2.06-.6.55.55,0,0,1,.17-.05c.07,0,.12.05.14.15l.28.95,0,.07v.05c0,.1-.05.15-.19.24a6.19,6.19,0,0,1-2.8.69c-2.06,0-2.82-.93-2.82-3.39V7.1H21.7c-.24,0-.28,0-.28-.26V5.93c0-.21,0-.26.28-.26Zm9.29,1.22a4.73,4.73,0,0,1,3.53-1.53c2.06,0,2.82.93,2.82,3.49v7.72c0,.22,0,.27-.26.27H37.5c-.19,0-.26-.05-.26-.17V8.82c0-1.45-.4-2-1.59-2a4.79,4.79,0,0,0-3,1.46v8.25c0,.22,0,.27-.26.27H31.15c-.23,0-.28-.05-.28-.27V.6A.3.3,0,0,1,31.1.31L32.31,0l.07,0h.1c.09,0,.14.07.14.26Zm11.32,3.32h5C48.87,8,48,6.77,46.45,6.77S44,7.94,43.94,10.21Zm0,1.44c.12,2.53,1.18,3.92,3,3.92a5.19,5.19,0,0,0,2.66-.84.4.4,0,0,1,.21-.07.19.19,0,0,1,.17.12l.42.91a.64.64,0,0,1,0,.16c0,.22-.38.46-1.16.79a6.55,6.55,0,0,1-2.51.51c-2.92,0-4.79-2.28-4.79-5.89s1.78-5.9,4.55-5.9,4.17,1.89,4.22,5.16v.7c0,.33,0,.43-.26.43ZM55.19,7.29,55.45,7c1.19-1.29,1.71-1.62,2.61-1.62a2.49,2.49,0,0,1,1,.21c.09,0,.16.1.16.17a.68.68,0,0,1,0,.17l-.56,1.26c0,.08-.08.1-.12.1a.08.08,0,0,1-.07,0,1.61,1.61,0,0,0-.72-.15c-.59,0-1.13.41-2.27,1.77v7.7c0,.24,0,.27-.26.27H54c-.23,0-.26-.05-.26-.27v-7c0-1.84-.09-2.25-.57-3.13A.45.45,0,0,1,53,6.22.22.22,0,0,1,53.18,6l1-.63a.65.65,0,0,1,.19,0c.14,0,.38.33.59.91A4.09,4.09,0,0,1,55.19,7.29Zm7.7-.4a4.73,4.73,0,0,1,3.53-1.53c2.06,0,2.82.93,2.82,3.49v7.72c0,.22,0,.27-.26.27H67.77c-.19,0-.26-.05-.26-.17V8.82c0-1.45-.4-2-1.59-2a4.79,4.79,0,0,0-3,1.46v8.25c0,.22,0,.27-.26.27H61.42c-.23,0-.28-.05-.28-.27V.6a.31.31,0,0,1,.24-.29L62.59,0l.07,0h.09c.1,0,.14.07.14.26Zm15.19,4.4c-2.89,0-4.32.83-4.32,2.46a1.7,1.7,0,0,0,1.66,1.87,4,4,0,0,0,2.66-1.34Zm0-1.46V9.06c0-1.5-.6-2.08-2.14-2.08a6.08,6.08,0,0,0-2.72.7l-.17,0a.16.16,0,0,1-.16-.12l-.33-.93a.28.28,0,0,1,0-.17c0-.16.19-.31.83-.55a7.68,7.68,0,0,1,2.84-.55c2.46,0,3.62,1.06,3.62,3.28v4.38a5.13,5.13,0,0,0,.62,3.06.15.15,0,0,1,0,.12.17.17,0,0,1-.07.14l-1,.62a.34.34,0,0,1-.19.07c-.21,0-.62-.69-.85-1.45A4.47,4.47,0,0,1,75,17.07,2.91,2.91,0,0,1,72,13.89C72,11.24,74,9.9,78.08,9.83Zm7.15-3.11a5,5,0,0,1,3.24-1.36,2.17,2.17,0,0,1,2.21,1.36A5.58,5.58,0,0,1,94,5.36c1.75,0,2.49.95,2.49,3.27v7.94c0,.22,0,.27-.26.27H95.08c-.23,0-.28-.05-.28-.27v-8c0-1.17-.45-1.7-1.47-1.7A3.84,3.84,0,0,0,91,7.8v8.87c0,.12-.08.17-.27.17H89.54c-.21,0-.26-.05-.26-.27v-8c0-1.14-.5-1.72-1.49-1.72a3.63,3.63,0,0,0-2.3,1v8.73c0,.22,0,.27-.26.27H84c-.18,0-.28-.05-.28-.17V8.2a4.12,4.12,0,0,0-.28-1.7l-.12-.23s0-.08,0-.12A.19.19,0,0,1,83.45,6l.93-.55a.59.59,0,0,1,.19,0C84.76,5.4,85,6,85.23,6.72ZM17.36,39.28c1.1,0,1.52.33,1.52,1.19s-.43,1.17-1.55,1.17h-.57V39.28Zm.05-3.58c.84,0,1.22.35,1.22,1.12A1.06,1.06,0,0,1,17.46,38h-.7V35.7Zm2.87.94A2.34,2.34,0,0,0,19.63,35c-.44-.42-.87-.53-2.22-.53h-2c-.23,0-.25,0-.25.25v8c0,.23,0,.26.25.26h2.11a5.21,5.21,0,0,0,1.55-.14,2.32,2.32,0,0,0,1.53-2.28A2,2,0,0,0,19,38.52,1.88,1.88,0,0,0,20.28,36.64Zm2.66,3.29c0-1.46.3-2,1-2s1,.61,1,2-.3,2-1,2S22.94,41.37,22.94,39.93Zm1-3.3c-1.67,0-2.7,1.25-2.7,3.28s1,3.31,2.69,3.31,2.67-1.27,2.67-3.29S25.65,36.63,24,36.63Zm4.77,0-.14,0-1,.36c-.08,0-.12.08-.12.14a.26.26,0,0,0,0,.11l.07.18A3.52,3.52,0,0,1,27.88,39v3.78c0,.19,0,.22.21.22h1.14c.19,0,.22,0,.22-.22V38.64c.38-.42.67-.6.94-.6a1.12,1.12,0,0,1,.49.11H31c.05,0,.08,0,.11-.11l.37-1a1.11,1.11,0,0,0,0-.13c0-.14-.33-.28-.7-.28-.55,0-.9.2-1.42.83l-.13.14C29.09,37,28.9,36.64,28.75,36.64Zm4.42,3.29c0-1.46.29-2,1-2s1,.61,1,2-.29,2-1,2S33.17,41.37,33.17,39.93Zm1-3.3c-1.68,0-2.71,1.25-2.71,3.28s1,3.31,2.69,3.31,2.67-1.27,2.67-3.29S35.87,36.63,34.21,36.63ZM40.32,42c-.56,0-.75-.29-.75-1.13v-4c0-.14,0-.2-.14-.2h-.1l-1.15.26C38,37,38,37,38,37.14v3.64c0,1.18.07,1.48.42,1.9a1.76,1.76,0,0,0,1.4.54,2.16,2.16,0,0,0,1.71-.73c.09.43.23.68.37.68H42a.07.07,0,0,1,.06,0l1-.24c.09,0,.12,0,.12-.1a1,1,0,0,0,0-.12,2.32,2.32,0,0,1-.24-1.25v-4.6c0-.14,0-.2-.12-.2h-.11l-1.16.26c-.16,0-.17.05-.17.23V41.5A1.55,1.55,0,0,1,40.32,42Zm7.29-.72a1.26,1.26,0,0,1-1,.44c-.61,0-.93-.64-.93-1.85s.37-1.9,1-1.9a1.32,1.32,0,0,1,.86.38Zm.07,2c0,.76-.26,1-.94,1a4.53,4.53,0,0,1-1.83-.46.24.24,0,0,0-.12,0c-.06,0-.11,0-.14.13l-.25.86a.53.53,0,0,0,0,.12c0,.08.07.15.18.21a6.52,6.52,0,0,0,2.31.47,2,2,0,0,0,2.33-2.24c0-.14,0-.39,0-.76,0-.66,0-1.36,0-2V38.72a3.21,3.21,0,0,1,.26-1.4l.06-.13a.37.37,0,0,0,0-.09c0-.06,0-.1-.11-.13l-1-.36-.13,0c-.11,0-.28.23-.43.61a1.9,1.9,0,0,0-1.42-.57c-1.4,0-2.26,1.27-2.26,3.29,0,1.85.77,3,2,3a2.35,2.35,0,0,0,1.43-.46A5.86,5.86,0,0,1,47.68,43.27Zm4.68-9.08c0-.15,0-.22-.12-.22h-.12L51,34.23c-.18,0-.19.05-.19.23v8.32c0,.19,0,.22.21.22h1.15c.19,0,.21,0,.21-.22V38.42a1.46,1.46,0,0,1,1.06-.51c.49,0,.68.28.68,1v3.83c0,.19,0,.22.22.22h1.14c.19,0,.22,0,.22-.22V38.59a2.3,2.3,0,0,0-.25-1.28,1.51,1.51,0,0,0-1.36-.68,2.37,2.37,0,0,0-1.71.73Zm13.1,1c0-.07-.06-.14-.15-.23a3.21,3.21,0,0,0-2-.71,2.75,2.75,0,0,0-2.13,1,5,5,0,0,0-1,3.42c0,3,1.12,4.59,3.19,4.59a3,3,0,0,0,1.71-.48c.26-.14.35-.25.35-.37a.61.61,0,0,0,0-.13L65,41.37c0-.08-.08-.1-.13-.1a.33.33,0,0,0-.12,0,1.59,1.59,0,0,1-1.1.45c-1.09,0-1.6-1.08-1.6-3.41,0-1.8.47-2.68,1.42-2.68a1.63,1.63,0,0,1,1,.38,1.86,1.86,0,0,0,.26.19.19.19,0,0,0,.11,0s.08,0,.13-.09l.51-.92A.58.58,0,0,0,65.46,35.18Zm2.26,4.75c0-1.46.29-2,1-2s1,.61,1,2-.29,2-1,2S67.72,41.37,67.72,39.93Zm1-3.3c-1.67,0-2.7,1.25-2.7,3.28s1,3.31,2.69,3.31,2.67-1.27,2.67-3.29S70.43,36.63,68.76,36.63Zm6,5.33c-.56,0-.75-.29-.75-1.13v-4c0-.14,0-.2-.14-.2h-.11l-1.14.26c-.16,0-.19.05-.19.23v3.64c0,1.18.06,1.48.42,1.9a1.76,1.76,0,0,0,1.4.54A2.18,2.18,0,0,0,76,42.49c.09.43.23.68.37.68h.08a.07.07,0,0,1,.06,0l1-.24c.09,0,.11,0,.11-.1a.74.74,0,0,0,0-.12,2.32,2.32,0,0,1-.24-1.25v-4.6c0-.14,0-.2-.12-.2h-.11L76,36.91c-.16,0-.18.05-.18.23V41.5A1.51,1.51,0,0,1,74.75,42Zm5.37-5.39h-.06l-.06,0L78.91,37c-.07,0-.11.06-.11.12a.24.24,0,0,0,0,.11,3.23,3.23,0,0,1,.26,1.36v4.18c0,.19,0,.22.21.22h1.14c.19,0,.22,0,.22-.22V38.42a1.54,1.54,0,0,1,1.08-.51c.49,0,.71.31.71,1v3.83c0,.19,0,.22.2.22H83.8c.19,0,.22,0,.22-.22V38.6c0-1.36-.5-2-1.6-2a2.6,2.6,0,0,0-1.86.79C80.42,36.88,80.27,36.57,80.12,36.57Zm9,5a.26.26,0,0,0-.12.06A1.71,1.71,0,0,1,88,42c-.86,0-1.24-.61-1.24-2s.38-2.08,1.23-2.08a1.62,1.62,0,0,1,1,.43.27.27,0,0,0,.13,0,.11.11,0,0,0,.1-.09l.43-.78a.28.28,0,0,0,0-.15c0-.06-.05-.12-.14-.2A2.6,2.6,0,0,0,88,36.63c-1.77,0-2.85,1.29-2.85,3.41s1,3.18,2.66,3.18a3.08,3.08,0,0,0,1.32-.28c.3-.15.47-.29.47-.41a.35.35,0,0,0,0-.15l-.29-.75C89.24,41.56,89.21,41.54,89.16,41.54ZM92.51,34a1,1,0,1,0,1,1A1,1,0,0,0,92.51,34Zm-.75,8.77c0,.19,0,.22.22.22h1.14c.18,0,.2,0,.2-.22V37.06c0-.19,0-.22-.2-.22h-2.3c-.18,0-.2,0-.2.22v.72c0,.19,0,.22.2.22h.94Zm3.15-8.55a.21.21,0,0,0-.19.23v6.86a2,2,0,0,0,.37,1.46,1.53,1.53,0,0,0,1.15.44A3,3,0,0,0,97.38,43c.06,0,.11-.08.11-.12a.2.2,0,0,1,0,0l0-.06-.25-1a.09.09,0,0,0-.09-.07H97a1.29,1.29,0,0,1-.4.08c-.27,0-.33-.15-.33-.65V34.19c0-.15,0-.22-.13-.22h-.06L96,34Zm-61.6-9.76-1-3.14c-.07-.18-.09-.21-.28-.21H30.82c-.22,0-.24,0-.26.26l-.35,8v.08c0,.14.05.18.24.18h1c.22,0,.26,0,.26-.26l.1-4.23v-2c.17.83.37,1.61.45,1.92l.69,2.42c.06.21.08.22.28.22H34c.2,0,.22,0,.28-.2l.8-2.56c.13-.43.25-.92.46-1.8l0,.5v.41c0,.18,0,.33,0,.45s0,.29,0,.43l.08,4.4c0,.22,0,.26.27.26H37c.18,0,.25,0,.25-.18v-.09l-.4-8c0-.22,0-.26-.25-.26H35.38c-.2,0-.22,0-.28.21l-1,3.13a10.08,10.08,0,0,0-.32,1.07l-.1.38C33.5,25.25,33.37,24.7,33.31,24.47Zm7.71,0c.62,0,.86.39.89,1.43H40C40.09,24.84,40.37,24.44,41,24.44ZM43.27,27c.23,0,.28-.06.28-.32,0-2.26-.81-3.4-2.45-3.4s-2.7,1.34-2.7,3.35,1,3.25,2.76,3.25a4.05,4.05,0,0,0,1.54-.29c.51-.19.68-.3.68-.46a.58.58,0,0,0,0-.14L43,28.28c0-.08-.08-.12-.14-.12a.29.29,0,0,0-.15.06,3.12,3.12,0,0,1-1.43.38c-.9,0-1.33-.51-1.36-1.58Zm1.11-3.5c-.19,0-.21,0-.21.21v.73c0,.18,0,.2.21.2h.84v3.27a2.34,2.34,0,0,0,.18,1.14,1.52,1.52,0,0,0,1.5.83,4,4,0,0,0,1.45-.3c.12-.05.17-.1.17-.2a.17.17,0,0,0,0-.07v-.06l-.2-.87c0-.09-.07-.13-.13-.13a.18.18,0,0,0-.1,0,1.91,1.91,0,0,1-.82.21c-.38,0-.45-.14-.45-.8v-3H48c.14,0,.19,0,.21-.18l.17-.73a.43.43,0,0,1,0-.05v-.05c0-.1,0-.13-.2-.13H46.8V21.76c0-.15,0-.21-.13-.21h-.1l-1.15.17c-.17,0-.2.05-.2.21v1.58Zm6.15-.2-.14,0-1,.36a.16.16,0,0,0-.11.14.19.19,0,0,0,0,.1l.07.18a3.56,3.56,0,0,1,.29,1.56v3.78c0,.19,0,.22.21.22H51c.19,0,.22,0,.22-.22V25.32c.38-.43.67-.61.94-.61a1.14,1.14,0,0,1,.49.12h.08s.07,0,.11-.11l.37-1a.7.7,0,0,0,0-.12c0-.15-.33-.29-.7-.29-.55,0-.9.21-1.42.84l-.13.14C50.87,23.69,50.68,23.32,50.53,23.32Zm4.68,3.29c0-1.46.29-2.05,1-2.05s1,.6,1,2-.29,2-1,2S55.21,28.05,55.21,26.61Zm1-3.31c-1.68,0-2.7,1.26-2.7,3.29s1,3.31,2.69,3.31,2.67-1.27,2.67-3.29S57.92,23.3,56.25,23.3Zm6.68,1.26c.7,0,1,.62,1,2,0,1.6-.28,2.14-1.11,2.14a1.6,1.6,0,0,1-.85-.23V25A1.36,1.36,0,0,1,62.93,24.56ZM61.45,23.3a.54.54,0,0,0-.12,0l-1.07.46c-.1,0-.12.07-.12.13a.37.37,0,0,0,0,.09,2.87,2.87,0,0,1,.26,1.23V32.1c0,.16,0,.21.11.21a.32.32,0,0,0,.12,0l1.15-.24c.17,0,.18,0,.18-.23V29.56a2.26,2.26,0,0,0,1.26.34c1.51,0,2.26-1.13,2.26-3.42,0-2.06-.75-3.18-2.14-3.18a2.17,2.17,0,0,0-1.57.66C61.7,23.57,61.56,23.3,61.45,23.3Zm6.71,3.31c0-1.46.3-2.05,1-2.05s1,.6,1,2-.29,2-1,2S68.16,28.05,68.16,26.61Zm1-3.31c-1.68,0-2.71,1.26-2.71,3.29s1,3.31,2.69,3.31,2.67-1.27,2.67-3.29S70.87,23.3,69.21,23.3Zm4.24-2.4a.22.22,0,0,0-.19.24V28a2,2,0,0,0,.37,1.46,1.53,1.53,0,0,0,1.14.44,2.75,2.75,0,0,0,1.13-.24c.07,0,.12-.07.12-.11s0,0,0-.05v-.07l-.25-1c0-.05,0-.08-.09-.08a.16.16,0,0,0-.09,0,1.26,1.26,0,0,1-.41.07c-.26,0-.33-.14-.33-.64V20.87c0-.16,0-.22-.12-.22h-.16ZM78,20.69a1,1,0,1,0,1,1A1,1,0,0,0,78,20.69Zm-.75,8.77c0,.19,0,.22.21.22h1.15c.18,0,.2,0,.2-.22V23.74c0-.19,0-.22-.2-.22h-2.3c-.18,0-.21,0-.21.22v.72c0,.19,0,.22.21.22h.94Zm3.05-5.94c-.19,0-.22,0-.22.21v.73c0,.18,0,.2.22.2h.84v3.27a2.34,2.34,0,0,0,.18,1.14,1.52,1.52,0,0,0,1.5.83,4,4,0,0,0,1.44-.3c.13-.05.18-.1.18-.2a.17.17,0,0,0,0-.07v-.06l-.21-.87c0-.09-.06-.13-.12-.13a.23.23,0,0,0-.11,0,1.85,1.85,0,0,1-.81.21c-.38,0-.46-.14-.46-.8v-3h1.22c.14,0,.19,0,.22-.18l.17-.73a.43.43,0,0,1,0-.05v-.05c0-.1,0-.13-.21-.13H82.67V21.76c0-.15,0-.21-.12-.21h-.1l-1.15.17c-.18,0-.2.05-.2.21v1.58Zm8,4.73a1.22,1.22,0,0,1-.94.49.81.81,0,0,1-.78-.86c0-.69.49-1,1.6-1h.12Zm-.1-2.39a4.68,4.68,0,0,0-2.07.35,1.76,1.76,0,0,0-1,1.76,1.75,1.75,0,0,0,1.86,1.89,2,2,0,0,0,1.57-.72c.14.51.25.74.38.74a.3.3,0,0,0,.14,0l1-.39a.16.16,0,0,0,.1-.13.27.27,0,0,0,0-.13,2.86,2.86,0,0,1-.29-1.35V25.3a2.55,2.55,0,0,0-.08-.8c-.21-.77-.93-1.2-2-1.2a5.27,5.27,0,0,0-1.75.31c-.27.1-.36.17-.36.28a.45.45,0,0,0,0,.13l.26.76c0,.09.07.11.13.11l.13,0a3.76,3.76,0,0,1,1.37-.34c.63,0,.82.22.82.94v.39Zm4.29-2.61H92.4s0,0-.05,0l-1.1.41c-.07,0-.11.06-.11.11a.24.24,0,0,0,0,.12,3.23,3.23,0,0,1,.26,1.36v4.18c0,.19,0,.22.21.22h1.14c.19,0,.22,0,.22-.22V25.1a1.55,1.55,0,0,1,1.08-.51c.49,0,.71.3.71,1v3.84c0,.19,0,.22.2.22h1.14c.19,0,.22,0,.22-.22V25.28c0-1.36-.5-2-1.6-2a2.57,2.57,0,0,0-1.86.8C92.76,23.56,92.61,23.25,92.46,23.25Z" fill="#002554"/></svg>