<?xml version="1.0" standalone="no"?>
<!DOCTYPE svg PUBLIC "-//W3C//DTD SVG 1.1//EN" "http://www.w3.org/Graphics/SVG/1.1/DTD/svg11.dtd">
<svg width="100%" height="100%" viewBox="0 0 594 204" version="1.1" xmlns="http://www.w3.org/2000/svg" xmlns:xlink="http://www.w3.org/1999/xlink" xml:space="preserve" style="fill-rule:evenodd;clip-rule:evenodd;stroke-linejoin:round;stroke-miterlimit:1.41421;">
    <g id="null">
        <path d="M556.115,48.238C556.115,70.018 542.997,85.61 522.95,92.788L570.161,154.158C583.788,137.854 592.001,116.867 592.001,93.958C592.001,55.29 568.629,22.093 535.246,7.685C549.743,16.655 556.115,31.507 556.115,48.238Z" style="fill:white;fill-rule:nonzero;"/>
        <path d="M484.589,101.45L475.962,101.45L475.962,185.76C483.506,187.713 489.904,187.896 498.06,187.896C515.352,187.896 531.545,183.201 545.46,175.05L495.973,107.389C493.004,103.182 489.29,101.45 484.589,101.45Z" style="fill:white;fill-rule:nonzero;"/>
        <path d="M493.993,24.481L475.969,24.481L475.969,75.711L494.736,75.711C504.14,75.711 522.95,71.504 522.95,49.23C522.95,32.894 510.08,24.481 493.993,24.481Z" style="fill:white;fill-rule:nonzero;"/>
        <path d="M10.486,36.935L18.441,36.935C27.031,36.935 31.38,32.375 31.38,23.149C31.38,14.664 27.985,11.588 18.759,11.588L10.486,11.588L10.486,36.935ZM26.607,42.662L43.789,73.523C43.894,73.63 43.894,73.735 44.001,73.842C44.106,74.161 44.106,74.373 44.213,74.478L44.213,74.584C44.213,74.902 43.789,75.22 42.939,75.325L36.682,76.599L36.258,76.599C35.622,76.599 35.304,76.387 34.985,75.751L18.334,43.403L10.486,43.403L10.486,74.161C10.486,75.325 10.274,75.537 9.108,75.537L3.38,75.537C2.213,75.537 2.001,75.325 2.001,74.161L2.001,6.286C2.001,5.013 2.213,4.801 3.38,4.801L19.29,4.801C27.137,4.801 30.954,5.648 34.137,8.195C37.849,11.059 40.077,16.36 40.077,22.512C39.97,32.48 35.197,39.799 26.607,42.662Z" style="fill:white;fill-rule:nonzero;"/>
        <path d="M83.555,51.253L83.555,50.298C83.555,37.889 79.312,31.102 71.465,31.102C63.404,31.102 59.163,37.572 59.163,49.979C59.163,63.766 63.192,70.447 71.465,70.447C79.419,70.447 83.236,64.402 83.555,51.253ZM91.933,50.51C91.933,67.161 83.979,76.916 70.722,76.916C58.102,76.916 50.783,67.371 50.783,51.041C50.783,34.389 58.632,24.633 71.784,24.633C84.509,24.633 91.933,34.072 91.933,50.51Z" style="fill:white;fill-rule:nonzero;"/>
        <path d="M106.478,26.011L106.478,11.907C106.478,11.269 106.902,10.847 107.538,10.634L112.947,9.148L113.265,9.043C113.372,9.043 113.372,8.938 113.477,8.938C114.113,8.938 114.22,9.148 114.22,10.103L114.22,26.011L129.705,26.011C130.34,26.011 130.658,26.223 130.658,26.754C130.658,26.859 130.658,26.966 130.552,27.39L129.386,31.42C129.174,32.163 128.855,32.375 128.007,32.375L114.22,32.375L114.22,61.433C114.22,68.116 115.493,69.918 120.477,69.918C123.022,69.918 125.462,69.175 129.705,67.266C129.917,67.161 130.234,67.054 130.447,67.054C130.764,67.054 130.976,67.266 131.083,67.69L132.355,71.933L132.462,72.251L132.462,72.463C132.462,72.887 132.25,73.099 131.612,73.523C127.583,75.537 123.234,76.599 119.098,76.599C109.871,76.599 106.478,72.463 106.478,61.54L106.478,32.375L99.159,32.375C98.1,32.375 97.888,32.268 97.888,31.208L97.888,27.178C97.888,26.223 98.1,26.011 99.159,26.011L106.478,26.011Z" style="fill:white;fill-rule:nonzero;"/>
        <path d="M148.053,31.42C153.567,26.435 157.81,24.633 163.855,24.633C173.082,24.633 176.475,28.768 176.475,40.117L176.475,74.373C176.475,75.325 176.263,75.537 175.309,75.537L169.9,75.537C169.052,75.537 168.733,75.325 168.733,74.796L168.733,74.373L168.733,40.011C168.733,33.542 166.93,31.314 161.628,31.314C157.493,31.314 153.779,33.118 148.053,37.784L148.053,74.373C148.053,75.325 147.841,75.537 146.886,75.537L141.477,75.537C140.416,75.537 140.204,75.325 140.204,74.373L140.204,3.529C140.204,2.891 140.629,2.467 141.265,2.255L146.674,0.982L146.993,0.877L147.417,0.877C147.841,0.877 148.053,1.196 148.053,2.044L148.053,31.42Z" style="fill:white;fill-rule:nonzero;"/>
        <path d="M198.744,46.162L221.016,46.162C220.803,36.299 216.879,30.89 209.986,30.89C203.092,30.89 199.168,36.087 198.744,46.162ZM198.637,52.524C199.168,63.766 203.941,69.918 212.319,69.918C215.924,69.918 219.848,68.752 224.197,66.205C224.516,65.994 224.94,65.888 225.152,65.888C225.471,65.888 225.788,66.1 225.893,66.417L227.804,70.447C227.909,70.871 228.014,70.978 228.014,71.19C228.014,72.144 226.318,73.206 222.819,74.69C219.107,76.175 215.394,76.916 211.577,76.916C198.53,76.916 190.152,66.842 190.152,50.829C190.152,34.813 198.108,24.633 210.517,24.633C222.288,24.633 229.182,33.011 229.394,47.539L229.394,50.617C229.394,52.1 229.182,52.524 228.226,52.524L198.637,52.524Z" style="fill:white;fill-rule:nonzero;"/>
        <path d="M249.12,33.223L250.286,31.844C255.589,26.118 257.923,24.633 261.952,24.633C263.438,24.633 265.028,24.952 266.407,25.587C266.832,25.799 267.149,26.011 267.149,26.33C267.149,26.435 267.044,26.754 266.937,27.071L264.392,32.692C264.285,33.011 264.073,33.118 263.862,33.118C263.756,33.118 263.65,33.118 263.544,33.011C261.74,32.375 261.316,32.375 260.362,32.375C257.71,32.375 255.271,34.178 250.181,40.222L250.181,74.373C250.181,75.432 249.969,75.537 249.015,75.537L243.605,75.537C242.546,75.537 242.439,75.325 242.439,74.373L242.439,43.403C242.439,35.239 242.015,33.435 239.894,29.511C239.575,28.982 239.47,28.768 239.47,28.45C239.47,28.133 239.682,27.815 240.106,27.604L244.348,24.845C244.56,24.74 244.984,24.633 245.196,24.633C245.832,24.633 246.893,26.118 247.848,28.663C248.484,30.359 248.803,31.102 249.12,33.223Z" style="fill:white;fill-rule:nonzero;"/>
        <path d="M283.59,31.42C289.104,26.435 293.347,24.633 299.392,24.633C308.618,24.633 312.012,28.768 312.012,40.117L312.012,74.373C312.012,75.325 311.8,75.537 310.846,75.537L305.437,75.537C304.589,75.537 304.27,75.325 304.27,74.796L304.27,74.373L304.27,40.011C304.27,33.542 302.468,31.314 297.165,31.314C293.028,31.314 289.316,33.118 283.59,37.784L283.59,74.373C283.59,75.325 283.377,75.537 282.424,75.537L277.015,75.537C275.955,75.537 275.741,75.325 275.741,74.373L275.741,3.529C275.741,2.891 276.167,2.467 276.803,2.255L282.212,0.982L282.529,0.877L282.953,0.877C283.377,0.877 283.59,1.196 283.59,2.044L283.59,31.42Z" style="fill:white;fill-rule:nonzero;"/>
        <path d="M351.568,50.934C338.629,51.041 332.265,54.646 332.265,61.857C332.265,66.735 335.341,70.13 339.69,70.13C343.402,70.13 347.007,68.326 351.568,64.19L351.568,50.934ZM351.568,44.465L351.568,41.07C351.568,34.389 348.916,31.844 342.024,31.844C338.098,31.844 334.81,32.692 329.825,34.92C329.508,35.025 329.191,35.132 329.084,35.132C328.765,35.132 328.447,34.92 328.341,34.601L326.856,30.466C326.644,30.042 326.644,29.935 326.644,29.723C326.644,28.982 327.492,28.345 330.356,27.285C334.386,25.694 338.522,24.845 343.083,24.845C354.113,24.845 359.309,29.511 359.309,39.375L359.309,58.781C359.309,65.994 359.841,68.433 362.068,72.356C362.28,72.568 362.28,72.78 362.28,72.887C362.28,73.099 362.173,73.418 361.961,73.523L357.401,76.28C357.081,76.494 356.764,76.599 356.552,76.599C355.597,76.599 353.795,73.523 352.733,70.13C347.962,74.69 343.614,76.599 337.991,76.599C329.613,76.599 324.311,71.085 324.311,62.493C324.311,50.722 333.22,44.784 351.568,44.465Z" style="fill:white;fill-rule:nonzero;"/>
        <path d="M383.597,30.678C389.216,26.33 393.247,24.633 398.125,24.633C403.005,24.633 406.186,26.542 407.989,30.678C414.141,26.33 418.276,24.633 423.049,24.633C430.899,24.633 434.185,28.875 434.185,39.161L434.185,74.373C434.185,75.325 433.973,75.537 433.018,75.537L427.716,75.537C426.656,75.537 426.442,75.325 426.442,74.373L426.442,38.844C426.442,33.648 424.428,31.314 419.868,31.314C416.581,31.314 414.034,32.268 409.369,35.451L409.369,74.796C409.369,75.325 409.05,75.537 408.201,75.537L402.899,75.537C401.944,75.537 401.732,75.325 401.732,74.373L401.732,38.949C401.732,33.86 399.504,31.314 395.049,31.314C391.763,31.314 388.899,32.48 384.764,35.663L384.764,74.373C384.764,75.325 384.55,75.537 383.597,75.537L378.293,75.537C377.445,75.537 377.021,75.325 377.021,74.796L377.021,74.373L377.021,37.253C377.021,33.966 376.703,32.056 375.748,29.723L375.219,28.663C375.219,28.45 375.112,28.345 375.112,28.133C375.112,27.921 375.324,27.604 375.643,27.497L379.779,25.057C379.99,24.952 380.414,24.845 380.628,24.845C381.476,24.845 382.748,27.285 383.597,30.678Z" style="fill:white;fill-rule:nonzero;"/>
        <path d="M79.721,175.077C84.67,175.077 86.547,176.557 86.547,180.368C86.547,184.121 84.614,185.543 79.608,185.543L77.047,185.543L77.047,175.077L79.721,175.077ZM79.95,159.209C83.703,159.209 85.411,160.744 85.411,164.157C85.411,167.513 83.59,169.391 80.177,169.391L79.381,169.391L77.047,169.391L77.047,159.209L79.95,159.209ZM92.804,163.361C92.804,160.517 91.723,157.787 89.903,156.024C87.912,154.147 85.978,153.634 79.95,153.634L70.962,153.634C69.939,153.634 69.824,153.806 69.824,154.773L69.824,190.435C69.824,191.46 69.939,191.573 70.962,191.573L80.404,191.573C84.329,191.573 85.352,191.46 87.343,190.947C91.269,189.922 94.169,185.601 94.169,180.823C94.169,176.272 91.611,172.859 87.23,171.722C91.155,169.902 92.804,167.4 92.804,163.361Z" style="fill:white;"/>
        <path d="M104.722,177.979C104.722,171.494 106.032,168.879 109.273,168.879C112.516,168.879 113.824,171.552 113.824,177.921C113.824,184.291 112.516,186.965 109.273,186.965C106.032,186.965 104.722,184.35 104.722,177.979ZM109.387,163.304C101.878,163.304 97.272,168.879 97.272,177.866C97.272,187.135 101.708,192.539 109.33,192.539C116.668,192.539 121.275,186.908 121.275,177.979C121.275,168.822 116.839,163.304 109.387,163.304Z" style="fill:white;"/>
        <path d="M130.716,163.361C130.546,163.361 130.375,163.418 130.09,163.475L125.597,165.067C125.255,165.182 125.085,165.409 125.085,165.693C125.085,165.806 125.142,165.978 125.198,166.148L125.541,166.944C126.45,169.049 126.849,170.983 126.849,173.827L126.849,190.607C126.849,191.46 126.962,191.573 127.759,191.573L132.877,191.573C133.73,191.573 133.845,191.46 133.845,190.607L133.845,172.235C135.551,170.357 136.859,169.561 138.054,169.561C138.68,169.561 139.59,169.731 140.272,170.072C140.443,170.13 140.556,170.13 140.613,170.13C140.841,170.13 140.955,170.017 141.125,169.618L142.774,165.125C142.831,164.953 142.889,164.67 142.889,164.556C142.889,163.93 141.409,163.304 139.76,163.304C137.315,163.304 135.721,164.214 133.39,167.001L132.82,167.627C132.253,165.01 131.399,163.361 130.716,163.361Z" style="fill:white;"/>
        <path d="M150.491,177.979C150.491,171.494 151.8,168.879 155.041,168.879C158.284,168.879 159.592,171.552 159.592,177.921C159.592,184.291 158.284,186.965 155.041,186.965C151.8,186.965 150.491,184.35 150.491,177.979ZM155.156,163.304C147.647,163.304 143.039,168.879 143.039,177.866C143.039,187.135 147.477,192.539 155.099,192.539C162.436,192.539 167.044,186.908 167.044,177.979C167.044,168.822 162.606,163.304 155.156,163.304Z" style="fill:white;"/>
        <path d="M182.514,186.965C180.012,186.965 179.159,185.658 179.159,181.96L179.159,181.449L179.159,164.271C179.159,163.645 178.987,163.361 178.533,163.361C178.418,163.361 178.248,163.418 178.077,163.418L172.959,164.556C172.218,164.726 172.104,164.783 172.104,165.579L172.104,181.733C172.104,186.965 172.39,188.273 173.982,190.151C175.29,191.686 177.452,192.539 180.239,192.539C183.425,192.539 185.414,191.686 187.918,189.297C188.315,191.233 188.941,192.312 189.566,192.312L189.909,192.312C190.022,192.256 190.079,192.256 190.192,192.256L194.8,191.174C195.198,191.117 195.311,191.004 195.311,190.72C195.311,190.607 195.256,190.435 195.198,190.208C194.345,188.616 194.118,187.364 194.118,184.633L194.118,164.271C194.118,163.645 194.004,163.361 193.605,163.361C193.549,163.361 193.435,163.361 193.322,163.418L193.093,163.418L187.918,164.556C187.178,164.726 187.121,164.783 187.121,165.579L187.121,184.917C185.471,186.339 184.049,186.965 182.514,186.965Z" style="fill:white;"/>
        <path d="M215.178,183.781C213.983,185.032 212.505,185.713 210.856,185.713C208.125,185.713 206.703,182.871 206.703,177.524C206.703,172.063 208.352,169.106 211.31,169.106C212.618,169.106 213.643,169.561 215.178,170.756L215.178,183.781ZM215.462,192.766C215.462,196.123 214.324,197.374 211.253,197.374C208.808,197.374 205.85,196.635 203.062,195.326C202.835,195.213 202.664,195.156 202.551,195.156C202.266,195.156 202.039,195.326 201.925,195.725L200.787,199.536C200.73,199.706 200.673,199.934 200.673,200.105C200.673,200.447 200.959,200.731 201.469,201.014C204.2,202.209 208.579,203.119 211.822,203.119C218.591,203.119 222.231,199.651 222.231,193.165C222.231,192.539 222.231,191.46 222.174,189.811C222.061,186.852 222.003,183.781 222.003,180.823L222.003,172.575C222.003,170.13 222.288,168.48 223.198,166.377L223.425,165.806C223.483,165.636 223.54,165.522 223.54,165.409C223.54,165.125 223.368,164.953 223.027,164.84L218.705,163.248C218.534,163.191 218.306,163.134 218.136,163.134C217.623,163.134 216.886,164.157 216.201,165.863C213.983,163.93 212.391,163.304 209.831,163.304C203.574,163.304 199.707,168.935 199.707,177.921C199.707,186.112 203.177,191.233 208.751,191.233C211.139,191.233 213.13,190.607 215.178,189.185C215.405,190.777 215.462,191.857 215.462,192.766Z" style="fill:white;"/>
        <path d="M236.451,152.498C236.451,151.815 236.28,151.53 235.882,151.53C235.766,151.53 235.655,151.587 235.369,151.587L230.251,152.668C229.454,152.838 229.398,152.895 229.398,153.691L229.398,190.607C229.398,191.46 229.511,191.573 230.364,191.573L235.483,191.573C236.336,191.573 236.451,191.46 236.451,190.607L236.451,171.267C238.27,169.561 239.522,168.992 241.17,168.992C243.388,168.992 244.243,170.244 244.243,173.6L244.243,190.607C244.243,191.46 244.356,191.573 245.209,191.573L250.33,191.573C251.183,191.573 251.296,191.46 251.296,190.607L251.296,172.006C251.296,169.162 251.011,167.799 250.158,166.318C249.078,164.441 246.802,163.304 244.073,163.304C241.17,163.304 238.725,164.386 236.451,166.547L236.451,152.498Z" style="fill:white;"/>
        <path d="M295.101,156.877C295.101,156.593 294.816,156.251 294.418,155.852C291.915,153.861 288.674,152.725 285.601,152.725C281.848,152.725 278.548,154.203 276.045,157.047C273.031,160.517 271.666,165.237 271.666,172.178C271.666,185.43 276.671,192.539 285.942,192.539C288.958,192.539 291.232,191.913 293.622,190.435C294.759,189.811 295.158,189.297 295.158,188.786C295.158,188.616 295.101,188.387 295.044,188.217L292.825,184.35C292.654,184.008 292.484,183.894 292.257,183.894C292.144,183.894 291.972,184.008 291.745,184.121C289.869,185.601 288.617,186.112 286.796,186.112C281.905,186.112 279.63,181.334 279.63,170.983C279.63,163.019 281.733,159.095 286,159.095C287.479,159.095 288.958,159.664 290.493,160.801C291.062,161.256 291.403,161.542 291.631,161.654C291.801,161.769 291.972,161.826 292.144,161.826C292.371,161.826 292.484,161.769 292.713,161.427L294.986,157.333C295.044,157.161 295.101,156.991 295.101,156.877Z" style="fill:white;"/>
        <path d="M305.21,177.979C305.21,171.494 306.518,168.879 309.759,168.879C313.002,168.879 314.311,171.552 314.311,177.921C314.311,184.291 313.002,186.965 309.759,186.965C306.518,186.965 305.21,184.35 305.21,177.979ZM309.873,163.304C302.366,163.304 297.758,168.879 297.758,177.866C297.758,187.135 302.196,192.539 309.816,192.539C317.154,192.539 321.761,186.908 321.761,177.979C321.761,168.822 317.325,163.304 309.873,163.304Z" style="fill:white;"/>
        <path d="M336.658,186.965C334.156,186.965 333.302,185.658 333.302,181.96L333.302,181.449L333.302,164.271C333.302,163.645 333.131,163.361 332.676,163.361C332.562,163.361 332.392,163.418 332.222,163.418L327.103,164.556C326.362,164.726 326.249,164.783 326.249,165.579L326.249,181.733C326.249,186.965 326.534,188.273 328.126,190.151C329.435,191.686 331.596,192.539 334.383,192.539C337.569,192.539 339.559,191.686 342.062,189.297C342.461,191.233 343.085,192.312 343.711,192.312L344.053,192.312C344.166,192.256 344.223,192.256 344.337,192.256L348.943,191.174C349.342,191.117 349.457,191.004 349.457,190.72C349.457,190.607 349.399,190.435 349.342,190.208C348.489,188.616 348.262,187.364 348.262,184.633L348.262,164.271C348.262,163.645 348.147,163.361 347.75,163.361C347.693,163.361 347.579,163.361 347.466,163.418L347.239,163.418L342.062,164.556C341.323,164.726 341.266,164.783 341.266,165.579L341.266,184.917C339.617,186.339 338.195,186.965 336.658,186.965Z" style="fill:white;"/>
        <path d="M360.716,163.076L360.43,163.076C360.317,163.134 360.26,163.134 360.205,163.191L355.313,165.01C354.971,165.125 354.799,165.295 354.799,165.522C354.799,165.636 354.856,165.806 354.971,166.035C355.767,167.684 356.166,169.675 356.166,172.063L356.166,190.607C356.166,191.46 356.278,191.573 357.076,191.573L362.194,191.573C363.049,191.573 363.161,191.46 363.161,190.607L363.161,171.267C365.038,169.618 366.347,168.992 367.997,168.992C370.215,168.992 371.182,170.357 371.182,173.6L371.182,190.607C371.182,191.46 371.239,191.573 372.091,191.573L377.212,191.573C378.065,191.573 378.178,191.46 378.178,190.607L378.178,172.063C378.178,166.035 375.96,163.304 371.012,163.304C367.882,163.304 365.494,164.327 362.707,166.831C362.083,164.441 361.398,163.076 360.716,163.076Z" style="fill:white;"/>
        <path d="M401.213,185.089C401.098,185.089 400.871,185.203 400.642,185.373C399.107,186.454 397.628,186.965 396.151,186.965C392.282,186.965 390.575,184.236 390.575,178.093C390.575,171.779 392.282,168.879 396.093,168.879C397.686,168.879 398.766,169.333 400.756,170.756C400.984,170.926 401.156,170.983 401.325,170.983C401.497,170.983 401.665,170.868 401.782,170.584L403.715,167.115C403.828,166.944 403.885,166.659 403.885,166.489C403.885,166.205 403.658,165.921 403.259,165.579C401.497,164.157 398.821,163.304 396.036,163.304C388.128,163.304 383.295,169.049 383.295,178.433C383.295,187.364 387.616,192.539 395.183,192.539C397.344,192.539 399.447,192.085 401.098,191.289C402.463,190.663 403.202,190.038 403.202,189.468C403.202,189.355 403.146,189.185 402.975,188.843L401.665,185.486C401.553,185.203 401.44,185.089 401.213,185.089Z" style="fill:white;"/>
        <path d="M416.197,151.702C413.695,151.702 411.706,153.691 411.706,156.138C411.706,158.64 413.695,160.631 416.142,160.631C418.645,160.631 420.636,158.64 420.636,156.138C420.636,153.691 418.645,151.702 416.197,151.702ZM412.844,190.607C412.844,191.46 412.957,191.573 413.81,191.573L418.929,191.573C419.725,191.573 419.838,191.46 419.838,190.607L419.838,165.237C419.838,164.386 419.725,164.271 418.929,164.271L408.633,164.271C407.837,164.271 407.722,164.386 407.722,165.237L407.722,168.423C407.722,169.276 407.837,169.391 408.633,169.391L412.844,169.391L412.844,190.607Z" style="fill:white;"/>
        <path d="M426.945,152.668C426.377,152.782 426.092,153.124 426.092,153.691L426.092,181.79L426.149,184.121C426.149,187.648 426.548,189.185 427.799,190.607C428.879,191.8 430.755,192.539 432.918,192.539C434.682,192.539 436.56,192.14 437.98,191.516C438.264,191.403 438.492,191.174 438.492,191.004C438.492,190.947 438.436,190.89 438.436,190.777L438.377,190.491L437.241,185.999C437.185,185.772 437.012,185.658 436.842,185.658C436.728,185.658 436.615,185.658 436.443,185.713C435.762,185.942 435.193,186.055 434.624,186.055C433.43,186.055 433.145,185.43 433.145,183.212L433.145,181.334L433.145,152.498C433.145,151.815 432.975,151.53 432.576,151.53C432.519,151.53 432.404,151.53 432.292,151.587L431.893,151.643L426.945,152.668Z" style="fill:white;"/>
        <path d="M151.132,109.397L146.696,95.461C146.411,94.665 146.297,94.552 145.444,94.552L139.984,94.552C139.017,94.552 138.904,94.722 138.847,95.688L137.253,131.352L137.253,131.693C137.253,132.319 137.482,132.489 138.335,132.489L142.828,132.489C143.795,132.489 143.966,132.375 143.966,131.352L144.421,112.583L144.421,110.819L144.421,108.374L144.421,106.268L144.363,103.88C145.159,107.576 146.014,111.046 146.411,112.411L149.483,123.161C149.767,124.071 149.824,124.129 150.735,124.129L154.091,124.129C154.999,124.129 155.058,124.071 155.341,123.218L158.926,111.899C159.494,109.966 160.063,107.805 160.972,103.88L160.916,106.098L160.916,107.918C160.859,108.715 160.859,109.397 160.859,109.91C160.859,110.592 160.859,111.216 160.916,111.842L161.256,131.352C161.314,132.319 161.428,132.489 162.451,132.489L167.456,132.489C168.254,132.489 168.538,132.319 168.538,131.693L168.538,131.295L166.775,95.688C166.717,94.722 166.547,94.552 165.637,94.552L160.405,94.552C159.494,94.552 159.437,94.609 159.153,95.461L154.488,109.34C153.976,110.762 153.579,112.184 153.067,114.117L152.611,115.768C151.985,112.865 151.416,110.42 151.132,109.397Z" style="fill:white;"/>
        <path d="M185.664,109.284C188.452,109.284 189.531,110.989 189.645,115.597L181,115.597C181.512,111.046 182.764,109.284 185.664,109.284ZM195.732,120.716C196.755,120.716 196.983,120.431 196.983,119.294C196.983,109.284 193.343,104.22 186.005,104.22C178.725,104.22 173.947,110.136 173.947,119.065C173.947,128.395 178.269,133.457 186.29,133.457C188.735,133.457 190.897,133.058 193.173,132.205C195.448,131.352 196.244,130.84 196.244,130.157C196.244,129.987 196.187,129.874 196.074,129.531L194.652,126.289C194.537,125.948 194.31,125.778 194.026,125.778C193.854,125.778 193.627,125.835 193.343,126.007C191.182,127.143 189.076,127.712 186.973,127.712C182.934,127.712 181,125.437 180.886,120.716L195.732,120.716Z" style="fill:white;"/>
        <path d="M200.712,105.188C199.857,105.188 199.744,105.245 199.744,106.098L199.744,109.34C199.744,110.136 199.857,110.25 200.712,110.25L204.465,110.25L204.465,124.755C204.465,127.427 204.635,128.452 205.261,129.817C206.343,132.148 208.731,133.457 211.974,133.457C214.077,133.457 216.523,132.944 218.458,132.148C219.027,131.92 219.254,131.693 219.254,131.239C219.254,131.124 219.254,131.067 219.197,130.953L219.14,130.67L218.231,126.803C218.116,126.404 217.945,126.234 217.662,126.234C217.548,126.234 217.376,126.234 217.206,126.347C215.158,127.143 214.647,127.257 213.566,127.257C211.859,127.257 211.518,126.631 211.518,123.73L211.518,110.25L216.979,110.25C217.605,110.25 217.832,110.136 217.945,109.454L218.685,106.211C218.685,106.098 218.741,106.041 218.741,105.984L218.741,105.757C218.741,105.302 218.571,105.188 217.832,105.188L211.518,105.188L211.518,97.396C211.518,96.713 211.348,96.428 210.949,96.428C210.892,96.428 210.836,96.486 210.665,96.486L210.493,96.486L205.375,97.224C204.579,97.339 204.465,97.452 204.465,98.192L204.465,105.188L200.712,105.188Z" style="fill:white;"/>
        <path d="M228.229,104.277C228.059,104.277 227.889,104.335 227.604,104.392L223.111,105.984C222.769,106.098 222.598,106.326 222.598,106.61C222.598,106.724 222.655,106.894 222.712,107.064L223.054,107.86C223.964,109.966 224.362,111.899 224.362,114.743L224.362,131.522C224.362,132.375 224.476,132.489 225.272,132.489L230.391,132.489C231.245,132.489 231.357,132.375 231.357,131.522L231.357,113.151C233.064,111.273 234.373,110.477 235.566,110.477C236.192,110.477 237.103,110.647 237.786,110.989C237.956,111.046 238.07,111.046 238.126,111.046C238.355,111.046 238.468,110.933 238.639,110.535L240.288,106.041C240.344,105.871 240.401,105.585 240.401,105.472C240.401,104.846 238.924,104.22 237.273,104.22C234.828,104.22 233.235,105.131 230.903,107.918L230.334,108.544C229.765,105.927 228.912,104.277 228.229,104.277Z" style="fill:white;"/>
        <path d="M249.19,118.895C249.19,112.411 250.498,109.796 253.741,109.796C256.982,109.796 258.291,112.468 258.291,118.838C258.291,125.209 256.982,127.882 253.741,127.882C250.498,127.882 249.19,125.266 249.19,118.895ZM253.855,104.22C246.346,104.22 241.74,109.796 241.74,118.782C241.74,128.053 246.176,133.457 253.798,133.457C261.134,133.457 265.742,127.826 265.742,118.895C265.742,109.738 261.306,104.22 253.855,104.22Z" style="fill:white;"/>
        <path d="M283.764,109.796C286.891,109.796 288.258,112.525 288.258,118.611C288.258,125.721 287.007,128.109 283.308,128.109C281.886,128.109 280.92,127.826 279.498,127.086L279.498,111.842C281.147,110.363 282.285,109.796 283.764,109.796ZM277.108,104.22C276.994,104.22 276.881,104.277 276.597,104.392L271.819,106.438C271.363,106.61 271.25,106.724 271.25,107.007C271.25,107.122 271.307,107.236 271.363,107.406C272.216,109.511 272.502,110.706 272.502,112.865L272.502,143.24C272.502,143.921 272.615,144.15 273.012,144.15C273.071,144.15 273.355,144.15 273.526,144.093L278.702,143.011C279.441,142.841 279.498,142.785 279.498,141.988L279.498,131.978C281.489,133.058 282.911,133.457 285.129,133.457C291.898,133.457 295.254,128.452 295.254,118.326C295.254,109.17 291.898,104.22 285.698,104.22C282.968,104.22 280.92,105.075 278.645,107.122C278.246,105.415 277.62,104.22 277.108,104.22Z" style="fill:white;"/>
        <path d="M307.193,118.895C307.193,112.411 308.501,109.796 311.742,109.796C314.985,109.796 316.293,112.468 316.293,118.838C316.293,125.209 314.985,127.882 311.742,127.882C308.501,127.882 307.193,125.266 307.193,118.895ZM311.857,104.22C304.349,104.22 299.741,109.796 299.741,118.782C299.741,128.053 304.178,133.457 311.8,133.457C319.137,133.457 323.745,127.826 323.745,118.895C323.745,109.738 319.307,104.22 311.857,104.22Z" style="fill:white;"/>
        <path d="M330.845,93.586C330.276,93.699 329.992,94.039 329.992,94.609L329.992,122.705L330.049,125.039C330.049,128.565 330.446,130.1 331.698,131.522C332.779,132.717 334.655,133.457 336.816,133.457C338.58,133.457 340.458,133.058 341.88,132.434C342.164,132.319 342.392,132.092 342.392,131.92C342.392,131.865 342.336,131.808 342.336,131.693L342.277,131.409L341.141,126.914C341.084,126.687 340.912,126.574 340.742,126.574C340.628,126.574 340.515,126.574 340.345,126.631C339.66,126.858 339.093,126.973 338.524,126.973C337.329,126.973 337.045,126.347 337.045,124.129L337.045,122.251L337.045,93.414C337.045,92.733 336.875,92.447 336.476,92.447C336.419,92.447 336.306,92.447 336.191,92.504L335.793,92.561L330.845,93.586Z" style="fill:white;"/>
        <path d="M351.039,92.617C348.537,92.617 346.546,94.609 346.546,97.054C346.546,99.557 348.537,101.548 350.982,101.548C353.486,101.548 355.477,99.557 355.477,97.054C355.477,94.609 353.486,92.617 351.039,92.617ZM347.685,131.522C347.685,132.375 347.798,132.489 348.651,132.489L353.77,132.489C354.567,132.489 354.681,132.375 354.681,131.522L354.681,106.154C354.681,105.302 354.567,105.188 353.77,105.188L343.476,105.188C342.679,105.188 342.564,105.302 342.564,106.154L342.564,109.34C342.564,110.193 342.679,110.307 343.476,110.307L347.685,110.307L347.685,131.522Z" style="fill:white;"/>
        <path d="M361.35,105.188C360.495,105.188 360.382,105.245 360.382,106.098L360.382,109.34C360.382,110.136 360.495,110.25 361.35,110.25L365.105,110.25L365.105,124.755C365.105,127.427 365.275,128.452 365.901,129.817C366.981,132.148 369.371,133.457 372.612,133.457C374.718,133.457 377.163,132.944 379.096,132.148C379.667,131.92 379.892,131.693 379.892,131.239C379.892,131.124 379.892,131.067 379.835,130.953L379.78,130.67L378.869,126.803C378.755,126.404 378.584,126.234 378.3,126.234C378.186,126.234 378.014,126.234 377.844,126.347C375.796,127.143 375.287,127.257 374.204,127.257C372.499,127.257 372.158,126.631 372.158,123.73L372.158,110.25L377.617,110.25C378.243,110.25 378.47,110.136 378.584,109.454L379.325,106.211C379.325,106.098 379.381,106.041 379.381,105.984L379.381,105.757C379.381,105.302 379.209,105.188 378.47,105.188L372.158,105.188L372.158,97.396C372.158,96.713 371.986,96.428 371.589,96.428C371.532,96.428 371.474,96.486 371.304,96.486L371.132,96.486L366.013,97.224C365.217,97.339 365.105,97.452 365.105,98.192L365.105,105.188L361.35,105.188Z" style="fill:white;"/>
        <path d="M397.231,126.177C395.922,127.655 394.5,128.338 393.022,128.338C391.031,128.338 389.493,126.687 389.493,124.526C389.493,121.455 391.713,120.09 396.662,120.09L397.231,120.09L397.231,126.177ZM396.777,115.541C392.226,115.597 390.006,115.995 387.504,117.133C384.377,118.555 382.839,121.113 382.839,124.925C382.839,130.044 386.081,133.287 391.146,133.287C393.988,133.287 395.979,132.375 398.197,130.1C398.823,132.375 399.335,133.4 399.904,133.4C400.018,133.4 400.302,133.343 400.53,133.23L404.853,131.466C405.137,131.352 405.309,131.124 405.309,130.897C405.309,130.783 405.252,130.556 405.137,130.327C404.227,128.452 403.828,126.803 403.828,124.356L403.828,113.094C403.828,111.445 403.771,110.535 403.488,109.511C402.52,106.098 399.335,104.22 394.387,104.22C391.656,104.22 388.928,104.732 386.538,105.585C385.343,106.041 384.944,106.326 384.944,106.837C384.944,106.952 385.002,107.122 385.057,107.406L386.254,110.762C386.366,111.161 386.538,111.273 386.822,111.273C386.935,111.273 387.22,111.216 387.392,111.161C389.951,110.136 391.883,109.681 393.534,109.681C396.378,109.681 397.231,110.647 397.231,113.833L397.231,115.541L396.777,115.541Z" style="fill:white;"/>
        <path d="M415.971,103.993L415.686,103.993C415.571,104.05 415.516,104.05 415.459,104.107L410.566,105.927C410.225,106.041 410.057,106.211 410.057,106.438C410.057,106.553 410.113,106.724 410.225,106.952C411.021,108.601 411.42,110.592 411.42,112.98L411.42,131.522C411.42,132.375 411.534,132.489 412.331,132.489L417.448,132.489C418.303,132.489 418.415,132.375 418.415,131.522L418.415,112.184C420.292,110.535 421.602,109.91 423.251,109.91C425.469,109.91 426.436,111.273 426.436,114.516L426.436,131.522C426.436,132.375 426.494,132.489 427.347,132.489L432.466,132.489C433.318,132.489 433.434,132.375 433.434,131.522L433.434,112.98C433.434,106.952 431.214,104.22 426.267,104.22C423.138,104.22 420.748,105.245 417.961,107.748C417.335,105.358 416.652,103.993 415.971,103.993Z" style="fill:white;"/>
    </g>
</svg>
