<?xml version="1.0" encoding="utf-8"?>
<!-- Generator: Adobe Illustrator 28.1.0, SVG Export Plug-In . SVG Version: 6.00 Build 0)  -->
<svg version="1.1" id="Layer_1" focusable="false" xmlns="http://www.w3.org/2000/svg" xmlns:xlink="http://www.w3.org/1999/xlink"
	 x="0px" y="0px" viewBox="0 0 131.8 45.6" style="enable-background:new 0 0 131.8 45.6;" xml:space="preserve">
<style type="text/css">
	.st0{fill:#FFFFFF;}
</style>
<path class="st0" d="M123.8,10.7c0,4.9-2.9,8.4-7.4,10l10.5,13.8c7.5-9.1,6.2-22.5-2.9-30c-1.5-1.2-3.2-2.3-4.9-3
	C122.3,3.6,123.8,6.9,123.8,10.7z M107.8,22.7h-1.9v19c1.6,0.4,3.3,0.5,4.9,0.5c3.7,0,7.4-1,10.6-2.9l-11-15.3
	C109.8,23.1,108.8,22.6,107.8,22.7L107.8,22.7z M109.9,5.3h-4v11.6h4.2c2.1,0,6.3-0.9,6.3-6C116.3,7.2,113.5,5.3,109.9,5.3
	L109.9,5.3z M1.9,8.1h1.8c1.9,0,2.9-1,2.9-3.1c0-1.9-0.8-2.6-2.8-2.6H1.9V8.1z M5.5,9.4l3.8,7c0,0,0,0,0.1,0.1s0,0.1,0,0.1l0,0
	c0,0.1-0.1,0.1-0.3,0.2l-1.4,0.3H7.6c-0.1,0-0.2-0.1-0.3-0.2L3.7,9.6H1.9v6.9c0,0.3,0,0.3-0.3,0.3H0.3c-0.3,0-0.3,0-0.3-0.3V1.2
	c0-0.3,0.1-0.3,0.3-0.3h3.5c1.7,0,2.6,0.2,3.3,0.8c0.9,0.8,1.4,2,1.3,3.2C8.6,6.9,7.4,8.8,5.5,9.4z M18.2,11.4v-0.2
	c0-2.8-1-4.3-2.7-4.3s-2.7,1.5-2.7,4.2c0,3.1,0.9,4.6,2.7,4.6S18.1,14.3,18.2,11.4z M20.1,11.2c0,3.8-1.8,6-4.7,6s-4.5-2.2-4.5-5.9
	s1.8-5.9,4.7-5.9S20.1,7.5,20.1,11.2z M23.3,5.7V2.5c0-0.1,0.1-0.3,0.2-0.3l1.2-0.3h0.1l0,0c0,0,0.2,0,0.2,0.3v3.5h3.5
	c0.1,0,0.2,0,0.2,0.2c0,0,0,0.1,0,0.1l-0.3,0.9c0,0.2-0.1,0.2-0.3,0.2h-3.1v6.5c0,1.5,0.3,1.9,1.4,1.9c0.7,0,1.4-0.2,2.1-0.6
	c0.1,0,0.1,0,0.2-0.1c0.1,0,0.1,0.1,0.1,0.1l0.3,0.9v0.1v0c0,0.1,0,0.1-0.2,0.2c-0.9,0.4-1.8,0.7-2.8,0.7c-2.1,0-2.8-0.9-2.8-3.4
	V7.1h-1.6c-0.2,0-0.3,0-0.3-0.3V5.9c0-0.2,0-0.3,0.3-0.3L23.3,5.7z M32.6,6.9c0.9-1,2.2-1.5,3.5-1.5c2.1,0,2.8,0.9,2.8,3.5v7.7
	c0,0.2,0,0.3-0.3,0.3h-1.2c-0.2,0-0.3,0-0.3-0.2V8.8c0-1.4-0.4-2-1.6-2c-1.1,0.1-2.2,0.6-3,1.5v8.2c0,0.2,0,0.3-0.3,0.3h-1.2
	c-0.2,0-0.3,0-0.3-0.3V0.6c0-0.1,0.1-0.3,0.2-0.3L32.3,0h0.1h0.1c0.1,0,0.1,0.1,0.1,0.3L32.6,6.9z M43.9,10.2h5
	C48.9,8,48,6.8,46.5,6.8S44,7.9,43.9,10.2z M43.9,11.6c0.1,2.5,1.2,3.9,3,3.9c0.9,0,1.9-0.3,2.7-0.8c0.1,0,0.1-0.1,0.2-0.1
	c0.1,0,0.1,0,0.2,0.1l0.4,0.9c0,0.1,0,0.1,0,0.2c0,0.2-0.4,0.5-1.2,0.8c-0.8,0.3-1.6,0.5-2.5,0.5c-2.9,0-4.8-2.3-4.8-5.9
	s1.8-5.9,4.5-5.9s4.2,1.9,4.2,5.2v0.7c0,0.3,0,0.4-0.3,0.4L43.9,11.6z M55.2,7.3L55.5,7c1.2-1.3,1.7-1.6,2.6-1.6
	c0.3,0,0.7,0.1,1,0.2c0.1,0,0.2,0.1,0.2,0.2c0,0.1,0,0.1,0,0.2l-0.6,1.3c0,0.1-0.1,0.1-0.1,0.1c0,0,0,0-0.1,0
	c-0.2-0.1-0.5-0.2-0.7-0.2c-0.6,0-1.1,0.4-2.3,1.8v7.7c0,0.2,0,0.3-0.3,0.3H54c-0.2,0-0.3,0-0.3-0.3v-7c0-1.8-0.1-2.2-0.6-3.1
	C53.1,6.4,53,6.3,53,6.2C53,6.1,53.1,6,53.2,6l1-0.6c0.1,0,0.1,0,0.2,0c0.1,0,0.4,0.3,0.6,0.9C55.1,6.6,55.2,6.9,55.2,7.3z
	 M62.9,6.9c0.9-1,2.2-1.5,3.5-1.5c2.1,0,2.8,0.9,2.8,3.5v7.7c0,0.2,0,0.3-0.3,0.3h-1.2c-0.2,0-0.3,0-0.3-0.2V8.8c0-1.4-0.4-2-1.6-2
	c-1.1,0.1-2.2,0.6-3,1.5v8.2c0,0.2,0,0.3-0.3,0.3h-1.2c-0.2,0-0.3,0-0.3-0.3V0.6c0-0.1,0.1-0.3,0.2-0.3L62.6,0h0.1h0.1
	c0.1,0,0.1,0.1,0.1,0.3V6.9z M78.1,11.3c-2.9,0-4.3,0.8-4.3,2.5c-0.1,0.9,0.6,1.8,1.5,1.9c0,0,0.1,0,0.1,0c1-0.1,2-0.6,2.7-1.3
	L78.1,11.3z M78.1,9.8V9.1c0-1.5-0.6-2.1-2.1-2.1c-0.9,0-1.9,0.3-2.7,0.7h-0.2c-0.1,0-0.1,0-0.2-0.1l-0.3-0.9c0-0.1,0-0.1,0-0.2
	c0-0.2,0.2-0.3,0.8-0.6c0.9-0.4,1.9-0.5,2.8-0.6c2.5,0,3.6,1.1,3.6,3.3V13c-0.1,1.1,0.1,2.1,0.6,3.1c0,0,0,0.1,0,0.1
	c0,0.1,0,0.1-0.1,0.1l-1,0.6c-0.1,0-0.1,0.1-0.2,0.1c-0.2,0-0.6-0.7-0.8-1.4c-0.9,1-2.1,1.5-3.4,1.5c-1.6,0.1-3-1.2-3-2.8
	c0-0.1,0-0.3,0-0.4C72,11.2,74,9.9,78.1,9.8z M85.2,6.7c0.9-0.8,2-1.3,3.2-1.4c1-0.1,1.9,0.5,2.2,1.4c0.9-0.8,2.1-1.3,3.3-1.4
	c1.8,0,2.5,0.9,2.5,3.3v7.9c0,0.2,0,0.3-0.3,0.3h-1.1c-0.2,0-0.3,0-0.3-0.3v-8c0-1.2-0.4-1.7-1.5-1.7c-0.9,0-1.7,0.4-2.3,0.9v8.9
	c0,0.1-0.1,0.2-0.3,0.2h-1.2c-0.2,0-0.3,0-0.3-0.3v-8c0-1.1-0.5-1.7-1.5-1.7c-0.9,0-1.7,0.4-2.3,1v8.7c0,0.2,0,0.3-0.3,0.3H84
	c-0.2,0-0.3,0-0.3-0.2V8.2c0-0.6-0.1-1.2-0.3-1.7l-0.1-0.2c0,0,0-0.1,0-0.1c0-0.1,0.1-0.1,0.1-0.2l0.9-0.6c0.1,0,0.1,0,0.2,0
	C84.8,5.4,85,6,85.2,6.7z M17.4,39.3c1.1,0,1.5,0.3,1.5,1.2s-0.4,1.2-1.5,1.2h-0.6v-2.4H17.4z M17.4,35.7c0.8,0,1.2,0.3,1.2,1.1
	c0.1,0.6-0.3,1.1-0.9,1.2c-0.1,0-0.2,0-0.2,0h-0.7v-2.3L17.4,35.7z M20.3,36.6c0-0.6-0.2-1.2-0.6-1.6c-0.4-0.4-0.9-0.5-2.2-0.5h-2
	c-0.2,0-0.2,0-0.2,0.2v8c0,0.2,0,0.3,0.2,0.3h2.1c0.5,0,1,0,1.5-0.1c1-0.3,1.6-1.3,1.5-2.3c0-1-0.6-1.8-1.6-2
	C19.8,38.3,20.3,37.5,20.3,36.6z M22.9,39.9c0-1.5,0.3-2,1-2s1,0.6,1,2s-0.3,2-1,2S22.9,41.4,22.9,39.9z M23.9,36.6
	c-1.7,0-2.7,1.2-2.7,3.3s1,3.3,2.7,3.3s2.7-1.3,2.7-3.3S25.6,36.6,23.9,36.6L23.9,36.6z M28.7,36.6h-0.1l-1,0.4
	c-0.1,0-0.1,0.1-0.1,0.1c0,0,0,0.1,0,0.1l0.1,0.2c0.2,0.5,0.4,1,0.4,1.6v3.8c0,0.2,0,0.2,0.2,0.2h1.1c0.2,0,0.2,0,0.2-0.2v-4.1
	c0.4-0.4,0.7-0.6,0.9-0.6c0.2,0,0.3,0,0.5,0.1H31c0,0,0.1,0,0.1-0.1l0.4-1c0,0,0-0.1,0-0.1c0-0.1-0.3-0.3-0.7-0.3
	c-0.5,0-0.9,0.2-1.4,0.8l-0.1,0.1C29.1,37,28.9,36.6,28.7,36.6L28.7,36.6z M33.1,39.9c0-1.5,0.3-2,1-2s1,0.6,1,2s-0.3,2-1,2
	S33.2,41.4,33.1,39.9L33.1,39.9z M34.1,36.6c-1.7,0-2.7,1.2-2.7,3.3s1,3.3,2.7,3.3s2.7-1.3,2.7-3.3S35.9,36.6,34.1,36.6L34.1,36.6z
	 M40.3,42c-0.6,0-0.8-0.3-0.8-1.1v-4c0-0.1,0-0.2-0.1-0.2h-0.1l-1.2,0.3C38,37,38,37,38,37.1v3.6c0,1.2,0.1,1.5,0.4,1.9
	c0.4,0.4,0.9,0.6,1.4,0.5c0.7,0,1.3-0.2,1.7-0.7c0.1,0.4,0.2,0.7,0.4,0.7H42c0,0,0,0,0.1,0l1-0.2c0.1,0,0.1,0,0.1-0.1
	c0,0,0-0.1,0-0.1c-0.2-0.4-0.3-0.8-0.2-1.2v-4.6c0-0.1,0-0.2-0.1-0.2h-0.1l-1.2,0.3c-0.2,0-0.2,0-0.2,0.2v4.3
	C41.1,41.8,40.7,42,40.3,42z M47.6,41.3c-0.2,0.3-0.6,0.5-1,0.4c-0.6,0-0.9-0.6-0.9-1.8s0.4-1.9,1-1.9c0.3,0,0.6,0.2,0.9,0.4
	L47.6,41.3z M47.7,43.3c0,0.8-0.3,1-0.9,1c-0.6,0-1.3-0.2-1.8-0.5c0,0-0.1,0-0.1,0c-0.1,0-0.1,0-0.1,0.1l-0.2,0.9c0,0,0,0.1,0,0.1
	c0,0.1,0.1,0.2,0.2,0.2c0.7,0.3,1.5,0.5,2.3,0.5c1.1,0.2,2.1-0.5,2.3-1.6c0-0.2,0-0.4,0-0.6c0-0.1,0-0.4,0-0.8c0-0.7,0-1.4,0-2v-1.9
	c0-0.5,0.1-1,0.3-1.4l0.1-0.1c0,0,0-0.1,0-0.1c0-0.1,0-0.1-0.1-0.1l-1-0.4h-0.1c-0.1,0-0.3,0.2-0.4,0.6c-0.4-0.4-0.9-0.6-1.4-0.6
	c-1.4,0-2.3,1.3-2.3,3.3c0,1.8,0.8,3,2,3c0.5,0,1-0.2,1.4-0.5C47.7,42.7,47.7,43,47.7,43.3L47.7,43.3z M52.4,34.2
	c0-0.2,0-0.2-0.1-0.2h-0.1L51,34.2c-0.2,0-0.2,0-0.2,0.2v8.3c0,0.2,0,0.2,0.2,0.2h1.2c0.2,0,0.2,0,0.2-0.2v-4.4
	c0.3-0.3,0.7-0.5,1.1-0.5c0.5,0,0.7,0.3,0.7,1v3.8c0,0.2,0,0.2,0.2,0.2h1.1c0.2,0,0.2,0,0.2-0.2v-4.1c0-0.4,0-0.9-0.2-1.3
	c-0.3-0.5-0.8-0.7-1.4-0.7c-0.6,0-1.3,0.3-1.7,0.7L52.4,34.2z M65.5,35.2c0-0.1-0.1-0.1-0.2-0.2c-0.6-0.5-1.3-0.7-2-0.7
	c-0.8,0-1.6,0.4-2.1,1c-0.7,1-1.1,2.2-1,3.4c0,3,1.1,4.6,3.2,4.6c0.6,0,1.2-0.2,1.7-0.5c0.3-0.1,0.3-0.2,0.3-0.4c0,0,0-0.1,0-0.1
	L65,41.4c0-0.1-0.1-0.1-0.1-0.1c0,0-0.1,0-0.1,0c-0.3,0.3-0.7,0.4-1.1,0.5c-1.1,0-1.6-1.1-1.6-3.4c0-1.8,0.5-2.7,1.4-2.7
	c0.4,0,0.7,0.1,1,0.4c0.1,0.1,0.2,0.1,0.3,0.2c0,0,0.1,0,0.1,0c0,0,0.1,0,0.1-0.1L65.5,35.2C65.5,35.2,65.5,35.2,65.5,35.2
	L65.5,35.2z M67.7,39.9c0-1.5,0.3-2,1-2s1,0.6,1,2s-0.3,2-1,2S67.7,41.4,67.7,39.9L67.7,39.9z M68.7,36.6c-1.7,0-2.7,1.2-2.7,3.3
	s1,3.3,2.7,3.3s2.7-1.3,2.7-3.3S70.4,36.6,68.7,36.6L68.7,36.6z M74.7,42c-0.6,0-0.8-0.3-0.8-1.1v-4c0-0.1,0-0.2-0.1-0.2h-0.1
	l-1.1,0.3c-0.2,0-0.2,0-0.2,0.2v3.6c0,1.2,0.1,1.5,0.4,1.9c0.4,0.4,0.9,0.6,1.4,0.5c0.7,0,1.3-0.2,1.8-0.7c0.1,0.4,0.2,0.7,0.4,0.7
	h0.1c0,0,0,0,0.1,0l1-0.2c0.1,0,0.1,0,0.1-0.1c0,0,0-0.1,0-0.1c-0.2-0.4-0.3-0.8-0.2-1.2v-4.6c0-0.1,0-0.2-0.1-0.2h-0.1L76,36.9
	c-0.2,0-0.2,0-0.2,0.2v4.4C75.5,41.8,75.2,42,74.7,42L74.7,42z M80.1,36.6L80.1,36.6H80L78.9,37c-0.1,0-0.1,0.1-0.1,0.1
	c0,0,0,0.1,0,0.1c0.2,0.4,0.3,0.9,0.3,1.4v4.2c0,0.2,0,0.2,0.2,0.2h1.1c0.2,0,0.2,0,0.2-0.2v-4.4c0.3-0.3,0.7-0.5,1.1-0.5
	c0.5,0,0.7,0.3,0.7,1v3.8c0,0.2,0,0.2,0.2,0.2h1.2c0.2,0,0.2,0,0.2-0.2v-4.1c0-1.4-0.5-2-1.6-2c-0.7,0-1.4,0.3-1.9,0.8
	C80.4,36.9,80.3,36.6,80.1,36.6L80.1,36.6z M89.1,41.6c0,0-0.1,0-0.1,0.1c-0.3,0.2-0.6,0.3-1,0.4c-0.9,0-1.2-0.6-1.2-2
	s0.4-2.1,1.2-2.1c0.4,0,0.7,0.2,1,0.4c0,0,0.1,0,0.1,0c0,0,0.1,0,0.1-0.1l0.4-0.8c0,0,0-0.1,0-0.2c0-0.1-0.1-0.1-0.1-0.2
	c-0.4-0.3-1-0.5-1.5-0.5c-1.8,0-2.8,1.3-2.8,3.4s1,3.2,2.7,3.2c0.5,0,0.9-0.1,1.3-0.3c0.3-0.2,0.5-0.3,0.5-0.4c0,0,0-0.1,0-0.2
	l-0.3-0.8C89.2,41.6,89.2,41.5,89.1,41.6L89.1,41.6z M92.5,34c-0.6,0-1,0.4-1,1s0.4,1,1,1s1-0.4,1-1S93.1,34,92.5,34z M91.8,42.8
	c0,0.2,0,0.2,0.2,0.2h1.1c0.2,0,0.2,0,0.2-0.2v-5.7c0-0.2,0-0.2-0.2-0.2h-2.3c-0.2,0-0.2,0-0.2,0.2v0.7c0,0.2,0,0.2,0.2,0.2h0.9
	V42.8z M94.9,34.2c-0.1,0-0.2,0.1-0.2,0.2c0,0,0,0,0,0v6.9c-0.1,0.5,0.1,1,0.4,1.5c0.3,0.3,0.7,0.5,1.2,0.4c0.4,0,0.8-0.1,1.1-0.2
	c0.1,0,0.1-0.1,0.1-0.1l0,0v-0.1l-0.2-1c0,0,0-0.1-0.1-0.1H97c-0.1,0-0.3,0.1-0.4,0.1c-0.3,0-0.3-0.2-0.3-0.7v-7
	c0-0.2,0-0.2-0.1-0.2h-0.1L96,34L94.9,34.2z M33.3,24.5l-1-3.1c-0.1-0.2-0.1-0.2-0.3-0.2h-1.2c-0.2,0-0.2,0-0.3,0.3l-0.4,8v0.1
	c0,0.1,0,0.2,0.2,0.2h1c0.2,0,0.3,0,0.3-0.3l0.1-4.2v-2c0.2,0.8,0.4,1.6,0.4,1.9l0.7,2.4c0.1,0.2,0.1,0.2,0.3,0.2H34
	c0.2,0,0.2,0,0.3-0.2l0.8-2.6c0.1-0.4,0.2-0.9,0.5-1.8v0.5v0.4c0,0.2,0,0.3,0,0.5s0,0.3,0,0.4l0.1,4.4c0,0.2,0,0.3,0.3,0.3H37
	c0.2,0,0.2,0,0.2-0.2v-0.1l-0.4-8c0-0.2,0-0.3-0.2-0.3h-1.2c-0.2,0-0.2,0-0.3,0.2l-1,3.1c-0.1,0.4-0.2,0.7-0.3,1.1l-0.1,0.4
	C33.5,25.2,33.4,24.7,33.3,24.5L33.3,24.5z M41,24.5c0.6,0,0.9,0.4,0.9,1.4H40C40.1,24.8,40.4,24.4,41,24.5L41,24.5z M43.3,27
	c0.2,0,0.3-0.1,0.3-0.3c0-2.3-0.8-3.4-2.5-3.4s-2.7,1.3-2.7,3.4s1,3.2,2.8,3.2c0.5,0,1.1-0.1,1.5-0.3c0.5-0.2,0.7-0.3,0.7-0.5
	c0,0,0-0.1,0-0.1L43,28.3c0-0.1-0.1-0.1-0.1-0.1c-0.1,0-0.1,0-0.2,0.1c-0.4,0.2-0.9,0.4-1.4,0.4c-0.9,0-1.3-0.5-1.4-1.6L43.3,27z
	 M44.4,23.5c-0.2,0-0.2,0-0.2,0.2v0.7c0,0.2,0,0.2,0.2,0.2h0.8v3.3c0,0.4,0,0.8,0.2,1.1c0.3,0.6,0.9,0.9,1.5,0.8
	c0.5,0,1-0.1,1.5-0.3c0.1,0,0.2-0.1,0.2-0.2c0,0,0,0,0-0.1v-0.1l-0.2-0.9c0-0.1-0.1-0.1-0.1-0.1c0,0-0.1,0-0.1,0
	c-0.3,0.1-0.5,0.2-0.8,0.2c-0.4,0-0.5-0.1-0.5-0.8v-3H48c0.1,0,0.2,0,0.2-0.2l0.2-0.7c0,0,0,0,0,0v0c0-0.1,0-0.1-0.2-0.1h-1.4v-1.8
	c0-0.1,0-0.2-0.1-0.2h-0.1l-1.2,0.2c-0.2,0-0.2,0-0.2,0.2v1.6L44.4,23.5z M50.5,23.3h-0.1l-1,0.4c-0.1,0-0.1,0.1-0.1,0.1
	c0,0,0,0.1,0,0.1l0.1,0.2c0.2,0.5,0.3,1,0.3,1.6v3.8c0,0.2,0,0.2,0.2,0.2H51c0.2,0,0.2,0,0.2-0.2v-4.1c0.4-0.4,0.7-0.6,0.9-0.6
	c0.2,0,0.3,0,0.5,0.1h0.1c0,0,0.1,0,0.1-0.1l0.4-1c0,0,0-0.1,0-0.1c0-0.1-0.3-0.3-0.7-0.3c-0.5,0-0.9,0.2-1.4,0.8L51,24.3
	C50.9,23.7,50.7,23.3,50.5,23.3L50.5,23.3z M55.2,26.6c0-1.5,0.3-2,1-2s1,0.6,1,2s-0.3,2-1,2S55.2,28,55.2,26.6L55.2,26.6z
	 M56.2,23.3c-1.7,0-2.7,1.3-2.7,3.3s1,3.3,2.7,3.3s2.7-1.3,2.7-3.3S57.9,23.3,56.2,23.3L56.2,23.3z M62.9,24.5c0.7,0,1,0.6,1,2
	c0,1.6-0.3,2.1-1.1,2.1c-0.3,0-0.6-0.1-0.8-0.2V25C62.2,24.7,62.5,24.6,62.9,24.5L62.9,24.5z M61.5,23.3c0,0-0.1,0-0.1,0l-1.1,0.5
	c-0.1,0-0.1,0.1-0.1,0.1c0,0,0,0.1,0,0.1c0.2,0.4,0.3,0.8,0.3,1.2v6.9c0,0.2,0,0.2,0.1,0.2c0,0,0.1,0,0.1,0l1.2-0.2
	c0.2,0,0.2,0,0.2-0.2v-2.3c0.4,0.2,0.8,0.4,1.3,0.3c1.5,0,2.3-1.1,2.3-3.4c0-2.1-0.8-3.2-2.1-3.2c-0.6,0-1.2,0.2-1.6,0.7
	C61.7,23.6,61.6,23.3,61.5,23.3z M68.2,26.6c0-1.5,0.3-2,1-2s1,0.6,1,2s-0.3,2-1,2S68.2,28,68.2,26.6z M69.2,23.3
	c-1.7,0-2.7,1.3-2.7,3.3s1,3.3,2.7,3.3s2.7-1.3,2.7-3.3S70.9,23.3,69.2,23.3L69.2,23.3z M73.4,20.9c-0.1,0-0.2,0.1-0.2,0.2V28
	c-0.1,0.5,0.1,1,0.4,1.5c0.3,0.3,0.7,0.5,1.1,0.4c0.4,0,0.8-0.1,1.1-0.2c0.1,0,0.1-0.1,0.1-0.1s0,0,0,0v-0.1l-0.2-1
	c0,0,0-0.1-0.1-0.1c0,0-0.1,0-0.1,0c-0.1,0-0.3,0.1-0.4,0.1c-0.3,0-0.3-0.1-0.3-0.6v-6.9c0-0.2,0-0.2-0.1-0.2h-0.2L73.4,20.9z
	 M78,20.7c-0.6,0-1,0.4-1,1s0.4,1,1,1s1-0.4,1-1S78.6,20.7,78,20.7z M77.2,29.5c0,0.2,0,0.2,0.2,0.2h1.2c0.2,0,0.2,0,0.2-0.2v-5.7
	c0-0.2,0-0.2-0.2-0.2h-2.3c-0.2,0-0.2,0-0.2,0.2v0.7c0,0.2,0,0.2,0.2,0.2h0.9V29.5z M80.3,23.5c-0.2,0-0.2,0-0.2,0.2v0.7
	c0,0.2,0,0.2,0.2,0.2h0.8v3.3c0,0.4,0,0.8,0.2,1.1c0.3,0.6,0.9,0.9,1.5,0.8c0.5,0,1-0.1,1.4-0.3c0.1,0,0.2-0.1,0.2-0.2
	c0,0,0,0,0-0.1v-0.1l-0.2-0.9c0-0.1-0.1-0.1-0.1-0.1c0,0-0.1,0-0.1,0c-0.3,0.1-0.5,0.2-0.8,0.2c-0.4,0-0.5-0.1-0.5-0.8v-3H84
	c0.1,0,0.2,0,0.2-0.2l0.2-0.7c0,0,0,0,0,0v0c0-0.1,0-0.1-0.2-0.1h-1.5v-1.8c0-0.1,0-0.2-0.1-0.2h-0.1l-1.2,0.2c-0.2,0-0.2,0-0.2,0.2
	v1.6L80.3,23.5z M88.3,28.2c-0.2,0.3-0.6,0.5-0.9,0.5c-0.4,0-0.8-0.4-0.8-0.8c0,0,0,0,0,0c0-0.7,0.5-1,1.6-1h0.1V28.2z M88.2,25.9
	c-0.7,0-1.4,0.1-2.1,0.4c-0.7,0.3-1.1,1-1,1.8c-0.1,1,0.6,1.8,1.6,1.9c0.1,0,0.2,0,0.3,0c0.6,0,1.2-0.3,1.6-0.7
	c0.1,0.5,0.2,0.7,0.4,0.7c0,0,0.1,0,0.1,0l1-0.4c0.1,0,0.1-0.1,0.1-0.1c0,0,0-0.1,0-0.1c-0.2-0.4-0.3-0.9-0.3-1.4v-2.6
	c0-0.3,0-0.5-0.1-0.8c-0.2-0.8-0.9-1.2-2-1.2c-0.6,0-1.2,0.1-1.8,0.3c-0.3,0.1-0.4,0.2-0.4,0.3c0,0,0,0.1,0,0.1l0.3,0.8
	c0,0.1,0.1,0.1,0.1,0.1h0.1c0.4-0.2,0.9-0.3,1.4-0.3c0.6,0,0.8,0.2,0.8,0.9v0.4L88.2,25.9z M92.5,23.2L92.5,23.2c-0.1,0-0.1,0-0.1,0
	l-1.1,0.4c-0.1,0-0.1,0.1-0.1,0.1c0,0,0,0.1,0,0.1c0.2,0.4,0.3,0.9,0.3,1.4v4.2c0,0.2,0,0.2,0.2,0.2h1.1c0.2,0,0.2,0,0.2-0.2v-4.3
	c0.3-0.3,0.7-0.5,1.1-0.5c0.5,0,0.7,0.3,0.7,1v3.8c0,0.2,0,0.2,0.2,0.2h1.1c0.2,0,0.2,0,0.2-0.2v-4.1c0-1.4-0.5-2-1.6-2
	c-0.7,0-1.4,0.3-1.9,0.8C92.8,23.6,92.6,23.2,92.5,23.2L92.5,23.2z"/>
</svg>
