<?xml version="1.0" standalone="no"?><!-- Generator: Gravit.io --><svg xmlns="http://www.w3.org/2000/svg" xmlns:xlink="http://www.w3.org/1999/xlink" style="isolation:isolate" viewBox="0 0 594 204" width="594" height="204"><g id="null"><path d=" M 556.115 48.238 C 556.115 70.018 542.997 85.61 522.95 92.788 L 570.161 154.158 C 583.788 137.854 592.001 116.867 592.001 93.958 C 592.001 55.29 568.629 22.093 535.246 7.685 C 549.743 16.655 556.115 31.507 556.115 48.238 Z " fill="rgb(240,162,0)"/><path d=" M 484.589 101.45 L 475.962 101.45 L 475.962 185.76 C 483.506 187.713 489.904 187.896 498.06 187.896 C 515.352 187.896 531.545 183.201 545.46 175.05 L 495.973 107.389 C 493.004 103.182 489.29 101.45 484.589 101.45 Z " fill="rgb(107,7,123)"/><path d=" M 493.993 24.481 L 475.969 24.481 L 475.969 75.711 L 494.736 75.711 C 504.14 75.711 522.95 71.504 522.95 49.23 C 522.95 32.894 510.08 24.481 493.993 24.481 Z " fill="rgb(107,7,123)"/><path d=" M 10.486 36.935 L 18.441 36.935 C 27.031 36.935 31.38 32.375 31.38 23.149 C 31.38 14.664 27.985 11.588 18.759 11.588 L 10.486 11.588 L 10.486 36.935 Z  M 26.607 42.662 L 43.789 73.523 C 43.894 73.63 43.894 73.735 44.001 73.842 C 44.106 74.161 44.106 74.373 44.213 74.478 L 44.213 74.584 C 44.213 74.902 43.789 75.22 42.939 75.325 L 36.682 76.599 L 36.258 76.599 C 35.622 76.599 35.304 76.387 34.985 75.751 L 18.334 43.403 L 10.486 43.403 L 10.486 74.161 C 10.486 75.325 10.274 75.537 9.108 75.537 L 3.38 75.537 C 2.213 75.537 2.001 75.325 2.001 74.161 L 2.001 6.286 C 2.001 5.013 2.213 4.801 3.38 4.801 L 19.29 4.801 C 27.137 4.801 30.954 5.648 34.137 8.195 C 37.849 11.059 40.077 16.36 40.077 22.512 C 39.97 32.48 35.197 39.799 26.607 42.662 Z " fill="rgb(107,7,123)"/><path d=" M 83.555 51.253 L 83.555 50.298 C 83.555 37.889 79.312 31.102 71.465 31.102 C 63.404 31.102 59.163 37.572 59.163 49.979 C 59.163 63.766 63.192 70.447 71.465 70.447 C 79.419 70.447 83.236 64.402 83.555 51.253 Z  M 91.933 50.51 C 91.933 67.161 83.979 76.916 70.722 76.916 C 58.102 76.916 50.783 67.371 50.783 51.041 C 50.783 34.389 58.632 24.633 71.784 24.633 C 84.509 24.633 91.933 34.072 91.933 50.51 Z " fill="rgb(107,7,123)"/><path d=" M 106.478 26.011 L 106.478 11.907 C 106.478 11.269 106.902 10.847 107.538 10.634 L 112.947 9.148 L 113.265 9.043 C 113.372 9.043 113.372 8.938 113.477 8.938 C 114.113 8.938 114.22 9.148 114.22 10.103 L 114.22 26.011 L 129.705 26.011 C 130.34 26.011 130.658 26.223 130.658 26.754 C 130.658 26.859 130.658 26.966 130.552 27.39 L 129.386 31.42 C 129.174 32.163 128.855 32.375 128.007 32.375 L 114.22 32.375 L 114.22 61.433 C 114.22 68.116 115.493 69.918 120.477 69.918 C 123.022 69.918 125.462 69.175 129.705 67.266 C 129.917 67.161 130.234 67.054 130.447 67.054 C 130.764 67.054 130.976 67.266 131.083 67.69 L 132.355 71.933 L 132.462 72.251 L 132.462 72.463 C 132.462 72.887 132.25 73.099 131.612 73.523 C 127.583 75.537 123.234 76.599 119.098 76.599 C 109.871 76.599 106.478 72.463 106.478 61.54 L 106.478 32.375 L 99.159 32.375 C 98.1 32.375 97.888 32.268 97.888 31.208 L 97.888 27.178 C 97.888 26.223 98.1 26.011 99.159 26.011 L 106.478 26.011 Z " fill="rgb(107,7,123)"/><path d=" M 148.053 31.42 C 153.567 26.435 157.81 24.633 163.855 24.633 C 173.082 24.633 176.475 28.768 176.475 40.117 L 176.475 74.373 C 176.475 75.325 176.263 75.537 175.309 75.537 L 169.9 75.537 C 169.052 75.537 168.733 75.325 168.733 74.796 L 168.733 74.373 L 168.733 40.011 C 168.733 33.542 166.93 31.314 161.628 31.314 C 157.493 31.314 153.779 33.118 148.053 37.784 L 148.053 74.373 C 148.053 75.325 147.841 75.537 146.886 75.537 L 141.477 75.537 C 140.416 75.537 140.204 75.325 140.204 74.373 L 140.204 3.529 C 140.204 2.891 140.629 2.467 141.265 2.255 L 146.674 0.982 L 146.993 0.877 L 147.417 0.877 C 147.841 0.877 148.053 1.196 148.053 2.044 L 148.053 31.42 Z " fill="rgb(107,7,123)"/><path d=" M 198.744 46.162 L 221.016 46.162 C 220.803 36.299 216.879 30.89 209.986 30.89 C 203.092 30.89 199.168 36.087 198.744 46.162 Z  M 198.637 52.524 C 199.168 63.766 203.941 69.918 212.319 69.918 C 215.924 69.918 219.848 68.752 224.197 66.205 C 224.516 65.994 224.94 65.888 225.152 65.888 C 225.471 65.888 225.788 66.1 225.893 66.417 L 227.804 70.447 C 227.909 70.871 228.014 70.978 228.014 71.19 C 228.014 72.144 226.318 73.206 222.819 74.69 C 219.107 76.175 215.394 76.916 211.577 76.916 C 198.53 76.916 190.152 66.842 190.152 50.829 C 190.152 34.813 198.108 24.633 210.517 24.633 C 222.288 24.633 229.182 33.011 229.394 47.539 L 229.394 50.617 C 229.394 52.1 229.182 52.524 228.226 52.524 L 198.637 52.524 Z " fill="rgb(107,7,123)"/><path d=" M 249.12 33.223 L 250.286 31.844 C 255.589 26.118 257.923 24.633 261.952 24.633 C 263.438 24.633 265.028 24.952 266.407 25.587 C 266.832 25.799 267.149 26.011 267.149 26.33 C 267.149 26.435 267.044 26.754 266.937 27.071 L 264.392 32.692 C 264.285 33.011 264.073 33.118 263.862 33.118 C 263.756 33.118 263.65 33.118 263.544 33.011 C 261.74 32.375 261.316 32.375 260.362 32.375 C 257.71 32.375 255.271 34.178 250.181 40.222 L 250.181 74.373 C 250.181 75.432 249.969 75.537 249.015 75.537 L 243.605 75.537 C 242.546 75.537 242.439 75.325 242.439 74.373 L 242.439 43.403 C 242.439 35.239 242.015 33.435 239.894 29.511 C 239.575 28.982 239.47 28.768 239.47 28.45 C 239.47 28.133 239.682 27.815 240.106 27.604 L 244.348 24.845 C 244.56 24.74 244.984 24.633 245.196 24.633 C 245.832 24.633 246.893 26.118 247.848 28.663 C 248.484 30.359 248.803 31.102 249.12 33.223 Z " fill="rgb(107,7,123)"/><path d=" M 283.59 31.42 C 289.104 26.435 293.347 24.633 299.392 24.633 C 308.618 24.633 312.012 28.768 312.012 40.117 L 312.012 74.373 C 312.012 75.325 311.8 75.537 310.846 75.537 L 305.437 75.537 C 304.589 75.537 304.27 75.325 304.27 74.796 L 304.27 74.373 L 304.27 40.011 C 304.27 33.542 302.468 31.314 297.165 31.314 C 293.028 31.314 289.316 33.118 283.59 37.784 L 283.59 74.373 C 283.59 75.325 283.377 75.537 282.424 75.537 L 277.015 75.537 C 275.955 75.537 275.741 75.325 275.741 74.373 L 275.741 3.529 C 275.741 2.891 276.167 2.467 276.803 2.255 L 282.212 0.982 L 282.529 0.877 L 282.953 0.877 C 283.377 0.877 283.59 1.196 283.59 2.044 L 283.59 31.42 Z " fill="rgb(107,7,123)"/><path d=" M 351.568 50.934 C 338.629 51.041 332.265 54.646 332.265 61.857 C 332.265 66.735 335.341 70.13 339.69 70.13 C 343.402 70.13 347.007 68.326 351.568 64.19 L 351.568 50.934 Z  M 351.568 44.465 L 351.568 41.07 C 351.568 34.389 348.916 31.844 342.024 31.844 C 338.098 31.844 334.81 32.692 329.825 34.92 C 329.508 35.025 329.191 35.132 329.084 35.132 C 328.765 35.132 328.447 34.92 328.341 34.601 L 326.856 30.466 C 326.644 30.042 326.644 29.935 326.644 29.723 C 326.644 28.982 327.492 28.345 330.356 27.285 C 334.386 25.694 338.522 24.845 343.083 24.845 C 354.113 24.845 359.309 29.511 359.309 39.375 L 359.309 58.781 C 359.309 65.994 359.841 68.433 362.068 72.356 C 362.28 72.568 362.28 72.78 362.28 72.887 C 362.28 73.099 362.173 73.418 361.961 73.523 L 357.401 76.28 C 357.081 76.494 356.764 76.599 356.552 76.599 C 355.597 76.599 353.795 73.523 352.733 70.13 C 347.962 74.69 343.614 76.599 337.991 76.599 C 329.613 76.599 324.311 71.085 324.311 62.493 C 324.311 50.722 333.22 44.784 351.568 44.465 Z " fill="rgb(107,7,123)"/><path d=" M 383.597 30.678 C 389.216 26.33 393.247 24.633 398.125 24.633 C 403.005 24.633 406.186 26.542 407.989 30.678 C 414.141 26.33 418.276 24.633 423.049 24.633 C 430.899 24.633 434.185 28.875 434.185 39.161 L 434.185 74.373 C 434.185 75.325 433.973 75.537 433.018 75.537 L 427.716 75.537 C 426.656 75.537 426.442 75.325 426.442 74.373 L 426.442 38.844 C 426.442 33.648 424.428 31.314 419.868 31.314 C 416.581 31.314 414.034 32.268 409.369 35.451 L 409.369 74.796 C 409.369 75.325 409.05 75.537 408.201 75.537 L 402.899 75.537 C 401.944 75.537 401.732 75.325 401.732 74.373 L 401.732 38.949 C 401.732 33.86 399.504 31.314 395.049 31.314 C 391.763 31.314 388.899 32.48 384.764 35.663 L 384.764 74.373 C 384.764 75.325 384.55 75.537 383.597 75.537 L 378.293 75.537 C 377.445 75.537 377.021 75.325 377.021 74.796 L 377.021 74.373 L 377.021 37.253 C 377.021 33.966 376.703 32.056 375.748 29.723 L 375.219 28.663 C 375.219 28.45 375.112 28.345 375.112 28.133 C 375.112 27.921 375.324 27.604 375.643 27.497 L 379.779 25.057 C 379.99 24.952 380.414 24.845 380.628 24.845 C 381.476 24.845 382.748 27.285 383.597 30.678 Z " fill="rgb(107,7,123)"/><path d=" M 79.721 175.077 C 84.67 175.077 86.547 176.557 86.547 180.368 C 86.547 184.121 84.614 185.543 79.608 185.543 L 77.047 185.543 L 77.047 175.077 L 79.721 175.077 Z  M 79.95 159.209 C 83.703 159.209 85.411 160.744 85.411 164.157 C 85.411 167.513 83.59 169.391 80.177 169.391 L 79.381 169.391 L 77.047 169.391 L 77.047 159.209 L 79.95 159.209 Z  M 92.804 163.361 C 92.804 160.517 91.723 157.787 89.903 156.024 C 87.912 154.147 85.978 153.634 79.95 153.634 L 70.962 153.634 C 69.939 153.634 69.824 153.806 69.824 154.773 L 69.824 190.435 C 69.824 191.46 69.939 191.573 70.962 191.573 L 80.404 191.573 C 84.329 191.573 85.352 191.46 87.343 190.947 C 91.269 189.922 94.169 185.601 94.169 180.823 C 94.169 176.272 91.611 172.859 87.23 171.722 C 91.155 169.902 92.804 167.4 92.804 163.361 Z " fill-rule="evenodd" fill="rgb(240,162,0)"/><path d=" M 104.722 177.979 C 104.722 171.494 106.032 168.879 109.273 168.879 C 112.516 168.879 113.824 171.552 113.824 177.921 C 113.824 184.291 112.516 186.965 109.273 186.965 C 106.032 186.965 104.722 184.35 104.722 177.979 Z  M 109.387 163.304 C 101.878 163.304 97.272 168.879 97.272 177.866 C 97.272 187.135 101.708 192.539 109.33 192.539 C 116.668 192.539 121.275 186.908 121.275 177.979 C 121.275 168.822 116.839 163.304 109.387 163.304 Z " fill-rule="evenodd" fill="rgb(240,162,0)"/><path d=" M 130.716 163.361 C 130.546 163.361 130.375 163.418 130.09 163.475 L 125.597 165.067 C 125.255 165.182 125.085 165.409 125.085 165.693 C 125.085 165.806 125.142 165.978 125.198 166.148 L 125.541 166.944 C 126.45 169.049 126.849 170.983 126.849 173.827 L 126.849 190.607 C 126.849 191.46 126.962 191.573 127.759 191.573 L 132.877 191.573 C 133.73 191.573 133.845 191.46 133.845 190.607 L 133.845 172.235 C 135.551 170.357 136.859 169.561 138.054 169.561 C 138.68 169.561 139.59 169.731 140.272 170.072 C 140.443 170.13 140.556 170.13 140.613 170.13 C 140.841 170.13 140.955 170.017 141.125 169.618 L 142.774 165.125 C 142.831 164.953 142.889 164.67 142.889 164.556 C 142.889 163.93 141.409 163.304 139.76 163.304 C 137.315 163.304 135.721 164.214 133.39 167.001 L 132.82 167.627 C 132.253 165.01 131.399 163.361 130.716 163.361 Z " fill-rule="evenodd" fill="rgb(240,162,0)"/><path d=" M 150.491 177.979 C 150.491 171.494 151.8 168.879 155.041 168.879 C 158.284 168.879 159.592 171.552 159.592 177.921 C 159.592 184.291 158.284 186.965 155.041 186.965 C 151.8 186.965 150.491 184.35 150.491 177.979 Z  M 155.156 163.304 C 147.647 163.304 143.039 168.879 143.039 177.866 C 143.039 187.135 147.477 192.539 155.099 192.539 C 162.436 192.539 167.044 186.908 167.044 177.979 C 167.044 168.822 162.606 163.304 155.156 163.304 Z " fill-rule="evenodd" fill="rgb(240,162,0)"/><path d=" M 182.514 186.965 C 180.012 186.965 179.159 185.658 179.159 181.96 L 179.159 181.449 L 179.159 164.271 C 179.159 163.645 178.987 163.361 178.533 163.361 C 178.418 163.361 178.248 163.418 178.077 163.418 L 172.959 164.556 C 172.218 164.726 172.104 164.783 172.104 165.579 L 172.104 181.733 C 172.104 186.965 172.39 188.273 173.982 190.151 C 175.29 191.686 177.452 192.539 180.239 192.539 C 183.425 192.539 185.414 191.686 187.918 189.297 C 188.315 191.233 188.941 192.312 189.566 192.312 L 189.909 192.312 C 190.022 192.256 190.079 192.256 190.192 192.256 L 194.8 191.174 C 195.198 191.117 195.311 191.004 195.311 190.72 C 195.311 190.607 195.256 190.435 195.198 190.208 C 194.345 188.616 194.118 187.364 194.118 184.633 L 194.118 164.271 C 194.118 163.645 194.004 163.361 193.605 163.361 C 193.549 163.361 193.435 163.361 193.322 163.418 L 193.093 163.418 L 187.918 164.556 C 187.178 164.726 187.121 164.783 187.121 165.579 L 187.121 184.917 C 185.471 186.339 184.049 186.965 182.514 186.965 Z " fill-rule="evenodd" fill="rgb(240,162,0)"/><path d=" M 215.178 183.781 C 213.983 185.032 212.505 185.713 210.856 185.713 C 208.125 185.713 206.703 182.871 206.703 177.524 C 206.703 172.063 208.352 169.106 211.31 169.106 C 212.618 169.106 213.643 169.561 215.178 170.756 L 215.178 183.781 Z  M 215.462 192.766 C 215.462 196.123 214.324 197.374 211.253 197.374 C 208.808 197.374 205.85 196.635 203.062 195.326 C 202.835 195.213 202.664 195.156 202.551 195.156 C 202.266 195.156 202.039 195.326 201.925 195.725 L 200.787 199.536 C 200.73 199.706 200.673 199.934 200.673 200.105 C 200.673 200.447 200.959 200.731 201.469 201.014 C 204.2 202.209 208.579 203.119 211.822 203.119 C 218.591 203.119 222.231 199.651 222.231 193.165 C 222.231 192.539 222.231 191.46 222.174 189.811 C 222.061 186.852 222.003 183.781 222.003 180.823 L 222.003 172.575 C 222.003 170.13 222.288 168.48 223.198 166.377 L 223.425 165.806 C 223.483 165.636 223.54 165.522 223.54 165.409 C 223.54 165.125 223.368 164.953 223.027 164.84 L 218.705 163.248 C 218.534 163.191 218.306 163.134 218.136 163.134 C 217.623 163.134 216.886 164.157 216.201 165.863 C 213.983 163.93 212.391 163.304 209.831 163.304 C 203.574 163.304 199.707 168.935 199.707 177.921 C 199.707 186.112 203.177 191.233 208.751 191.233 C 211.139 191.233 213.13 190.607 215.178 189.185 C 215.405 190.777 215.462 191.857 215.462 192.766 Z " fill-rule="evenodd" fill="rgb(240,162,0)"/><path d=" M 236.451 152.498 C 236.451 151.815 236.28 151.53 235.882 151.53 C 235.766 151.53 235.655 151.587 235.369 151.587 L 230.251 152.668 C 229.454 152.838 229.398 152.895 229.398 153.691 L 229.398 190.607 C 229.398 191.46 229.511 191.573 230.364 191.573 L 235.483 191.573 C 236.336 191.573 236.451 191.46 236.451 190.607 L 236.451 171.267 C 238.27 169.561 239.522 168.992 241.17 168.992 C 243.388 168.992 244.243 170.244 244.243 173.6 L 244.243 190.607 C 244.243 191.46 244.356 191.573 245.209 191.573 L 250.33 191.573 C 251.183 191.573 251.296 191.46 251.296 190.607 L 251.296 172.006 C 251.296 169.162 251.011 167.799 250.158 166.318 C 249.078 164.441 246.802 163.304 244.073 163.304 C 241.17 163.304 238.725 164.386 236.451 166.547 L 236.451 152.498 Z " fill-rule="evenodd" fill="rgb(240,162,0)"/><path d=" M 295.101 156.877 C 295.101 156.593 294.816 156.251 294.418 155.852 C 291.915 153.861 288.674 152.725 285.601 152.725 C 281.848 152.725 278.548 154.203 276.045 157.047 C 273.031 160.517 271.666 165.237 271.666 172.178 C 271.666 185.43 276.671 192.539 285.942 192.539 C 288.958 192.539 291.232 191.913 293.622 190.435 C 294.759 189.811 295.158 189.297 295.158 188.786 C 295.158 188.616 295.101 188.387 295.044 188.217 L 292.825 184.35 C 292.654 184.008 292.484 183.894 292.257 183.894 C 292.144 183.894 291.972 184.008 291.745 184.121 C 289.869 185.601 288.617 186.112 286.796 186.112 C 281.905 186.112 279.63 181.334 279.63 170.983 C 279.63 163.019 281.733 159.095 286 159.095 C 287.479 159.095 288.958 159.664 290.493 160.801 C 291.062 161.256 291.403 161.542 291.631 161.654 C 291.801 161.769 291.972 161.826 292.144 161.826 C 292.371 161.826 292.484 161.769 292.713 161.427 L 294.986 157.333 C 295.044 157.161 295.101 156.991 295.101 156.877 Z " fill-rule="evenodd" fill="rgb(240,162,0)"/><path d=" M 305.21 177.979 C 305.21 171.494 306.518 168.879 309.759 168.879 C 313.002 168.879 314.311 171.552 314.311 177.921 C 314.311 184.291 313.002 186.965 309.759 186.965 C 306.518 186.965 305.21 184.35 305.21 177.979 Z  M 309.873 163.304 C 302.366 163.304 297.758 168.879 297.758 177.866 C 297.758 187.135 302.196 192.539 309.816 192.539 C 317.154 192.539 321.761 186.908 321.761 177.979 C 321.761 168.822 317.325 163.304 309.873 163.304 Z " fill-rule="evenodd" fill="rgb(240,162,0)"/><path d=" M 336.658 186.965 C 334.156 186.965 333.302 185.658 333.302 181.96 L 333.302 181.449 L 333.302 164.271 C 333.302 163.645 333.131 163.361 332.676 163.361 C 332.562 163.361 332.392 163.418 332.222 163.418 L 327.103 164.556 C 326.362 164.726 326.249 164.783 326.249 165.579 L 326.249 181.733 C 326.249 186.965 326.534 188.273 328.126 190.151 C 329.435 191.686 331.596 192.539 334.383 192.539 C 337.569 192.539 339.559 191.686 342.062 189.297 C 342.461 191.233 343.085 192.312 343.711 192.312 L 344.053 192.312 C 344.166 192.256 344.223 192.256 344.337 192.256 L 348.943 191.174 C 349.342 191.117 349.457 191.004 349.457 190.72 C 349.457 190.607 349.399 190.435 349.342 190.208 C 348.489 188.616 348.262 187.364 348.262 184.633 L 348.262 164.271 C 348.262 163.645 348.147 163.361 347.75 163.361 C 347.693 163.361 347.579 163.361 347.466 163.418 L 347.239 163.418 L 342.062 164.556 C 341.323 164.726 341.266 164.783 341.266 165.579 L 341.266 184.917 C 339.617 186.339 338.195 186.965 336.658 186.965 Z " fill-rule="evenodd" fill="rgb(240,162,0)"/><path d=" M 360.716 163.076 L 360.43 163.076 C 360.317 163.134 360.26 163.134 360.205 163.191 L 355.313 165.01 C 354.971 165.125 354.799 165.295 354.799 165.522 C 354.799 165.636 354.856 165.806 354.971 166.035 C 355.767 167.684 356.166 169.675 356.166 172.063 L 356.166 190.607 C 356.166 191.46 356.278 191.573 357.076 191.573 L 362.194 191.573 C 363.049 191.573 363.161 191.46 363.161 190.607 L 363.161 171.267 C 365.038 169.618 366.347 168.992 367.997 168.992 C 370.215 168.992 371.182 170.357 371.182 173.6 L 371.182 190.607 C 371.182 191.46 371.239 191.573 372.091 191.573 L 377.212 191.573 C 378.065 191.573 378.178 191.46 378.178 190.607 L 378.178 172.063 C 378.178 166.035 375.96 163.304 371.012 163.304 C 367.882 163.304 365.494 164.327 362.707 166.831 C 362.083 164.441 361.398 163.076 360.716 163.076 Z " fill-rule="evenodd" fill="rgb(240,162,0)"/><path d=" M 401.213 185.089 C 401.098 185.089 400.871 185.203 400.642 185.373 C 399.107 186.454 397.628 186.965 396.151 186.965 C 392.282 186.965 390.575 184.236 390.575 178.093 C 390.575 171.779 392.282 168.879 396.093 168.879 C 397.686 168.879 398.766 169.333 400.756 170.756 C 400.984 170.926 401.156 170.983 401.325 170.983 C 401.497 170.983 401.665 170.868 401.782 170.584 L 403.715 167.115 C 403.828 166.944 403.885 166.659 403.885 166.489 C 403.885 166.205 403.658 165.921 403.259 165.579 C 401.497 164.157 398.821 163.304 396.036 163.304 C 388.128 163.304 383.295 169.049 383.295 178.433 C 383.295 187.364 387.616 192.539 395.183 192.539 C 397.344 192.539 399.447 192.085 401.098 191.289 C 402.463 190.663 403.202 190.038 403.202 189.468 C 403.202 189.355 403.146 189.185 402.975 188.843 L 401.665 185.486 C 401.553 185.203 401.44 185.089 401.213 185.089 Z " fill-rule="evenodd" fill="rgb(240,162,0)"/><path d=" M 416.197 151.702 C 413.695 151.702 411.706 153.691 411.706 156.138 C 411.706 158.64 413.695 160.631 416.142 160.631 C 418.645 160.631 420.636 158.64 420.636 156.138 C 420.636 153.691 418.645 151.702 416.197 151.702 Z  M 412.844 190.607 C 412.844 191.46 412.957 191.573 413.81 191.573 L 418.929 191.573 C 419.725 191.573 419.838 191.46 419.838 190.607 L 419.838 165.237 C 419.838 164.386 419.725 164.271 418.929 164.271 L 408.633 164.271 C 407.837 164.271 407.722 164.386 407.722 165.237 L 407.722 168.423 C 407.722 169.276 407.837 169.391 408.633 169.391 L 412.844 169.391 L 412.844 190.607 Z " fill-rule="evenodd" fill="rgb(240,162,0)"/><path d=" M 426.945 152.668 C 426.377 152.782 426.092 153.124 426.092 153.691 L 426.092 181.79 L 426.149 184.121 C 426.149 187.648 426.548 189.185 427.799 190.607 C 428.879 191.8 430.755 192.539 432.918 192.539 C 434.682 192.539 436.56 192.14 437.98 191.516 C 438.264 191.403 438.492 191.174 438.492 191.004 C 438.492 190.947 438.436 190.89 438.436 190.777 L 438.377 190.491 L 437.241 185.999 C 437.185 185.772 437.012 185.658 436.842 185.658 C 436.728 185.658 436.615 185.658 436.443 185.713 C 435.762 185.942 435.193 186.055 434.624 186.055 C 433.43 186.055 433.145 185.43 433.145 183.212 L 433.145 181.334 L 433.145 152.498 C 433.145 151.815 432.975 151.53 432.576 151.53 C 432.519 151.53 432.404 151.53 432.292 151.587 L 431.893 151.643 L 426.945 152.668 Z " fill-rule="evenodd" fill="rgb(240,162,0)"/><path d=" M 151.132 109.397 L 146.696 95.461 C 146.411 94.665 146.297 94.552 145.444 94.552 L 139.984 94.552 C 139.017 94.552 138.904 94.722 138.847 95.688 L 137.253 131.352 L 137.253 131.693 C 137.253 132.319 137.482 132.489 138.335 132.489 L 142.828 132.489 C 143.795 132.489 143.966 132.375 143.966 131.352 L 144.421 112.583 L 144.421 110.819 L 144.421 108.374 L 144.421 106.268 L 144.363 103.88 C 145.159 107.576 146.014 111.046 146.411 112.411 L 149.483 123.161 C 149.767 124.071 149.824 124.129 150.735 124.129 L 154.091 124.129 C 154.999 124.129 155.058 124.071 155.341 123.218 L 158.926 111.899 C 159.494 109.966 160.063 107.805 160.972 103.88 L 160.916 106.098 L 160.916 107.918 C 160.859 108.715 160.859 109.397 160.859 109.91 C 160.859 110.592 160.859 111.216 160.916 111.842 L 161.256 131.352 C 161.314 132.319 161.428 132.489 162.451 132.489 L 167.456 132.489 C 168.254 132.489 168.538 132.319 168.538 131.693 L 168.538 131.295 L 166.775 95.688 C 166.717 94.722 166.547 94.552 165.637 94.552 L 160.405 94.552 C 159.494 94.552 159.437 94.609 159.153 95.461 L 154.488 109.34 C 153.976 110.762 153.579 112.184 153.067 114.117 L 152.611 115.768 C 151.985 112.865 151.416 110.42 151.132 109.397 Z " fill-rule="evenodd" fill="rgb(240,162,0)"/><path d=" M 185.664 109.284 C 188.452 109.284 189.531 110.989 189.645 115.597 L 181 115.597 C 181.512 111.046 182.764 109.284 185.664 109.284 Z  M 195.732 120.716 C 196.755 120.716 196.983 120.431 196.983 119.294 C 196.983 109.284 193.343 104.22 186.005 104.22 C 178.725 104.22 173.947 110.136 173.947 119.065 C 173.947 128.395 178.269 133.457 186.29 133.457 C 188.735 133.457 190.897 133.058 193.173 132.205 C 195.448 131.352 196.244 130.84 196.244 130.157 C 196.244 129.987 196.187 129.874 196.074 129.531 L 194.652 126.289 C 194.537 125.948 194.31 125.778 194.026 125.778 C 193.854 125.778 193.627 125.835 193.343 126.007 C 191.182 127.143 189.076 127.712 186.973 127.712 C 182.934 127.712 181 125.437 180.886 120.716 L 195.732 120.716 Z " fill-rule="evenodd" fill="rgb(240,162,0)"/><path d=" M 200.712 105.188 C 199.857 105.188 199.744 105.245 199.744 106.098 L 199.744 109.34 C 199.744 110.136 199.857 110.25 200.712 110.25 L 204.465 110.25 L 204.465 124.755 C 204.465 127.427 204.635 128.452 205.261 129.817 C 206.343 132.148 208.731 133.457 211.974 133.457 C 214.077 133.457 216.523 132.944 218.458 132.148 C 219.027 131.92 219.254 131.693 219.254 131.239 C 219.254 131.124 219.254 131.067 219.197 130.953 L 219.14 130.67 L 218.231 126.803 C 218.116 126.404 217.945 126.234 217.662 126.234 C 217.548 126.234 217.376 126.234 217.206 126.347 C 215.158 127.143 214.647 127.257 213.566 127.257 C 211.859 127.257 211.518 126.631 211.518 123.73 L 211.518 110.25 L 216.979 110.25 C 217.605 110.25 217.832 110.136 217.945 109.454 L 218.685 106.211 C 218.685 106.098 218.741 106.041 218.741 105.984 L 218.741 105.757 C 218.741 105.302 218.571 105.188 217.832 105.188 L 211.518 105.188 L 211.518 97.396 C 211.518 96.713 211.348 96.428 210.949 96.428 C 210.892 96.428 210.836 96.486 210.665 96.486 L 210.493 96.486 L 205.375 97.224 C 204.579 97.339 204.465 97.452 204.465 98.192 L 204.465 105.188 L 200.712 105.188 Z " fill-rule="evenodd" fill="rgb(240,162,0)"/><path d=" M 228.229 104.277 C 228.059 104.277 227.889 104.335 227.604 104.392 L 223.111 105.984 C 222.769 106.098 222.598 106.326 222.598 106.61 C 222.598 106.724 222.655 106.894 222.712 107.064 L 223.054 107.86 C 223.964 109.966 224.362 111.899 224.362 114.743 L 224.362 131.522 C 224.362 132.375 224.476 132.489 225.272 132.489 L 230.391 132.489 C 231.245 132.489 231.357 132.375 231.357 131.522 L 231.357 113.151 C 233.064 111.273 234.373 110.477 235.566 110.477 C 236.192 110.477 237.103 110.647 237.786 110.989 C 237.956 111.046 238.07 111.046 238.126 111.046 C 238.355 111.046 238.468 110.933 238.639 110.535 L 240.288 106.041 C 240.344 105.871 240.401 105.585 240.401 105.472 C 240.401 104.846 238.924 104.22 237.273 104.22 C 234.828 104.22 233.235 105.131 230.903 107.918 L 230.334 108.544 C 229.765 105.927 228.912 104.277 228.229 104.277 Z " fill-rule="evenodd" fill="rgb(240,162,0)"/><path d=" M 249.19 118.895 C 249.19 112.411 250.498 109.796 253.741 109.796 C 256.982 109.796 258.291 112.468 258.291 118.838 C 258.291 125.209 256.982 127.882 253.741 127.882 C 250.498 127.882 249.19 125.266 249.19 118.895 Z  M 253.855 104.22 C 246.346 104.22 241.74 109.796 241.74 118.782 C 241.74 128.053 246.176 133.457 253.798 133.457 C 261.134 133.457 265.742 127.826 265.742 118.895 C 265.742 109.738 261.306 104.22 253.855 104.22 Z " fill-rule="evenodd" fill="rgb(240,162,0)"/><path d=" M 283.764 109.796 C 286.891 109.796 288.258 112.525 288.258 118.611 C 288.258 125.721 287.007 128.109 283.308 128.109 C 281.886 128.109 280.92 127.826 279.498 127.086 L 279.498 111.842 C 281.147 110.363 282.285 109.796 283.764 109.796 Z  M 277.108 104.22 C 276.994 104.22 276.881 104.277 276.597 104.392 L 271.819 106.438 C 271.363 106.61 271.25 106.724 271.25 107.007 C 271.25 107.122 271.307 107.236 271.363 107.406 C 272.216 109.511 272.502 110.706 272.502 112.865 L 272.502 143.24 C 272.502 143.921 272.615 144.15 273.012 144.15 C 273.071 144.15 273.355 144.15 273.526 144.093 L 278.702 143.011 C 279.441 142.841 279.498 142.785 279.498 141.988 L 279.498 131.978 C 281.489 133.058 282.911 133.457 285.129 133.457 C 291.898 133.457 295.254 128.452 295.254 118.326 C 295.254 109.17 291.898 104.22 285.698 104.22 C 282.968 104.22 280.92 105.075 278.645 107.122 C 278.246 105.415 277.62 104.22 277.108 104.22 Z " fill-rule="evenodd" fill="rgb(240,162,0)"/><path d=" M 307.193 118.895 C 307.193 112.411 308.501 109.796 311.742 109.796 C 314.985 109.796 316.293 112.468 316.293 118.838 C 316.293 125.209 314.985 127.882 311.742 127.882 C 308.501 127.882 307.193 125.266 307.193 118.895 Z  M 311.857 104.22 C 304.349 104.22 299.741 109.796 299.741 118.782 C 299.741 128.053 304.178 133.457 311.8 133.457 C 319.137 133.457 323.745 127.826 323.745 118.895 C 323.745 109.738 319.307 104.22 311.857 104.22 Z " fill-rule="evenodd" fill="rgb(240,162,0)"/><path d=" M 330.845 93.586 C 330.276 93.699 329.992 94.039 329.992 94.609 L 329.992 122.705 L 330.049 125.039 C 330.049 128.565 330.446 130.1 331.698 131.522 C 332.779 132.717 334.655 133.457 336.816 133.457 C 338.58 133.457 340.458 133.058 341.88 132.434 C 342.164 132.319 342.392 132.092 342.392 131.92 C 342.392 131.865 342.336 131.808 342.336 131.693 L 342.277 131.409 L 341.141 126.914 C 341.084 126.687 340.912 126.574 340.742 126.574 C 340.628 126.574 340.515 126.574 340.345 126.631 C 339.66 126.858 339.093 126.973 338.524 126.973 C 337.329 126.973 337.045 126.347 337.045 124.129 L 337.045 122.251 L 337.045 93.414 C 337.045 92.733 336.875 92.447 336.476 92.447 C 336.419 92.447 336.306 92.447 336.191 92.504 L 335.793 92.561 L 330.845 93.586 Z " fill-rule="evenodd" fill="rgb(240,162,0)"/><path d=" M 351.039 92.617 C 348.537 92.617 346.546 94.609 346.546 97.054 C 346.546 99.557 348.537 101.548 350.982 101.548 C 353.486 101.548 355.477 99.557 355.477 97.054 C 355.477 94.609 353.486 92.617 351.039 92.617 Z  M 347.685 131.522 C 347.685 132.375 347.798 132.489 348.651 132.489 L 353.77 132.489 C 354.567 132.489 354.681 132.375 354.681 131.522 L 354.681 106.154 C 354.681 105.302 354.567 105.188 353.77 105.188 L 343.476 105.188 C 342.679 105.188 342.564 105.302 342.564 106.154 L 342.564 109.34 C 342.564 110.193 342.679 110.307 343.476 110.307 L 347.685 110.307 L 347.685 131.522 Z " fill-rule="evenodd" fill="rgb(240,162,0)"/><path d=" M 361.35 105.188 C 360.495 105.188 360.382 105.245 360.382 106.098 L 360.382 109.34 C 360.382 110.136 360.495 110.25 361.35 110.25 L 365.105 110.25 L 365.105 124.755 C 365.105 127.427 365.275 128.452 365.901 129.817 C 366.981 132.148 369.371 133.457 372.612 133.457 C 374.718 133.457 377.163 132.944 379.096 132.148 C 379.667 131.92 379.892 131.693 379.892 131.239 C 379.892 131.124 379.892 131.067 379.835 130.953 L 379.78 130.67 L 378.869 126.803 C 378.755 126.404 378.584 126.234 378.3 126.234 C 378.186 126.234 378.014 126.234 377.844 126.347 C 375.796 127.143 375.287 127.257 374.204 127.257 C 372.499 127.257 372.158 126.631 372.158 123.73 L 372.158 110.25 L 377.617 110.25 C 378.243 110.25 378.47 110.136 378.584 109.454 L 379.325 106.211 C 379.325 106.098 379.381 106.041 379.381 105.984 L 379.381 105.757 C 379.381 105.302 379.209 105.188 378.47 105.188 L 372.158 105.188 L 372.158 97.396 C 372.158 96.713 371.986 96.428 371.589 96.428 C 371.532 96.428 371.474 96.486 371.304 96.486 L 371.132 96.486 L 366.013 97.224 C 365.217 97.339 365.105 97.452 365.105 98.192 L 365.105 105.188 L 361.35 105.188 Z " fill-rule="evenodd" fill="rgb(240,162,0)"/><path d=" M 397.231 126.177 C 395.922 127.655 394.5 128.338 393.022 128.338 C 391.031 128.338 389.493 126.687 389.493 124.526 C 389.493 121.455 391.713 120.09 396.662 120.09 L 397.231 120.09 L 397.231 126.177 Z  M 396.777 115.541 C 392.226 115.597 390.006 115.995 387.504 117.133 C 384.377 118.555 382.839 121.113 382.839 124.925 C 382.839 130.044 386.081 133.287 391.146 133.287 C 393.988 133.287 395.979 132.375 398.197 130.1 C 398.823 132.375 399.335 133.4 399.904 133.4 C 400.018 133.4 400.302 133.343 400.53 133.23 L 404.853 131.466 C 405.137 131.352 405.309 131.124 405.309 130.897 C 405.309 130.783 405.252 130.556 405.137 130.327 C 404.227 128.452 403.828 126.803 403.828 124.356 L 403.828 113.094 C 403.828 111.445 403.771 110.535 403.488 109.511 C 402.52 106.098 399.335 104.22 394.387 104.22 C 391.656 104.22 388.928 104.732 386.538 105.585 C 385.343 106.041 384.944 106.326 384.944 106.837 C 384.944 106.952 385.002 107.122 385.057 107.406 L 386.254 110.762 C 386.366 111.161 386.538 111.273 386.822 111.273 C 386.935 111.273 387.22 111.216 387.392 111.161 C 389.951 110.136 391.883 109.681 393.534 109.681 C 396.378 109.681 397.231 110.647 397.231 113.833 L 397.231 115.541 L 396.777 115.541 Z " fill-rule="evenodd" fill="rgb(240,162,0)"/><path d=" M 415.971 103.993 L 415.686 103.993 C 415.571 104.05 415.516 104.05 415.459 104.107 L 410.566 105.927 C 410.225 106.041 410.057 106.211 410.057 106.438 C 410.057 106.553 410.113 106.724 410.225 106.952 C 411.021 108.601 411.42 110.592 411.42 112.98 L 411.42 131.522 C 411.42 132.375 411.534 132.489 412.331 132.489 L 417.448 132.489 C 418.303 132.489 418.415 132.375 418.415 131.522 L 418.415 112.184 C 420.292 110.535 421.602 109.91 423.251 109.91 C 425.469 109.91 426.436 111.273 426.436 114.516 L 426.436 131.522 C 426.436 132.375 426.494 132.489 427.347 132.489 L 432.466 132.489 C 433.318 132.489 433.434 132.375 433.434 131.522 L 433.434 112.98 C 433.434 106.952 431.214 104.22 426.267 104.22 C 423.138 104.22 420.748 105.245 417.961 107.748 C 417.335 105.358 416.652 103.993 415.971 103.993 Z " fill-rule="evenodd" fill="rgb(240,162,0)"/></g></svg>