<?xml version="1.0" standalone="no"?><!-- Generator: Gravit.io --><svg xmlns="http://www.w3.org/2000/svg" xmlns:xlink="http://www.w3.org/1999/xlink" style="isolation:isolate" viewBox="0 0 32 32" width="32" height="32"><defs><clipPath id="_clipPath_CSEOr5XXzu8gfFJBPsMrFhPjTaTzeIMc"><rect width="32" height="32"/></clipPath></defs><g clip-path="url(#_clipPath_CSEOr5XXzu8gfFJBPsMrFhPjTaTzeIMc)"><g id="Dark_Blue"><rect x="0" y="0" width="32" height="32" transform="matrix(1,0,0,1,0,0)" fill="rgb(29,161,242)"/></g><g id="Logo__x2014__FIXED"><path d=" M 12.288 24.128 C 19.832 24.128 23.96 17.872 23.96 12.456 C 23.96 12.28 23.96 12.104 23.952 11.928 C 24.752 11.352 25.448 10.624 26 9.8 C 25.264 10.128 24.472 10.344 23.64 10.448 C 24.488 9.944 25.136 9.136 25.448 8.176 C 24.656 8.648 23.776 8.984 22.84 9.168 C 22.088 8.368 21.024 7.872 19.848 7.872 C 17.584 7.872 15.744 9.712 15.744 11.976 C 15.744 12.296 15.784 12.608 15.848 12.912 C 12.44 12.744 9.416 11.104 7.392 8.624 C 7.04 9.232 6.84 9.936 6.84 10.688 C 6.84 12.112 7.568 13.368 8.664 14.104 C 7.992 14.08 7.36 13.896 6.808 13.592 C 6.808 13.608 6.808 13.624 6.808 13.648 C 6.808 15.632 8.224 17.296 10.096 17.672 C 9.752 17.768 9.392 17.816 9.016 17.816 C 8.752 17.816 8.496 17.792 8.248 17.744 C 8.768 19.376 10.288 20.56 12.08 20.592 C 10.672 21.696 8.904 22.352 6.984 22.352 C 6.656 22.352 6.328 22.336 6.008 22.296 C 7.816 23.448 9.976 24.128 12.288 24.128 Z " fill="rgb(255,255,255)"/></g></g></svg>