<?xml version="1.0" encoding="utf-8"?>
<!-- Generator: Adobe Illustrator 16.0.0, SVG Export Plug-In . SVG Version: 6.00 Build 0)  -->
<!DOCTYPE svg PUBLIC "-//W3C//DTD SVG 1.1//EN" "http://www.w3.org/Graphics/SVG/1.1/DTD/svg11.dtd">
<svg version="1.1" id="Layer_1" xmlns="http://www.w3.org/2000/svg" xmlns:xlink="http://www.w3.org/1999/xlink" x="0px" y="0px"
	 width="160px" height="88px" viewBox="8 4 160 88" enable-background="new 8 4 160 88" xml:space="preserve">
<g>
	<path d="M27.818,87.193c0-0.118-0.009-0.256-0.039-0.365c-0.129-0.533-0.595-0.989-1.247-0.989c-0.899,0-1.443,0.763-1.443,1.841
		c0,0.949,0.454,1.779,1.413,1.779c0.564,0,1.049-0.346,1.247-0.949c0.04-0.119,0.069-0.287,0.069-0.416V87.193z M27.818,89.3
		h-0.019c-0.257,0.476-0.792,0.851-1.563,0.851c-1.118,0-2.027-0.969-2.027-2.422c0-1.789,1.157-2.58,2.166-2.58
		c0.741,0,1.236,0.365,1.474,0.83h0.02l0.03-0.723h0.82c-0.021,0.405-0.03,0.821-0.03,1.314V92h-0.87L27.818,89.3L27.818,89.3z"/>
	<path d="M35.856,88.736c0,0.494,0.011,0.93,0.04,1.308h-0.771l-0.049-0.782h-0.02c-0.227,0.385-0.733,0.889-1.583,0.889
		c-0.752,0-1.652-0.414-1.652-2.096v-2.799h0.87v2.65c0,0.908,0.277,1.523,1.068,1.523c0.583,0,0.988-0.406,1.147-0.793
		c0.05-0.128,0.079-0.285,0.079-0.445v-2.937h0.87L35.856,88.736L35.856,88.736z"/>
	<path d="M39.029,85.256h0.87v4.786h-0.87V85.256z M39.999,83.911c0.009,0.297-0.208,0.532-0.555,0.532
		c-0.305,0-0.523-0.235-0.523-0.532c0-0.308,0.227-0.545,0.543-0.545C39.791,83.366,39.999,83.604,39.999,83.911"/>
	<path d="M46.484,89.864c-0.227,0.118-0.731,0.276-1.375,0.276c-1.443,0-2.384-0.979-2.384-2.442c0-1.474,1.009-2.541,2.571-2.541
		c0.514,0,0.969,0.13,1.207,0.245l-0.199,0.675c-0.207-0.12-0.533-0.228-1.008-0.228c-1.098,0-1.691,0.811-1.691,1.811
		c0,1.107,0.712,1.79,1.661,1.79c0.495,0,0.821-0.13,1.068-0.239L46.484,89.864z"/>
	<path d="M50.092,87.45h0.02c0.119-0.167,0.287-0.375,0.425-0.543l1.404-1.651h1.048l-1.85,1.969l2.106,2.818h-1.058l-1.651-2.295
		l-0.445,0.494v1.801h-0.86V83.02h0.86L50.092,87.45L50.092,87.45z"/>
	<rect x="58.9" y="87.045" width="2.444" height="0.645"/>
	<path d="M67.7,89.152c0.257,0.168,0.712,0.346,1.147,0.346c0.632,0,0.93-0.316,0.93-0.713c0-0.414-0.247-0.643-0.891-0.878
		c-0.86-0.31-1.266-0.782-1.266-1.355c0-0.772,0.623-1.403,1.651-1.403c0.484,0,0.911,0.139,1.176,0.297l-0.217,0.633
		c-0.188-0.12-0.534-0.277-0.979-0.277c-0.514,0-0.8,0.297-0.8,0.653c0,0.396,0.287,0.573,0.909,0.812
		c0.831,0.315,1.256,0.73,1.256,1.442c0,0.841-0.652,1.435-1.79,1.435c-0.525,0-1.009-0.129-1.345-0.326L67.7,89.152z"/>
	<path d="M73.463,85.256h0.87v4.786h-0.87V85.256z M74.433,83.911c0.009,0.297-0.208,0.532-0.554,0.532
		c-0.306,0-0.524-0.235-0.524-0.532c0-0.308,0.227-0.545,0.543-0.545C74.225,83.366,74.433,83.604,74.433,83.911"/>
	<path d="M77.507,86.551c0-0.494-0.009-0.898-0.04-1.295h0.762l0.04,0.771h0.029c0.267-0.454,0.712-0.879,1.503-0.879
		c0.652,0,1.147,0.395,1.355,0.959h0.02c0.148-0.268,0.335-0.477,0.533-0.623c0.287-0.219,0.604-0.336,1.059-0.336
		c0.633,0,1.572,0.414,1.572,2.076v2.818h-0.85v-2.71c0-0.92-0.335-1.474-1.038-1.474c-0.494,0-0.879,0.365-1.029,0.789
		c-0.039,0.119-0.068,0.277-0.068,0.438v2.957h-0.852v-2.869c0-0.761-0.336-1.314-0.999-1.314c-0.544,0-0.939,0.436-1.077,0.871
		c-0.049,0.129-0.069,0.275-0.069,0.424v2.89h-0.851V86.551L77.507,86.551z"/>
	<path d="M88.342,88.094c0,0.129,0.02,0.248,0.04,0.357c0.158,0.602,0.683,1.018,1.306,1.018c0.92,0,1.453-0.752,1.453-1.85
		c0-0.959-0.504-1.779-1.424-1.779c-0.594,0-1.146,0.426-1.314,1.077c-0.031,0.11-0.061,0.237-0.061,0.356V88.094z M87.482,86.818
		c0-0.613-0.02-1.108-0.04-1.562h0.782l0.039,0.821h0.021c0.354-0.584,0.92-0.931,1.702-0.931c1.156,0,2.025,0.979,2.025,2.434
		c0,1.721-1.049,2.57-2.176,2.57c-0.632,0-1.186-0.276-1.474-0.75h-0.02V92h-0.86V86.818L87.482,86.818z"/>
	<rect x="94.838" y="83.021" width="0.87" height="7.022"/>
	<path d="M101.938,87.186c0.011-0.556-0.229-1.414-1.207-1.414c-0.881,0-1.266,0.811-1.334,1.414H101.938z M99.387,87.809
		c0.02,1.176,0.771,1.659,1.641,1.659c0.623,0,0.998-0.106,1.324-0.245l0.148,0.621c-0.307,0.139-0.83,0.297-1.593,0.297
		c-1.472,0-2.354-0.969-2.354-2.412s0.852-2.58,2.245-2.58c1.563,0,1.978,1.373,1.978,2.254c0,0.179-0.018,0.316-0.028,0.406H99.387
		z"/>
	<rect x="108.887" y="87.045" width="2.442" height="0.645"/>
	<path d="M117.686,89.152c0.258,0.168,0.711,0.346,1.146,0.346c0.633,0,0.932-0.316,0.932-0.713c0-0.414-0.25-0.643-0.893-0.878
		c-0.859-0.31-1.266-0.782-1.266-1.355c0-0.772,0.623-1.403,1.65-1.403c0.484,0,0.91,0.139,1.178,0.297l-0.218,0.633
		c-0.188-0.12-0.534-0.277-0.979-0.277c-0.514,0-0.801,0.297-0.801,0.653c0,0.396,0.287,0.573,0.91,0.812
		c0.831,0.315,1.256,0.73,1.256,1.442c0,0.841-0.65,1.435-1.789,1.435c-0.525,0-1.01-0.129-1.347-0.326L117.686,89.152z"/>
	<path d="M126.484,87.186c0.011-0.556-0.227-1.414-1.207-1.414c-0.879,0-1.266,0.811-1.334,1.414H126.484z M123.934,87.809
		c0.021,1.176,0.771,1.659,1.642,1.659c0.624,0,0.999-0.106,1.325-0.245l0.149,0.621c-0.308,0.139-0.832,0.297-1.594,0.297
		c-1.474,0-2.353-0.969-2.353-2.412s0.85-2.58,2.244-2.58c1.562,0,1.977,1.373,1.977,2.254c0,0.179-0.018,0.316-0.029,0.406H123.934
		z"/>
	<path d="M133.544,89.864c-0.228,0.118-0.731,0.276-1.375,0.276c-1.442,0-2.384-0.979-2.384-2.442c0-1.474,1.009-2.541,2.57-2.541
		c0.516,0,0.97,0.13,1.207,0.245l-0.197,0.675c-0.208-0.12-0.534-0.228-1.01-0.228c-1.098,0-1.689,0.811-1.689,1.811
		c0,1.107,0.712,1.79,1.661,1.79c0.493,0,0.819-0.13,1.067-0.239L133.544,89.864z"/>
	<path d="M140.297,88.736c0,0.494,0.012,0.93,0.04,1.308h-0.772l-0.047-0.782h-0.021c-0.229,0.385-0.732,0.889-1.582,0.889
		c-0.753,0-1.652-0.414-1.652-2.096v-2.799h0.871v2.65c0,0.908,0.275,1.523,1.066,1.523c0.584,0,0.99-0.406,1.148-0.793
		c0.049-0.128,0.078-0.285,0.078-0.445v-2.937h0.87L140.297,88.736L140.297,88.736z"/>
	<path d="M143.469,86.749c0-0.563-0.01-1.048-0.039-1.493h0.762l0.029,0.939h0.039c0.219-0.645,0.742-1.049,1.326-1.049
		c0.1,0,0.168,0.011,0.247,0.029v0.821c-0.09-0.021-0.179-0.029-0.297-0.029c-0.613,0-1.05,0.464-1.168,1.117
		c-0.021,0.117-0.039,0.257-0.039,0.405v2.553h-0.86V86.749z"/>
	<path d="M151.369,87.186c0.011-0.556-0.229-1.414-1.206-1.414c-0.881,0-1.267,0.811-1.335,1.414H151.369z M148.816,87.809
		c0.021,1.176,0.772,1.659,1.643,1.659c0.624,0,0.999-0.106,1.326-0.245l0.146,0.621c-0.306,0.139-0.83,0.297-1.592,0.297
		c-1.473,0-2.354-0.969-2.354-2.412s0.852-2.58,2.246-2.58c1.562,0,1.977,1.373,1.977,2.254c0,0.179-0.02,0.316-0.027,0.406H148.816
		z"/>
</g>
<g>
	<g>
		<path d="M14.942,63.43l4.262-7.402h5.954l-8.359,12.225l-1.652,7.744h-5.34l1.639-7.744L8.209,56.027h5.504L14.942,63.43z"/>
		<path d="M27.197,76.268c-1.903,0-3.372-0.516-4.405-1.543c-1.034-1.029-1.55-2.498-1.55-4.412c0-1.91,0.363-3.64,1.085-5.183
			c0.725-1.543,1.742-2.743,3.053-3.598c1.311-0.856,2.84-1.284,4.588-1.284c1.903,0,3.371,0.513,4.405,1.542
			c1.033,1.028,1.55,2.5,1.55,4.412s-0.363,3.639-1.085,5.183c-0.724,1.545-1.742,2.743-3.053,3.6
			C30.475,75.84,28.944,76.268,27.197,76.268z M29.354,64.223c-0.747,0-1.386,0.635-1.918,1.904
			c-0.532,1.27-0.799,2.727-0.799,4.363c0,1.212,0.382,1.816,1.147,1.816c0.737,0,1.379-0.633,1.925-1.898s0.82-2.723,0.82-4.37
			c0-0.601-0.105-1.054-0.314-1.358C30.005,64.374,29.719,64.223,29.354,64.223z"/>
		<path d="M43.162,70.873c0,0.4,0.103,0.695,0.308,0.887c0.205,0.192,0.448,0.288,0.73,0.288c0.537,0,1.026-0.356,1.468-1.071
			c0.442-0.717,0.795-1.691,1.059-2.931l1.584-7.524h5.285l-3.263,15.475h-4.234l0.177-2.158h-0.109
			c-0.492,0.848-1.078,1.463-1.755,1.852c-0.679,0.387-1.515,0.58-2.506,0.58c-1.284,0-2.285-0.391-3.004-1.168
			c-0.72-0.778-1.079-1.852-1.079-3.217c0-0.965,0.114-2.009,0.341-3.128l1.735-8.235h5.285l-1.761,8.428
			C43.249,69.693,43.162,70.335,43.162,70.873z"/>
		<path d="M66.496,60.248c0.509,0,0.874,0.035,1.093,0.107l-1.147,5.231c-0.493-0.2-1.052-0.302-1.681-0.302
			c-0.938,0-1.687,0.322-2.246,0.964c-0.56,0.644-0.986,1.623-1.277,2.942l-1.448,6.803h-5.285l3.263-15.475h4.221l-0.246,2.582
			h0.109c0.592-1.021,1.234-1.752,1.926-2.193C64.47,60.469,65.376,60.248,66.496,60.248z"/>
	</g>
	<g>
		<path d="M77.68,70.449h-6.624l-2.854,5.546h-3.469L75.427,56h3.742l2.268,19.995H78.24L77.68,70.449z M77.461,67.607
			c-0.364-3.787-0.571-6.078-0.622-6.877c-0.05-0.795-0.074-1.431-0.074-1.903c-0.501,1.266-1.147,2.663-1.94,4.192l-2.35,4.588
			H77.461z"/>
		<path d="M89.57,76.268c-1.786,0-3.169-0.481-4.152-1.447c-0.984-0.965-1.475-2.344-1.475-4.139c0-1.885,0.334-3.599,1.004-5.142
			c0.668-1.543,1.609-2.75,2.82-3.62c1.209-0.869,2.586-1.304,4.125-1.304c1.491,0,2.844,0.278,4.056,0.833l-0.955,2.513
			c-1.112-0.481-2.118-0.724-3.021-0.724c-1.365,0-2.502,0.699-3.414,2.097c-0.911,1.397-1.366,3.125-1.366,5.183
			c0,1.012,0.255,1.791,0.765,2.336c0.51,0.547,1.215,0.819,2.117,0.819c0.673,0,1.303-0.103,1.891-0.301
			c0.589-0.199,1.177-0.445,1.769-0.738v2.664C92.46,75.943,91.07,76.268,89.57,76.268z"/>
		<path d="M102.598,76.268c-1.783,0-3.168-0.481-4.149-1.447c-0.984-0.965-1.476-2.344-1.476-4.139c0-1.885,0.334-3.599,1.004-5.142
			c0.668-1.543,1.607-2.75,2.818-3.62c1.212-0.869,2.587-1.304,4.126-1.304c1.492,0,2.845,0.278,4.056,0.833l-0.955,2.513
			c-1.11-0.481-2.117-0.724-3.02-0.724c-1.365,0-2.505,0.699-3.414,2.097c-0.911,1.397-1.365,3.125-1.365,5.183
			c0,1.012,0.256,1.791,0.766,2.336c0.51,0.547,1.215,0.819,2.115,0.819c0.674,0,1.306-0.103,1.893-0.301
			c0.588-0.199,1.177-0.445,1.77-0.738v2.664C105.488,75.943,104.102,76.268,102.598,76.268z"/>
		<path d="M123.453,66.544c0,1.84-0.332,3.513-0.997,5.019c-0.665,1.508-1.577,2.662-2.737,3.47
			c-1.16,0.806-2.498,1.209-4.009,1.209c-1.748,0-3.137-0.521-4.165-1.563c-1.029-1.043-1.544-2.461-1.544-4.255
			c0-1.812,0.325-3.474,0.976-4.983c0.652-1.513,1.564-2.689,2.739-3.53c1.175-0.843,2.53-1.265,4.069-1.265
			c1.775,0,3.164,0.528,4.166,1.584C122.952,63.284,123.453,64.723,123.453,66.544z M120.217,66.406c0-0.975-0.224-1.735-0.67-2.287
			c-0.445-0.551-1.083-0.826-1.912-0.826c-0.847,0-1.604,0.326-2.273,0.977c-0.67,0.651-1.188,1.535-1.557,2.649
			c-0.369,1.115-0.554,2.308-0.554,3.571c0,1.011,0.226,1.785,0.677,2.32c0.451,0.539,1.117,0.807,2.002,0.807
			c0.817,0,1.557-0.309,2.211-0.928c0.655-0.619,1.166-1.486,1.53-2.604C120.034,68.973,120.217,67.745,120.217,66.406z"/>
		<path d="M131.383,60.891l-1.764,8.33c-0.281,1.283-0.424,2.162-0.424,2.637c0,1.209,0.578,1.815,1.736,1.815
			c0.653,0,1.307-0.26,1.951-0.778c0.646-0.52,1.221-1.26,1.721-2.22c0.502-0.96,0.89-2.088,1.162-3.38l1.353-6.404h3.183
			l-3.183,15.104h-2.526l0.286-2.802h-0.108c-0.746,1.058-1.524,1.834-2.336,2.33c-0.811,0.494-1.685,0.744-2.621,0.744
			c-1.222,0-2.162-0.347-2.828-1.039c-0.664-0.691-0.996-1.685-0.996-2.977c0-0.574,0.054-1.141,0.164-1.701
			c0.108-0.559,0.219-1.121,0.328-1.688l1.68-7.975h3.223V60.891z"/>
		<path d="M150.307,75.995l1.938-9.179c0.163-0.819,0.245-1.416,0.245-1.789c0-1.192-0.588-1.789-1.762-1.789
			c-0.655,0-1.303,0.26-1.938,0.777c-0.64,0.521-1.212,1.269-1.722,2.246c-0.51,0.979-0.894,2.09-1.146,3.326l-1.34,6.406h-3.223
			l3.223-15.105h2.514l-0.287,2.801h0.125c0.756-1.074,1.532-1.855,2.334-2.344c0.801-0.486,1.67-0.729,2.608-0.729
			c1.22,0,2.164,0.347,2.834,1.038c0.669,0.691,1.003,1.675,1.003,2.949c0,0.629-0.104,1.453-0.312,2.473l-1.871,8.919H150.307z"/>
		<path d="M163.43,73.673c0.62,0,1.307-0.142,2.062-0.424v2.433c-0.319,0.153-0.752,0.291-1.299,0.408
			c-0.545,0.118-1.092,0.178-1.639,0.178c-2.494,0-3.742-1.125-3.742-3.373c0-0.52,0.072-1.115,0.219-1.789l1.652-7.785h-2.211
			l0.286-1.502l2.595-1.12l1.762-3.169h1.994l-0.711,3.361h3.811l-0.531,2.43h-3.783l-1.666,7.812
			c-0.119,0.501-0.178,0.92-0.178,1.256c0,0.393,0.113,0.703,0.342,0.937C162.62,73.559,162.965,73.673,163.43,73.673z"/>
	</g>
</g>
<path d="M88.075,4c-11.58,0-21,9.42-21,21s9.42,21,21,21c11.579,0,21-9.421,21-21S99.654,4,88.075,4z M88.075,11.458
	c4.233,0,7.661,3.427,7.661,7.661c0,4.234-3.428,7.662-7.661,7.662s-7.661-3.429-7.661-7.662
	C80.414,14.886,83.842,11.458,88.075,11.458z M88.075,30.611c5.026,0,14.969,2.48,15.307,7.404c-3.69,4.333-9.182,7.09-15.307,7.09
	s-11.616-2.757-15.307-7.091C73.106,33.091,83.049,30.611,88.075,30.611z"/>
</svg>
