<?xml version="1.0" standalone="no"?><!-- Generator: Gravit.io --><svg xmlns="http://www.w3.org/2000/svg" xmlns:xlink="http://www.w3.org/1999/xlink" style="isolation:isolate" viewBox="0 0 32 32" width="32" height="32"><defs><clipPath id="_clipPath_qz6wDfWhIbfCYWQ3zV6S4teJ7FrIbbgH"><rect width="32" height="32"/></clipPath></defs><g clip-path="url(#_clipPath_qz6wDfWhIbfCYWQ3zV6S4teJ7FrIbbgH)"><path d=" M 0 0 L 32 0 L 32 32 L 0 32 L 0 0 Z " fill="rgb(255,0,0)"/><g id="Group"><path d=" M 27.498 10.186 C 27.222 9.147 26.409 8.328 25.377 8.05 C 23.505 7.545 16 7.545 16 7.545 C 16 7.545 8.495 7.545 6.623 8.05 C 5.591 8.328 4.777 9.147 4.501 10.186 C 4 12.07 4 16 4 16 C 4 16 4 19.93 4.501 21.814 C 4.777 22.854 5.591 23.672 6.623 23.95 C 8.495 24.455 16 24.455 16 24.455 C 16 24.455 23.505 24.455 25.377 23.95 C 26.409 23.672 27.222 22.854 27.498 21.814 C 28 19.93 28 16 28 16 C 28 16 28 12.07 27.498 10.186 Z " fill="rgb(255,255,255)"/><path d=" M 13.545 19.569 L 19.818 16 L 13.545 12.432 L 13.545 19.569 Z " fill="rgb(255,0,0)"/></g></g></svg>